LINESeedJP-ExtraBold.glyphspackage
{
glyphname = exclam;
kernLeft = exclam;
layers = (
{
hints = (
{
horizontal = 1;
place = (-53, 217);
place = (-53, 217);
type = Stem;
},
{
place = (75, 173);
place = (75, 173);
type = Stem;
},
{
place = (48, 227);
place = (48, 227);
type = Stem;
}
);
layerId = m01;
shapes = (
{
closed = 1;
nodes = (
(230,232,ls),
(241,232,o),
(248,239,o),
(248,250,cs),
(261,754,ls),
(261,764,o),
(255,772,o),
(244,772,cs),
(80,772,ls),
(69,772,o),
(62,764,o),
(62,754,cs),
(75,250,ls),
(75,239,o),
(83,232,o),
(93,232,cs)
);
},
{
closed = 1;
nodes = (
(48,-9,o),
(98,-53,o),
(162,-53,cs),
(225,-53,o),
(275,-9,o),
(275,56,cs),
(275,120,o),
(225,164,o),
(162,164,cs),
(98,164,o),
(48,120,o),
(48,56,cs)
);
}
);
vertWidth = 1000;
width = 323;
}
);
note = cid00002;
unicode = 33;
}
{
glyphname = quotedbl;
kernLeft = quotedbl;
kernRight = quotedbl;
layers = (
{
hints = (
{
horizontal = 1;
place = (439, 333);
place = (439, 333);
type = Stem;
},
{
place = (69, 171);
place = (69, 171);
type = Stem;
},
{
place = (324, 171);
place = (324, 171);
type = Stem;
}
);
layerId = m01;
shapes = (
{
closed = 1;
nodes = (
(222,439,ls),
(233,439,o),
(240,445,o),
(240,456,cs),
(258,754,l),
(260,765,o),
(253,772,o),
(242,772,cs),
(87,772,ls),
(75,772,o),
(69,765,o),
(69,754,cs),
(88,456,ls),
(89,445,o),
(95,439,o),
(105,439,cs)
);
},
{
closed = 1;
nodes = (
(343,456,ls),
(344,445,o),
(350,439,o),
(360,439,cs),
(477,439,ls),
(488,439,o),
(495,445,o),
(495,456,cs),
(513,754,l),
(515,765,o),
(508,772,o),
(497,772,cs),
(342,772,ls),
(330,772,o),
(324,765,o),
(324,754,cs)
);
}
);
vertWidth = 1000;
width = 583;
}
);
note = cid00003;
unicode = 34;
}
{
glyphname = numbersign;
layers = (
{
hints = (
{
horizontal = 1;
place = (135, 162);
place = (135, 162);
type = Stem;
},
{
horizontal = 1;
place = (437, 162);
place = (437, 162);
type = Stem;
},
{
place = (35, 801);
place = (35, 801);
type = Stem;
}
);
layerId = m01;
shapes = (
{
closed = 1;
nodes = (
(264,-42,ls),
(274,-42,o),
(281,-36,o),
(283,-26,cs),
(318,135,l),
(451,135,l),
(417,-23,ls),
(414,-35,o),
(420,-42,o),
(433,-42,cs),
(566,-42,ls),
(576,-42,o),
(582,-36,o),
(584,-26,cs),
(620,135,l),
(723,135,ls),
(733,135,o),
(740,141,o),
(742,151,cs),
(770,277,ls),
(772,290,o),
(765,297,o),
(753,297,cs),
(655,297,l),
(686,437,l),
(790,437,ls),
(800,437,o),
(806,444,o),
(808,453,cs),
(835,580,ls),
(838,592,o),
(832,599,o),
(820,599,cs),
(722,599,l),
(755,750,l),
(759,762,o),
(752,769,o),
(740,769,cs),
(606,769,ls),
(596,769,o),
(589,763,o),
(587,754,cs),
(552,599,l),
(419,599,l),
(452,750,l),
(456,762,o),
(449,769,o),
(437,769,cs),
(304,769,ls),
(293,769,o),
(286,763,o),
(284,754,cs),
(250,599,l),
(147,599,ls),
(138,599,o),
(131,592,o),
(129,583,cs),
(102,456,ls),
(99,444,o),
(105,437,o),
(118,437,cs),
(215,437,l),
(184,297,l),
(81,297,ls),
(71,297,o),
(65,291,o),
(63,281,cs),
(35,154,ls),
(32,142,o),
(39,135,o),
(51,135,cs),
(149,135,l),
(114,-23,ls),
(112,-35,o),
(119,-42,o),
(130,-42,cs)
);
},
{
closed = 1;
nodes = (
(487,297,l),
(354,297,l),
(384,437,l),
(518,437,l)
);
}
);
vertWidth = 1000;
width = 871;
}
);
note = cid00004;
unicode = 35;
}
{
glyphname = dollar;
kernRight = dollar;
layers = (
{
hints = (
{
horizontal = 1;
place = (-121, 280);
place = (-121, 280);
type = Stem;
},
{
horizontal = 1;
place = (570, 279);
place = (570, 279);
type = Stem;
},
{
place = (267, 154);
place = (267, 154);
type = Stem;
},
{
horizontal = 1;
place = (0, 21);
target = up;
type = BottomGhost;
},
{
place = (65, 206);
place = (65, 206);
type = Stem;
},
{
place = (407, 213);
place = (407, 213);
type = Stem;
},
{
horizontal = 1;
place = (-3, 21);
target = up;
type = BottomGhost;
}
);
layerId = m01;
shapes = (
{
closed = 1;
nodes = (
(404,-121,ls),
(415,-121,o),
(421,-113,o),
(421,-103,cs),
(421,0,l),
(542,26,o),
(620,107,o),
(620,213,cs),
(620,322,o),
(555,393,o),
(415,437,cs),
(360,455,ls),
(293,478,o),
(271,499,o),
(271,527,cs),
(271,554,o),
(297,570,o),
(336,570,cs),
(379,570,o),
(414,555,o),
(437,509,c),
(440,501,o),
(445,496,o),
(453,496,cs),
(455,496,o),
(457,496,o),
(459,497,c),
(610,536,ls),
(619,538,o),
(623,544,o),
(623,551,cs),
(623,553,o),
(623,556,o),
(622,558,cs),
(589,653,o),
(516,710,o),
(421,730,c),
(421,831,ls),
(421,842,o),
(415,849,o),
(404,849,cs),
(285,849,ls),
(274,849,o),
(267,842,o),
(267,831,cs),
(267,730,l),
(150,707,o),
(65,623,o),
(65,516,cs),
(65,410,o),
(133,335,o),
(274,293,cs),
(327,277,ls),
(385,260,o),
(407,241,o),
(407,209,cs),
(407,176,o),
(381,159,o),
(334,159,cs),
(277,159,o),
(240,180,o),
(218,225,c),
(215,234,o),
(209,238,o),
(202,238,cs),
(200,238,o),
(198,238,o),
(196,237,c),
(50,201,ls),
(42,199,o),
(36,194,o),
(36,186,cs),
(36,184,o),
(37,182,o),
(38,179,cs),
(75,79,o),
(157,16,o),
(267,-3,c),
(267,-103,ls),
(267,-113,o),
(274,-121,o),
(285,-121,cs)
);
}
);
vertWidth = 1000;
width = 681;
}
);
note = cid00005;
unicode = 36;
}
{
glyphname = ampersand;
layers = (
{
hints = (
{
horizontal = 1;
place = (-53, 186);
place = (-53, 186);
type = Stem;
},
{
horizontal = 1;
place = (595, 194);
place = (595, 194);
type = Stem;
},
{
place = (50, 201);
place = (50, 201);
type = Stem;
},
{
place = (115, 199);
place = (115, 199);
type = Stem;
}
);
layerId = m01;
shapes = (
{
closed = 1;
nodes = (
(801,74,l),
(804,79,o),
(806,83,o),
(806,87,cs),
(806,92,o),
(803,97,o),
(798,101,cs),
(695,179,l),
(725,219,o),
(750,257,o),
(770,287,cs),
(773,291,o),
(774,295,o),
(774,298,cs),
(774,304,o),
(771,309,o),
(765,313,cs),
(635,403,ls),
(631,406,o),
(627,408,o),
(624,408,cs),
(618,408,o),
(613,404,o),
(609,397,cs),
(591,364,o),
(568,330,o),
(544,297,c),
(446,374,o),
(364,442,o),
(339,470,cs),
(321,491,o),
(314,512,o),
(314,531,cs),
(314,567,o),
(340,595,o),
(375,595,cs),
(400,595,o),
(429,580,o),
(454,542,cs),
(459,535,o),
(464,532,o),
(469,532,cs),
(473,532,o),
(477,534,o),
(481,537,cs),
(596,634,ls),
(601,639,o),
(604,644,o),
(604,649,cs),
(604,653,o),
(602,657,o),
(600,661,c),
(539,751,o),
(453,789,o),
(370,789,cs),
(239,789,o),
(115,694,o),
(115,561,cs),
(115,521,o),
(126,477,o),
(153,431,c),
(80,371,o),
(50,290,o),
(50,215,cs),
(50,52,o),
(190,-53,o),
(347,-53,cs),
(437,-53,o),
(510,-21,o),
(578,36,c),
(613,8,o),
(646,-21,o),
(677,-47,cs),
(681,-51,o),
(686,-53,o),
(690,-53,cs),
(695,-53,o),
(700,-50,o),
(704,-45,cs)
);
},
{
closed = 1;
nodes = (
(251,251,o),
(257,273,o),
(274,293,c),
(314,258,o),
(369,212,o),
(430,161,c),
(412,149,ls),
(393,138,o),
(373,133,o),
(353,133,cs),
(297,133,o),
(251,173,o),
(251,230,cs)
);
}
);
vertWidth = 1000;
width = 844;
}
);
note = cid00007;
unicode = 38;
}
{
glyphname = quotesingle;
kernLeft = quotedbl;
kernRight = quotedbl;
layers = (
{
hints = (
{
horizontal = 1;
place = (439, 333);
place = (439, 333);
type = Stem;
},
{
place = (69, 171);
place = (69, 171);
type = Stem;
}
);
layerId = m01;
shapes = (
{
closed = 1;
nodes = (
(222,439,ls),
(233,439,o),
(240,445,o),
(240,456,cs),
(258,754,l),
(260,765,o),
(253,772,o),
(242,772,cs),
(87,772,ls),
(75,772,o),
(69,765,o),
(69,754,cs),
(88,456,ls),
(89,445,o),
(95,439,o),
(105,439,cs)
);
}
);
vertWidth = 1000;
width = 328;
}
);
note = cid00008;
unicode = 39;
}
{
glyphname = parenleft;
kernRight = parenleft;
layers = (
{
hints = (
{
horizontal = 1;
place = (-208, 1042);
place = (-208, 1042);
type = Stem;
},
{
place = (47, 209);
place = (47, 209);
type = Stem;
}
);
layerId = m01;
shapes = (
{
closed = 1;
nodes = (
(425,-208,o),
(430,-202,o),
(430,-191,cs),
(430,-29,ls),
(430,-18,o),
(425,-11,o),
(415,-10,cs),
(298,1,o),
(256,100,o),
(256,313,cs),
(256,526,o),
(298,625,o),
(415,636,cs),
(425,637,o),
(430,643,o),
(430,654,cs),
(430,816,ls),
(430,827,o),
(425,834,o),
(414,834,cs),
(159,822,o),
(47,628,o),
(47,313,cs),
(47,-3,o),
(159,-196,o),
(415,-208,cs)
);
}
);
vertWidth = 1000;
width = 452;
}
);
note = cid00009;
unicode = 40;
}
{
glyphname = parenright;
kernLeft = parenright;
layers = (
{
hints = (
{
horizontal = 1;
place = (-208, 1042);
place = (-208, 1042);
type = Stem;
},
{
place = (196, 210);
place = (196, 210);
type = Stem;
}
);
layerId = m01;
shapes = (
{
closed = 1;
nodes = (
(294,-196,o),
(406,-2,o),
(406,313,cs),
(406,629,o),
(294,822,o),
(39,834,cs),
(29,834,o),
(22,827,o),
(22,816,cs),
(22,654,ls),
(22,643,o),
(28,637,o),
(39,636,cs),
(154,625,o),
(196,526,o),
(196,313,cs),
(196,100,o),
(154,1,o),
(39,-10,cs),
(28,-11,o),
(22,-18,o),
(22,-29,cs),
(22,-191,ls),
(22,-202,o),
(29,-208,o),
(40,-208,cs)
);
}
);
vertWidth = 1000;
width = 452;
}
);
note = cid00010;
unicode = 41;
}
{
glyphname = asterisk;
kernLeft = asterisk;
kernRight = asterisk;
layers = (
{
hints = (
{
horizontal = 1;
place = (329, 443);
place = (329, 443);
type = Stem;
},
{
place = (45, 475);
place = (45, 475);
type = Stem;
}
);
layerId = m01;
shapes = (
{
closed = 1;
nodes = (
(147,334,ls),
(151,331,o),
(155,329,o),
(159,329,cs),
(164,329,o),
(168,332,o),
(172,336,cs),
(283,452,l),
(394,336,l),
(397,332,o),
(402,329,o),
(407,329,cs),
(410,329,o),
(414,331,o),
(418,334,cs),
(467,368,ls),
(473,372,o),
(475,377,o),
(475,382,cs),
(475,386,o),
(474,389,o),
(472,393,cs),
(404,521,l),
(511,591,ls),
(517,595,o),
(520,600,o),
(520,606,cs),
(520,609,o),
(519,612,o),
(518,615,cs),
(492,670,ls),
(488,677,o),
(483,680,o),
(476,680,cs),
(474,680,o),
(472,680,o),
(469,679,cs),
(350,638,l),
(333,756,l),
(330,766,o),
(324,772,o),
(314,772,cs),
(253,772,ls),
(242,772,o),
(235,766,o),
(233,756,cs),
(215,638,l),
(96,679,ls),
(87,682,o),
(79,679,o),
(74,670,cs),
(48,615,l),
(46,612,o),
(45,609,o),
(45,605,cs),
(45,600,o),
(48,595,o),
(54,591,cs),
(163,521,l),
(93,393,l),
(92,390,o),
(91,387,o),
(91,384,cs),
(91,378,o),
(94,373,o),
(99,368,c)
);
}
);
vertWidth = 1000;
width = 566;
}
);
note = cid00011;
unicode = 42;
}
{
glyphname = plus;
layers = (
{
hints = (
{
horizontal = 1;
place = (232, 176);
place = (232, 176);
type = Stem;
},
{
place = (241, 184);
place = (241, 184);
type = Stem;
}
);
layerId = m01;
shapes = (
{
closed = 1;
nodes = (
(407,51,ls),
(417,51,o),
(425,59,o),
(425,69,cs),
(425,232,l),
(583,232,ls),
(593,232,o),
(601,240,o),
(601,249,cs),
(601,391,ls),
(601,400,o),
(593,408,o),
(583,408,cs),
(425,408,l),
(425,571,ls),
(425,580,o),
(417,588,o),
(407,588,cs),
(258,588,ls),
(248,588,o),
(241,580,o),
(241,571,cs),
(241,408,l),
(82,408,ls),
(72,408,o),
(64,400,o),
(64,391,cs),
(64,249,ls),
(64,240,o),
(72,232,o),
(82,232,cs),
(241,232,l),
(241,69,ls),
(241,59,o),
(248,51,o),
(258,51,cs)
);
}
);
vertWidth = 1000;
width = 665;
}
);
note = cid00012;
unicode = 43;
}
{
glyphname = comma;
kernLeft = comma;
kernRight = comma;
layers = (
{
hints = (
{
horizontal = 1;
place = (-234, 403);
place = (-234, 403);
type = Stem;
},
{
place = (48, 231);
place = (48, 231);
type = Stem;
}
);
layerId = m01;
shapes = (
{
closed = 1;
nodes = (
(157,-234,ls),
(167,-234,o),
(174,-229,o),
(177,-221,cs),
(220,-127,ls),
(263,-32,o),
(279,6,o),
(279,58,cs),
(279,123,o),
(230,169,o),
(164,169,cs),
(99,169,o),
(48,123,o),
(48,58,cs),
(48,11,o),
(73,-24,o),
(111,-42,c),
(53,-214,ls),
(49,-225,o),
(55,-234,o),
(68,-234,cs)
);
}
);
vertWidth = 1000;
width = 328;
}
);
note = cid00013;
unicode = 44;
}
{
glyphname = hyphen;
kernLeft = hyphen;
kernRight = hyphen;
layers = (
{
hints = (
{
horizontal = 1;
place = (231, 176);
place = (231, 176);
type = Stem;
},
{
place = (61, 387);
place = (61, 387);
type = Stem;
}
);
layerId = m01;
shapes = (
{
closed = 1;
nodes = (
(430,231,ls),
(441,231,o),
(448,237,o),
(448,249,cs),
(448,391,ls),
(448,400,o),
(441,407,o),
(430,407,cs),
(79,407,ls),
(68,407,o),
(61,400,o),
(61,391,cs),
(61,249,ls),
(61,237,o),
(68,231,o),
(79,231,cs)
);
}
);
vertWidth = 1000;
width = 509;
}
);
note = cid00014;
unicode = (45,8209);
}
{
glyphname = period;
kernLeft = comma;
kernRight = comma;
layers = (
{
hints = (
{
horizontal = 1;
place = (-53, 222);
place = (-53, 222);
type = Stem;
},
{
place = (48, 231);
place = (48, 231);
type = Stem;
}
);
layerId = m01;
shapes = (
{
closed = 1;
nodes = (
(230,-53,o),
(279,-8,o),
(279,58,cs),
(279,123,o),
(230,169,o),
(164,169,cs),
(99,169,o),
(48,123,o),
(48,58,cs),
(48,-8,o),
(99,-53,o),
(164,-53,cs)
);
}
);
vertWidth = 1000;
width = 328;
}
);
note = cid00015;
unicode = 46;
}
{
glyphname = slash;
kernLeft = slash;
kernRight = slash;
layers = (
{
hints = (
{
horizontal = 1;
place = (-164, 954);
place = (-164, 954);
type = Stem;
},
{
place = (21, 457);
place = (21, 457);
type = Stem;
}
);
layerId = m01;
shapes = (
{
closed = 1;
nodes = (
(197,-164,ls),
(207,-164,o),
(214,-160,o),
(216,-150,cs),
(477,770,ls),
(480,782,o),
(475,790,o),
(462,790,cs),
(302,790,ls),
(292,790,o),
(285,785,o),
(282,775,cs),
(21,-144,l),
(19,-156,o),
(23,-164,o),
(37,-164,cs)
);
}
);
vertWidth = 1000;
width = 498;
}
);
note = cid00016;
unicode = 47;
}
{
glyphname = zero;
kernLeft = zero;
kernRight = zero;
layers = (
{
hints = (
{
horizontal = 1;
place = (-58, 200);
place = (-58, 200);
type = Stem;
},
{
horizontal = 1;
place = (588, 200);
place = (588, 200);
type = Stem;
},
{
place = (49, 207);
place = (49, 207);
type = Stem;
},
{
place = (501, 207);
place = (501, 207);
type = Stem;
}
);
layerId = m01;
shapes = (
{
closed = 1;
nodes = (
(586,-58,o),
(708,100,o),
(708,365,cs),
(708,630,o),
(586,788,o),
(378,788,cs),
(172,788,o),
(49,630,o),
(49,365,cs),
(49,100,o),
(172,-58,o),
(378,-58,cs)
);
},
{
closed = 1;
nodes = (
(256,526,o),
(306,588,o),
(378,588,cs),
(451,588,o),
(501,526,o),
(501,365,cs),
(501,204,o),
(451,142,o),
(378,142,cs),
(306,142,o),
(256,204,o),
(256,365,cs)
);
}
);
vertWidth = 1000;
width = 757;
}
);
note = cid00017;
unicode = 48;
}
{
glyphname = one;
kernLeft = one;
layers = (
{
hints = (
{
horizontal = 1;
place = (-42, 814);
place = (-42, 814);
type = Stem;
},
{
place = (211, 207);
place = (211, 207);
type = Stem;
}
);
layerId = m01;
shapes = (
{
closed = 1;
nodes = (
(400,-42,ls),
(411,-42,o),
(418,-35,o),
(418,-24,cs),
(418,754,ls),
(418,765,o),
(411,772,o),
(400,772,cs),
(277,772,ls),
(269,772,o),
(263,770,o),
(256,764,cs),
(27,566,ls),
(22,562,o),
(20,557,o),
(20,552,cs),
(20,549,o),
(21,545,o),
(22,542,cs),
(50,486,l),
(53,478,o),
(59,475,o),
(65,475,cs),
(68,475,o),
(70,475,o),
(72,476,cs),
(211,521,l),
(211,-24,ls),
(211,-35,o),
(217,-42,o),
(228,-42,cs)
);
}
);
vertWidth = 1000;
width = 508;
}
);
note = cid00018;
unicode = 49;
}
{
glyphname = two;
kernLeft = two;
kernRight = two;
layers = (
{
hints = (
{
horizontal = 1;
place = (-42, 194);
place = (-42, 194);
type = Stem;
},
{
horizontal = 1;
place = (593, 195);
place = (593, 195);
type = Stem;
},
{
place = (415, 209);
place = (415, 209);
type = Stem;
}
);
layerId = m01;
shapes = (
{
closed = 1;
nodes = (
(628,-42,ls),
(639,-42,o),
(645,-35,o),
(645,-24,cs),
(645,135,ls),
(645,145,o),
(639,152,o),
(628,152,cs),
(378,152,l),
(408,180,ls),
(577,337,o),
(624,425,o),
(624,540,cs),
(624,688,o),
(510,788,o),
(343,788,cs),
(193,788,o),
(81,699,o),
(40,556,cs),
(37,545,o),
(41,537,o),
(52,535,c),
(201,494,ls),
(211,491,o),
(218,495,o),
(222,506,cs),
(244,565,o),
(281,593,o),
(329,593,cs),
(381,593,o),
(415,565,o),
(415,517,cs),
(415,458,o),
(383,403,o),
(273,280,cs),
(65,48,ls),
(60,42,o),
(57,36,o),
(57,27,cs),
(57,-24,ls),
(57,-35,o),
(63,-42,o),
(74,-42,cs)
);
}
);
vertWidth = 1000;
width = 693;
}
);
note = cid00019;
unicode = 50;
}
{
glyphname = three;
kernLeft = three;
kernRight = three;
layers = (
{
hints = (
{
horizontal = 1;
place = (-58, 190);
place = (-58, 190);
type = Stem;
},
{
horizontal = 1;
place = (297, 157);
place = (297, 157);
type = Stem;
},
{
horizontal = 1;
place = (602, 186);
place = (602, 186);
type = Stem;
},
{
place = (442, 211);
place = (442, 211);
type = Stem;
},
{
place = (426, 207);
place = (426, 207);
type = Stem;
}
);
layerId = m01;
shapes = (
{
closed = 1;
nodes = (
(529,-58,o),
(653,40,o),
(653,188,cs),
(653,283,o),
(600,352,o),
(507,383,c),
(589,424,o),
(633,488,o),
(633,562,cs),
(633,692,o),
(513,788,o),
(345,788,cs),
(199,788,o),
(84,707,o),
(44,565,c),
(42,554,o),
(48,546,o),
(59,544,cs),
(207,508,ls),
(218,505,o),
(225,510,o),
(230,520,c),
(251,575,o),
(285,602,o),
(335,602,cs),
(389,602,o),
(426,571,o),
(426,526,cs),
(426,484,o),
(388,454,o),
(335,454,cs),
(295,454,ls),
(284,454,o),
(277,447,o),
(277,437,cs),
(277,315,ls),
(277,304,o),
(284,297,o),
(295,297,cs),
(333,297,ls),
(400,297,o),
(442,269,o),
(442,216,cs),
(442,165,o),
(405,132,o),
(338,132,cs),
(279,132,o),
(242,160,o),
(221,213,cs),
(217,221,o),
(212,226,o),
(205,226,cs),
(203,226,o),
(201,226,o),
(199,225,c),
(52,188,ls),
(43,185,o),
(39,180,o),
(39,172,cs),
(39,166,l),
(78,26,o),
(193,-58,o),
(342,-58,cs)
);
}
);
vertWidth = 1000;
width = 703;
}
);
note = cid00020;
unicode = 51;
}
{
glyphname = four;
kernLeft = four;
kernRight = four;
layers = (
{
hints = (
{
horizontal = 1;
place = (97, 167);
place = (97, 167);
type = Stem;
},
{
place = (410, 196);
place = (410, 196);
type = Stem;
}
);
layerId = m01;
shapes = (
{
closed = 1;
nodes = (
(588,-42,ls),
(599,-42,o),
(606,-35,o),
(606,-24,cs),
(606,97,l),
(700,97,ls),
(711,97,o),
(718,103,o),
(718,114,cs),
(718,246,ls),
(718,257,o),
(711,264,o),
(700,264,cs),
(606,264,l),
(606,754,ls),
(606,765,o),
(599,772,o),
(588,772,cs),
(467,772,ls),
(458,772,o),
(450,769,o),
(446,761,c),
(27,188,ls),
(22,181,o),
(20,174,o),
(20,166,cs),
(20,114,ls),
(20,103,o),
(27,97,o),
(38,97,cs),
(410,97,l),
(410,-24,ls),
(410,-35,o),
(417,-42,o),
(428,-42,cs)
);
},
{
closed = 1;
nodes = (
(410,264,l),
(255,264,l),
(410,480,l)
);
}
);
vertWidth = 1000;
width = 742;
}
);
note = cid00021;
unicode = 52;
}
{
glyphname = five;
kernLeft = five;
kernRight = five;
layers = (
{
hints = (
{
horizontal = 1;
place = (-58, 190);
place = (-58, 190);
type = Stem;
},
{
horizontal = 1;
place = (326, 162);
place = (326, 162);
type = Stem;
},
{
horizontal = 1;
place = (582, 190);
place = (582, 190);
type = Stem;
},
{
place = (454, 210);
place = (454, 210);
type = Stem;
}
);
layerId = m01;
shapes = (
{
closed = 1;
nodes = (
(538,-58,o),
(664,59,o),
(664,226,cs),
(664,383,o),
(559,488,o),
(410,488,cs),
(348,488,o),
(301,469,o),
(257,438,c),
(273,582,l),
(601,582,ls),
(611,582,o),
(618,589,o),
(618,600,cs),
(618,754,ls),
(618,765,o),
(611,772,o),
(601,772,cs),
(134,772,ls),
(124,772,o),
(118,768,o),
(116,755,cs),
(81,342,ls),
(80,332,o),
(84,325,o),
(92,321,cs),
(180,276,ls),
(184,274,o),
(188,273,o),
(192,273,cs),
(196,273,o),
(200,274,o),
(204,276,cs),
(263,313,o),
(298,326,o),
(343,326,cs),
(411,326,o),
(454,287,o),
(454,227,cs),
(454,169,o),
(413,132,o),
(346,132,cs),
(289,132,o),
(247,159,o),
(225,209,c),
(221,216,o),
(216,220,o),
(209,220,cs),
(207,220,o),
(205,220,o),
(203,219,c),
(60,182,ls),
(52,180,o),
(46,176,o),
(46,168,cs),
(46,166,o),
(47,163,o),
(48,160,cs),
(94,22,o),
(207,-58,o),
(358,-58,cs)
);
}
);
vertWidth = 1000;
width = 706;
}
);
note = cid00022;
unicode = 53;
}
{
glyphname = six;
kernLeft = six;
kernRight = six;
layers = (
{
hints = (
{
horizontal = 1;
place = (-58, 186);
place = (-58, 186);
type = Stem;
},
{
horizontal = 1;
place = (352, 152);
place = (352, 152);
type = Stem;
},
{
place = (38, 202);
place = (38, 202);
type = Stem;
},
{
place = (461, 203);
place = (461, 203);
type = Stem;
}
);
layerId = m01;
shapes = (
{
closed = 1;
nodes = (
(539,-58,o),
(664,59,o),
(664,229,cs),
(664,389,o),
(556,504,o),
(404,504,cs),
(385,504,o),
(366,501,o),
(347,498,c),
(521,751,ls),
(524,755,o),
(525,758,o),
(525,761,cs),
(525,768,o),
(520,772,o),
(510,772,cs),
(319,772,ls),
(311,772,o),
(304,769,o),
(298,761,cs),
(189,596,ls),
(78,426,o),
(38,335,o),
(38,236,cs),
(38,69,o),
(165,-58,o),
(352,-58,cs)
);
},
{
closed = 1;
nodes = (
(240,306,o),
(286,352,o),
(350,352,cs),
(416,352,o),
(461,306,o),
(461,240,cs),
(461,173,o),
(416,128,o),
(350,128,cs),
(286,128,o),
(240,173,o),
(240,240,cs)
);
}
);
vertWidth = 1000;
width = 699;
}
);
note = cid00023;
unicode = 54;
}
{
glyphname = seven;
kernLeft = seven;
kernRight = seven;
layers = (
{
hints = (
{
horizontal = 1;
place = (577, 195);
place = (577, 195);
type = Stem;
},
{
place = (21, 599);
place = (21, 599);
type = Stem;
}
);
layerId = m01;
shapes = (
{
closed = 1;
nodes = (
(316,-42,ls),
(325,-42,o),
(333,-36,o),
(336,-28,cs),
(617,680,l),
(619,687,o),
(620,693,o),
(620,701,cs),
(620,754,ls),
(620,765,o),
(613,772,o),
(602,772,cs),
(39,772,ls),
(28,772,o),
(21,765,o),
(21,754,cs),
(21,593,ls),
(21,583,o),
(28,577,o),
(39,577,cs),
(359,577,l),
(114,-22,ls),
(110,-33,o),
(115,-42,o),
(128,-42,cs)
);
}
);
vertWidth = 1000;
width = 645;
}
);
note = cid00024;
unicode = 55;
}
{
glyphname = eight;
kernLeft = eight;
kernRight = three;
layers = (
{
hints = (
{
horizontal = 1;
place = (-58, 169);
place = (-58, 169);
type = Stem;
},
{
horizontal = 1;
place = (311, 138);
place = (311, 138);
type = Stem;
},
{
horizontal = 1;
place = (621, 167);
place = (621, 167);
type = Stem;
},
{
place = (43, 195);
place = (43, 195);
type = Stem;
},
{
place = (480, 195);
place = (480, 195);
type = Stem;
},
{
place = (63, 194);
place = (63, 194);
type = Stem;
},
{
place = (461, 196);
place = (461, 196);
type = Stem;
}
);
layerId = m01;
shapes = (
{
closed = 1;
nodes = (
(550,-58,o),
(675,39,o),
(675,185,cs),
(675,272,o),
(623,347,o),
(539,386,c),
(612,422,o),
(657,480,o),
(657,559,cs),
(657,692,o),
(538,788,o),
(359,788,cs),
(182,788,o),
(63,692,o),
(63,559,cs),
(63,480,o),
(106,422,o),
(181,386,c),
(95,347,o),
(43,272,o),
(43,185,cs),
(43,39,o),
(170,-58,o),
(359,-58,cs)
);
},
{
closed = 1;
nodes = (
(238,270,o),
(287,311,o),
(359,311,cs),
(431,311,o),
(480,270,o),
(480,212,cs),
(480,153,o),
(431,111,o),
(359,111,cs),
(287,111,o),
(238,153,o),
(238,212,cs)
);
},
{
closed = 1;
nodes = (
(257,585,o),
(298,621,o),
(359,621,cs),
(420,621,o),
(461,585,o),
(461,536,cs),
(461,485,o),
(420,449,o),
(359,449,cs),
(298,449,o),
(257,485,o),
(257,536,cs)
);
}
);
vertWidth = 1000;
width = 720;
}
);
note = cid00025;
unicode = 56;
}
{
glyphname = nine;
kernLeft = nine;
kernRight = nine;
layers = (
{
hints = (
{
horizontal = 1;
place = (226, 152);
place = (226, 152);
type = Stem;
},
{
horizontal = 1;
place = (602, 186);
place = (602, 186);
type = Stem;
},
{
place = (33, 203);
place = (33, 203);
type = Stem;
},
{
place = (458, 202);
place = (458, 202);
type = Stem;
}
);
layerId = m01;
shapes = (
{
closed = 1;
nodes = (
(367,-42,ls),
(376,-42,o),
(384,-38,o),
(388,-31,c),
(505,134,ls),
(621,301,o),
(660,395,o),
(660,494,cs),
(660,661,o),
(532,788,o),
(346,788,cs),
(160,788,o),
(33,671,o),
(33,501,cs),
(33,341,o),
(142,226,o),
(289,226,cs),
(309,226,o),
(328,229,o),
(346,233,c),
(165,-21,ls),
(163,-24,o),
(161,-28,o),
(161,-31,cs),
(161,-37,o),
(167,-42,o),
(177,-42,cs)
);
},
{
closed = 1;
nodes = (
(236,557,o),
(283,602,o),
(347,602,cs),
(411,602,o),
(458,557,o),
(458,490,cs),
(458,424,o),
(409,378,o),
(347,378,cs),
(283,378,o),
(236,424,o),
(236,490,cs)
);
}
);
vertWidth = 1000;
width = 698;
}
);
note = cid00026;
unicode = 57;
}
{
glyphname = colon;
kernLeft = colon;
layers = (
{
hints = (
{
horizontal = 1;
place = (-53, 222);
place = (-53, 222);
type = Stem;
},
{
horizontal = 1;
place = (328, 222);
place = (328, 222);
type = Stem;
},
{
place = (48, 231);
place = (48, 231);
type = Stem;
}
);
layerId = m01;
shapes = (
{
closed = 1;
nodes = (
(230,328,o),
(279,374,o),
(279,439,cs),
(279,505,o),
(230,550,o),
(164,550,cs),
(99,550,o),
(48,505,o),
(48,439,cs),
(48,374,o),
(99,328,o),
(164,328,cs)
);
},
{
closed = 1;
nodes = (
(48,-8,o),
(99,-53,o),
(164,-53,cs),
(230,-53,o),
(279,-8,o),
(279,58,cs),
(279,123,o),
(230,169,o),
(164,169,cs),
(99,169,o),
(48,123,o),
(48,58,cs)
);
}
);
vertWidth = 1000;
width = 328;
}
);
note = cid00027;
unicode = 58;
}
{
glyphname = semicolon;
kernLeft = colon;
layers = (
{
hints = (
{
horizontal = 1;
place = (328, 222);
place = (328, 222);
type = Stem;
},
{
place = (48, 231);
place = (48, 231);
type = Stem;
}
);
layerId = m01;
shapes = (
{
closed = 1;
nodes = (
(230,328,o),
(279,374,o),
(279,439,cs),
(279,505,o),
(230,550,o),
(164,550,cs),
(99,550,o),
(48,505,o),
(48,439,cs),
(48,374,o),
(99,328,o),
(164,328,cs)
);
},
{
closed = 1;
nodes = (
(48,11,o),
(73,-24,o),
(111,-42,c),
(53,-214,ls),
(49,-225,o),
(55,-234,o),
(68,-234,cs),
(157,-234,ls),
(167,-234,o),
(174,-229,o),
(177,-221,cs),
(220,-127,ls),
(263,-32,o),
(279,6,o),
(279,58,cs),
(279,123,o),
(230,169,o),
(164,169,cs),
(99,169,o),
(48,123,o),
(48,58,cs)
);
}
);
vertWidth = 1000;
width = 328;
}
);
note = cid00028;
unicode = 59;
}
{
glyphname = less;
layers = (
{
hints = (
{
horizontal = 1;
place = (16, 587);
place = (16, 587);
type = Stem;
},
{
place = (68, 488);
place = (68, 488);
type = Stem;
}
);
layerId = m01;
shapes = (
{
closed = 1;
nodes = (
(556,193,ls),
(556,203,o),
(550,211,o),
(542,214,cs),
(326,312,l),
(542,408,l),
(550,413,o),
(556,420,o),
(556,429,cs),
(556,588,ls),
(556,598,o),
(552,603,o),
(545,603,cs),
(542,603,o),
(539,603,o),
(536,601,cs),
(80,374,l),
(72,371,o),
(68,363,o),
(68,353,cs),
(68,266,ls),
(68,256,o),
(72,249,o),
(80,245,cs),
(536,18,ls),
(539,16,o),
(542,16,o),
(545,16,cs),
(551,16,o),
(556,21,o),
(556,31,cs)
);
}
);
vertWidth = 1000;
width = 665;
}
);
note = cid00029;
unicode = 60;
}
{
glyphname = equal;
layers = (
{
hints = (
{
horizontal = 1;
place = (83, 177);
place = (83, 177);
type = Stem;
},
{
horizontal = 1;
place = (368, 177);
place = (368, 177);
type = Stem;
},
{
place = (64, 537);
place = (64, 537);
type = Stem;
}
);
layerId = m01;
shapes = (
{
closed = 1;
nodes = (
(583,368,ls),
(593,368,o),
(601,376,o),
(601,386,cs),
(601,528,ls),
(601,537,o),
(593,545,o),
(583,545,cs),
(82,545,ls),
(72,545,o),
(64,537,o),
(64,528,cs),
(64,386,ls),
(64,376,o),
(72,368,o),
(82,368,cs)
);
},
{
closed = 1;
nodes = (
(64,101,ls),
(64,91,o),
(72,83,o),
(82,83,cs),
(583,83,ls),
(593,83,o),
(601,91,o),
(601,101,cs),
(601,243,ls),
(601,252,o),
(593,260,o),
(583,260,cs),
(82,260,ls),
(72,260,o),
(64,252,o),
(64,243,cs)
);
}
);
vertWidth = 1000;
width = 665;
}
);
note = cid00030;
unicode = 61;
}
{
glyphname = greater;
layers = (
{
hints = (
{
horizontal = 1;
place = (16, 587);
place = (16, 587);
type = Stem;
},
{
place = (110, 488);
place = (110, 488);
type = Stem;
}
);
layerId = m01;
shapes = (
{
closed = 1;
nodes = (
(586,245,ls),
(593,249,o),
(598,256,o),
(598,266,cs),
(598,353,ls),
(598,363,o),
(593,371,o),
(586,374,cs),
(130,601,ls),
(127,603,o),
(124,603,o),
(121,603,cs),
(115,603,o),
(110,598,o),
(110,588,cs),
(110,426,ls),
(110,416,o),
(115,408,o),
(123,405,cs),
(340,307,l),
(123,210,ls),
(115,206,o),
(110,199,o),
(110,190,cs),
(110,31,ls),
(110,21,o),
(115,16,o),
(121,16,cs),
(124,16,o),
(127,16,o),
(130,18,cs)
);
}
);
vertWidth = 1000;
width = 665;
}
);
note = cid00031;
unicode = 62;
}
{
glyphname = question;
kernLeft = question;
layers = (
{
hints = (
{
horizontal = 1;
place = (-53, 215);
place = (-53, 215);
type = Stem;
},
{
horizontal = 1;
place = (222, 195);
place = (222, 195);
type = Stem;
},
{
horizontal = 1;
place = (603, 185);
place = (603, 185);
type = Stem;
},
{
place = (199, 192);
place = (199, 192);
type = Stem;
},
{
place = (389, 205);
place = (389, 205);
type = Stem;
},
{
place = (181, 226);
place = (181, 226);
type = Stem;
}
);
layerId = m01;
shapes = (
{
closed = 1;
nodes = (
(374,222,ls),
(384,222,o),
(391,229,o),
(391,240,cs),
(393,296,l),
(521,326,o),
(594,426,o),
(594,544,cs),
(594,691,o),
(478,788,o),
(313,788,cs),
(176,788,o),
(64,717,o),
(18,590,cs),
(14,579,o),
(20,571,o),
(30,568,cs),
(184,531,ls),
(194,529,o),
(201,534,o),
(207,542,c),
(227,582,o),
(258,603,o),
(303,603,cs),
(356,603,o),
(389,571,o),
(389,521,cs),
(389,459,o),
(352,417,o),
(245,417,cs),
(212,417,ls),
(202,417,o),
(195,410,o),
(195,399,cs),
(199,240,ls),
(199,229,o),
(205,222,o),
(216,222,cs)
);
},
{
closed = 1;
nodes = (
(181,-10,o),
(231,-53,o),
(294,-53,cs),
(357,-53,o),
(407,-10,o),
(407,54,cs),
(407,119,o),
(357,162,o),
(294,162,cs),
(231,162,o),
(181,119,o),
(181,54,cs)
);
}
);
vertWidth = 1000;
width = 637;
}
);
note = cid00032;
unicode = 63;
}
{
glyphname = at;
kernLeft = at;
kernRight = at;
layers = (
{
hints = (
{
horizontal = 1;
place = (-315, 140);
place = (-315, 140);
type = Stem;
},
{
horizontal = 1;
place = (-53, 145);
place = (-53, 145);
type = Stem;
},
{
horizontal = 1;
place = (337, 157);
place = (337, 157);
type = Stem;
},
{
horizontal = 1;
place = (622, 140);
place = (622, 140);
type = Stem;
},
{
place = (55, 153);
place = (55, 153);
type = Stem;
},
{
place = (313, 178);
place = (313, 178);
type = Stem;
},
{
place = (709, 164);
place = (709, 164);
type = Stem;
},
{
place = (1006, 153);
place = (1006, 153);
type = Stem;
},
{
horizontal = 1;
place = (337, 147);
place = (337, 147);
type = Stem;
},
{
place = (720, 153);
place = (720, 153);
type = Stem;
},
{
horizontal = 1;
place = (-53, 156);
place = (-53, 156);
type = Stem;
}
);
layerId = m01;
shapes = (
{
closed = 1;
nodes = (
(672,-315,o),
(728,-308,o),
(779,-296,c),
(787,-295,o),
(791,-287,o),
(791,-278,cs),
(791,-178,ls),
(791,-168,o),
(786,-163,o),
(777,-163,cs),
(772,-163,l),
(729,-171,o),
(684,-175,o),
(630,-175,cs),
(383,-175,o),
(208,-54,o),
(208,211,cs),
(208,488,o),
(387,622,o),
(618,622,cs),
(862,622,o),
(1006,490,o),
(1006,267,cs),
(1006,158,o),
(977,92,o),
(934,92,cs),
(893,92,o),
(873,120,o),
(873,176,cs),
(873,466,ls),
(873,477,o),
(866,484,o),
(855,484,cs),
(737,484,ls),
(728,484,o),
(720,477,o),
(720,466,cs),
(719,422,l),
(681,468,o),
(625,494,o),
(561,494,cs),
(413,494,o),
(313,383,o),
(313,221,cs),
(313,58,o),
(413,-53,o),
(561,-53,cs),
(641,-53,o),
(705,-14,o),
(742,54,c),
(763,-13,o),
(827,-53,o),
(904,-53,cs),
(1057,-53,o),
(1159,70,o),
(1159,267,cs),
(1159,555,o),
(947,762,o),
(618,762,cs),
(294,762,o),
(55,540,o),
(55,211,cs),
(55,-90,o),
(266,-315,o),
(599,-315,cs)
);
},
{
closed = 1;
nodes = (
(491,290,o),
(537,337,o),
(600,337,cs),
(663,337,o),
(709,290,o),
(709,221,cs),
(709,151,o),
(663,103,o),
(600,103,cs),
(537,103,o),
(491,151,o),
(491,221,cs)
);
}
);
vertWidth = 1000;
width = 1215;
}
);
note = cid00033;
unicode = 64;
}
{
glyphname = D;
kernRight = D;
layers = (
{
hints = (
{
horizontal = 1;
place = (-42, 191);
place = (-42, 191);
type = Stem;
},
{
horizontal = 1;
place = (581, 191);
place = (581, 191);
type = Stem;
},
{
place = (79, 204);
place = (79, 204);
type = Stem;
},
{
place = (599, 211);
place = (599, 211);
type = Stem;
}
);
layerId = m01;
shapes = (
{
closed = 1;
nodes = (
(397,-42,ls),
(660,-42,o),
(810,103,o),
(810,365,cs),
(810,629,o),
(660,772,o),
(397,772,cs),
(96,772,ls),
(85,772,o),
(79,765,o),
(79,754,cs),
(79,-24,ls),
(79,-35,o),
(85,-42,o),
(96,-42,cs)
);
},
{
closed = 1;
nodes = (
(283,149,l),
(283,581,l),
(377,581,ls),
(521,581,o),
(599,510,o),
(599,365,cs),
(599,220,o),
(521,149,o),
(377,149,cs)
);
}
);
vertWidth = 1000;
width = 866;
}
);
note = cid00037;
unicode = 68;
}
{
glyphname = F;
kernRight = F;
layers = (
{
hints = (
{
horizontal = 1;
place = (247, 185);
place = (247, 185);
type = Stem;
},
{
horizontal = 1;
place = (588, 184);
place = (588, 184);
type = Stem;
},
{
place = (79, 207);
place = (79, 207);
type = Stem;
}
);
layerId = m01;
shapes = (
{
closed = 1;
nodes = (
(268,-42,ls),
(279,-42,o),
(286,-35,o),
(286,-24,cs),
(286,247,l),
(561,247,ls),
(572,247,o),
(579,254,o),
(579,264,cs),
(579,414,ls),
(579,425,o),
(572,432,o),
(561,432,cs),
(286,432,l),
(286,588,l),
(614,588,ls),
(625,588,o),
(632,595,o),
(632,605,cs),
(632,754,ls),
(632,765,o),
(625,772,o),
(614,772,cs),
(96,772,ls),
(85,772,o),
(79,765,o),
(79,754,cs),
(79,-24,ls),
(79,-35,o),
(85,-42,o),
(96,-42,cs)
);
}
);
vertWidth = 1000;
width = 667;
}
);
note = cid00039;
unicode = 70;
}
{
glyphname = I;
layers = (
{
hints = (
{
horizontal = 1;
place = (-42, 814);
place = (-42, 814);
type = Stem;
},
{
place = (79, 207);
place = (79, 207);
type = Stem;
}
);
layerId = m01;
shapes = (
{
closed = 1;
nodes = (
(268,-42,ls),
(279,-42,o),
(286,-35,o),
(286,-24,cs),
(286,754,ls),
(286,765,o),
(279,772,o),
(268,772,cs),
(96,772,ls),
(85,772,o),
(79,765,o),
(79,754,cs),
(79,-24,ls),
(79,-35,o),
(85,-42,o),
(96,-42,cs)
);
}
);
vertWidth = 1000;
width = 365;
}
);
note = cid00042;
unicode = 73;
}
{
glyphname = J;
kernLeft = J;
kernRight = J;
layers = (
{
hints = (
{
horizontal = 1;
place = (-58, 201);
place = (-58, 201);
type = Stem;
},
{
horizontal = 1;
place = (578, 194);
place = (578, 194);
type = Stem;
},
{
place = (364, 207);
place = (364, 207);
type = Stem;
}
);
layerId = m01;
shapes = (
{
closed = 1;
nodes = (
(457,-58,o),
(571,31,o),
(571,255,cs),
(571,754,ls),
(571,765,o),
(564,772,o),
(553,772,cs),
(160,772,ls),
(149,772,o),
(142,765,o),
(142,754,cs),
(142,595,ls),
(142,585,o),
(149,578,o),
(160,578,cs),
(364,578,l),
(364,270,ls),
(364,195,o),
(343,143,o),
(275,143,cs),
(233,143,o),
(208,168,o),
(195,204,cs),
(193,212,o),
(187,217,o),
(180,217,cs),
(178,217,o),
(175,217,o),
(173,216,c),
(21,175,ls),
(12,173,o),
(8,168,o),
(8,160,cs),
(8,158,o),
(8,156,o),
(9,153,cs),
(41,26,o),
(133,-58,o),
(279,-58,cs)
);
}
);
vertWidth = 1000;
width = 644;
}
);
note = cid00043;
unicode = 74;
}
{
glyphname = L;
kernRight = L;
layers = (
{
hints = (
{
horizontal = 1;
place = (-42, 196);
place = (-42, 196);
type = Stem;
},
{
place = (79, 207);
place = (79, 207);
type = Stem;
}
);
layerId = m01;
shapes = (
{
closed = 1;
nodes = (
(643,-42,ls),
(653,-42,o),
(660,-35,o),
(660,-24,cs),
(660,138,ls),
(660,148,o),
(653,154,o),
(643,154,cs),
(286,154,l),
(286,754,ls),
(286,765,o),
(279,772,o),
(268,772,cs),
(96,772,ls),
(85,772,o),
(79,765,o),
(79,754,cs),
(79,-24,ls),
(79,-35,o),
(85,-42,o),
(96,-42,cs)
);
}
);
vertWidth = 1000;
width = 691;
}
);
note = cid00045;
unicode = 76;
}
{
glyphname = N;
layers = (
{
hints = (
{
horizontal = 1;
place = (-42, 814);
place = (-42, 814);
type = Stem;
},
{
place = (79, 198);
place = (79, 198);
type = Stem;
},
{
place = (588, 198);
place = (588, 198);
type = Stem;
}
);
layerId = m01;
shapes = (
{
closed = 1;
nodes = (
(260,-42,ls),
(271,-42,o),
(277,-35,o),
(277,-24,cs),
(277,456,l),
(569,-30,ls),
(573,-38,o),
(580,-42,o),
(590,-42,cs),
(769,-42,ls),
(780,-42,o),
(786,-35,o),
(786,-24,cs),
(786,754,ls),
(786,765,o),
(780,772,o),
(769,772,cs),
(606,772,ls),
(594,772,o),
(588,765,o),
(588,754,cs),
(588,276,l),
(297,760,ls),
(292,768,o),
(286,772,o),
(276,772,cs),
(96,772,ls),
(85,772,o),
(79,765,o),
(79,754,cs),
(79,-24,ls),
(79,-35,o),
(85,-42,o),
(96,-42,cs)
);
}
);
vertWidth = 1000;
width = 865;
}
);
note = cid00047;
unicode = 78;
}
{
glyphname = O;
kernLeft = C;
kernRight = D;
layers = (
{
hints = (
{
horizontal = 1;
place = (-58, 201);
place = (-58, 201);
type = Stem;
},
{
horizontal = 1;
place = (587, 201);
place = (587, 201);
type = Stem;
},
{
place = (55, 214);
place = (55, 214);
type = Stem;
},
{
place = (682, 214);
place = (682, 214);
type = Stem;
}
);
layerId = m01;
shapes = (
{
closed = 1;
nodes = (
(718,-58,o),
(896,113,o),
(896,365,cs),
(896,617,o),
(718,788,o),
(476,788,cs),
(234,788,o),
(55,617,o),
(55,365,cs),
(55,113,o),
(234,-58,o),
(476,-58,cs)
);
},
{
closed = 1;
nodes = (
(269,496,o),
(353,587,o),
(476,587,cs),
(599,587,o),
(682,496,o),
(682,365,cs),
(682,234,o),
(599,143,o),
(476,143,cs),
(353,143,o),
(269,234,o),
(269,365,cs)
);
}
);
vertWidth = 1000;
width = 953;
}
);
note = cid00048;
unicode = 79;
}
{
glyphname = P;
kernRight = P;
layers = (
{
hints = (
{
horizontal = 1;
place = (175, 173);
place = (175, 173);
type = Stem;
},
{
horizontal = 1;
place = (599, 173);
place = (599, 173);
type = Stem;
},
{
place = (79, 204);
place = (79, 204);
type = Stem;
},
{
place = (499, 211);
place = (499, 211);
type = Stem;
}
);
layerId = m01;
shapes = (
{
closed = 1;
nodes = (
(265,-42,ls),
(276,-42,o),
(283,-35,o),
(283,-24,cs),
(283,175,l),
(368,175,ls),
(593,175,o),
(710,279,o),
(710,474,cs),
(710,670,o),
(593,772,o),
(368,772,cs),
(96,772,ls),
(85,772,o),
(79,765,o),
(79,754,cs),
(79,-24,ls),
(79,-35,o),
(85,-42,o),
(96,-42,cs)
);
},
{
closed = 1;
nodes = (
(283,348,l),
(283,599,l),
(363,599,ls),
(447,599,o),
(499,565,o),
(499,476,cs),
(499,383,o),
(447,348,o),
(363,348,cs)
);
}
);
vertWidth = 1000;
width = 754;
}
);
note = cid00049;
unicode = 80;
}
{
glyphname = Q;
kernLeft = C;
kernRight = Q;
layers = (
{
hints = (
{
horizontal = 1;
place = (-42, 187);
place = (-42, 187);
type = Stem;
},
{
horizontal = 1;
place = (587, 201);
place = (587, 201);
type = Stem;
},
{
place = (55, 214);
place = (55, 214);
type = Stem;
},
{
place = (662, 213);
place = (662, 213);
type = Stem;
},
{
horizontal = 1;
place = (-42, 193);
place = (-42, 193);
type = Stem;
}
);
layerId = m01;
shapes = (
{
closed = 1;
nodes = (
(892,-42,ls),
(902,-42,o),
(909,-35,o),
(909,-24,cs),
(909,129,ls),
(909,139,o),
(902,145,o),
(892,145,cs),
(759,145,l),
(833,201,o),
(875,297,o),
(875,406,cs),
(875,618,o),
(720,788,o),
(474,788,cs),
(222,788,o),
(55,613,o),
(55,366,cs),
(55,120,o),
(215,-42,o),
(491,-42,cs)
);
},
{
closed = 1;
nodes = (
(269,495,o),
(346,587,o),
(466,587,cs),
(587,587,o),
(662,495,o),
(662,369,cs),
(662,242,o),
(587,151,o),
(466,151,cs),
(346,151,o),
(269,242,o),
(269,368,cs)
);
}
);
vertWidth = 1000;
width = 965;
}
);
note = cid00050;
unicode = 81;
}
{
glyphname = R;
kernRight = R;
layers = (
{
hints = (
{
horizontal = 1;
place = (186, 173);
place = (186, 173);
type = Stem;
},
{
horizontal = 1;
place = (599, 173);
place = (599, 173);
type = Stem;
},
{
place = (79, 204);
place = (79, 204);
type = Stem;
},
{
place = (499, 211);
place = (499, 211);
type = Stem;
}
);
layerId = m01;
shapes = (
{
closed = 1;
nodes = (
(265,-42,ls),
(276,-42,o),
(283,-35,o),
(283,-24,cs),
(283,186,l),
(368,186,ls),
(381,186,o),
(395,186,o),
(407,188,c),
(510,-29,l),
(513,-38,o),
(520,-42,o),
(530,-42,cs),
(720,-42,ls),
(729,-42,o),
(736,-37,o),
(736,-30,cs),
(736,-27,o),
(735,-24,o),
(733,-21,cs),
(598,241,l),
(674,291,o),
(710,373,o),
(710,479,cs),
(710,671,o),
(604,772,o),
(368,772,cs),
(96,772,ls),
(85,772,o),
(79,765,o),
(79,754,cs),
(79,-24,ls),
(79,-35,o),
(85,-42,o),
(96,-42,cs)
);
},
{
closed = 1;
nodes = (
(283,359,l),
(283,599,l),
(365,599,ls),
(450,599,o),
(499,565,o),
(499,479,cs),
(499,393,o),
(450,359,o),
(365,359,cs)
);
}
);
vertWidth = 1000;
width = 767;
}
);
note = cid00051;
unicode = 82;
}
{
glyphname = S;
kernLeft = S;
kernRight = S;
layers = (
{
hints = (
{
horizontal = 1;
place = (-58, 182);
place = (-58, 182);
type = Stem;
},
{
horizontal = 1;
place = (606, 182);
place = (606, 182);
type = Stem;
},
{
place = (44, 211);
place = (44, 211);
type = Stem;
},
{
place = (435, 209);
place = (435, 209);
type = Stem;
}
);
layerId = m01;
shapes = (
{
closed = 1;
nodes = (
(519,-58,o),
(644,46,o),
(644,190,cs),
(644,324,o),
(573,397,o),
(429,446,cs),
(368,466,ls),
(285,494,o),
(255,517,o),
(255,551,cs),
(255,586,o),
(288,606,o),
(333,606,cs),
(374,606,o),
(407,590,o),
(431,532,cs),
(435,524,o),
(439,520,o),
(447,520,cs),
(449,520,o),
(451,520,o),
(454,521,cs),
(615,565,ls),
(623,567,o),
(628,572,o),
(628,580,cs),
(628,582,o),
(628,585,o),
(627,587,cs),
(581,725,o),
(472,788,o),
(336,788,cs),
(174,788,o),
(44,686,o),
(44,540,cs),
(44,419,o),
(123,338,o),
(247,295,cs),
(332,265,ls),
(399,241,o),
(435,221,o),
(435,180,cs),
(435,142,o),
(398,124,o),
(345,124,cs),
(279,124,o),
(238,149,o),
(214,208,cs),
(211,216,o),
(205,220,o),
(198,220,cs),
(196,220,o),
(194,219,o),
(192,219,c),
(38,181,ls),
(30,179,o),
(25,173,o),
(25,166,cs),
(25,164,o),
(25,162,o),
(26,159,cs),
(71,19,o),
(185,-58,o),
(339,-58,cs)
);
}
);
vertWidth = 1000;
width = 672;
}
);
note = cid00052;
unicode = 83;
}
{
glyphname = T;
kernLeft = T;
kernRight = T;
layers = (
{
hints = (
{
horizontal = 1;
place = (578, 194);
place = (578, 194);
type = Stem;
},
{
place = (282, 207);
place = (282, 207);
type = Stem;
}
);
layerId = m01;
shapes = (
{
closed = 1;
nodes = (
(471,-42,ls),
(482,-42,o),
(489,-35,o),
(489,-24,cs),
(489,578,l),
(722,578,ls),
(733,578,o),
(740,585,o),
(740,595,cs),
(740,754,ls),
(740,765,o),
(733,772,o),
(722,772,cs),
(48,772,ls),
(37,772,o),
(31,765,o),
(31,754,cs),
(31,595,ls),
(31,585,o),
(37,578,o),
(48,578,cs),
(282,578,l),
(282,-24,ls),
(282,-35,o),
(288,-42,o),
(299,-42,cs)
);
}
);
vertWidth = 1000;
width = 771;
}
);
note = cid00053;
unicode = 84;
}
{
glyphname = V;
kernLeft = V;
kernRight = V;
layers = (
{
hints = (
{
horizontal = 1;
place = (-42, 814);
place = (-42, 814);
type = Stem;
},
{
place = (15, 815);
place = (15, 815);
type = Stem;
}
);
layerId = m01;
shapes = (
{
closed = 1;
nodes = (
(492,-42,ls),
(502,-42,o),
(509,-38,o),
(513,-29,cs),
(828,752,l),
(830,755,o),
(830,757,o),
(830,760,cs),
(830,767,o),
(824,772,o),
(815,772,cs),
(619,772,ls),
(609,772,o),
(601,768,o),
(598,758,cs),
(426,250,l),
(251,758,ls),
(247,768,o),
(240,772,o),
(230,772,cs),
(31,772,ls),
(22,772,o),
(15,767,o),
(15,759,cs),
(15,757,o),
(16,754,o),
(17,752,cs),
(333,-29,ls),
(337,-38,o),
(344,-42,o),
(353,-42,cs)
);
}
);
vertWidth = 1000;
width = 846;
}
);
note = cid00055;
unicode = 86;
}
{
glyphname = bracketleft;
kernRight = parenleft;
layers = (
{
hints = (
{
horizontal = 1;
place = (-208, 182);
place = (-208, 182);
type = Stem;
},
{
horizontal = 1;
place = (652, 183);
place = (652, 183);
type = Stem;
},
{
place = (64, 201);
place = (64, 201);
type = Stem;
},
{
place = (64, 352);
place = (64, 352);
type = Stem;
}
);
layerId = m01;
shapes = (
{
closed = 1;
nodes = (
(398,-208,ls),
(409,-208,o),
(416,-202,o),
(416,-191,cs),
(416,-43,ls),
(416,-33,o),
(409,-26,o),
(398,-26,cs),
(265,-26,l),
(265,652,l),
(398,652,ls),
(409,652,o),
(416,659,o),
(416,670,cs),
(416,817,ls),
(416,827,o),
(409,835,o),
(398,835,cs),
(82,835,ls),
(71,835,o),
(64,827,o),
(64,817,cs),
(64,-191,ls),
(64,-202,o),
(71,-208,o),
(82,-208,cs)
);
}
);
vertWidth = 1000;
width = 438;
}
);
note = cid00060;
unicode = 91;
}
{
glyphname = backslash;
kernLeft = backslash;
kernRight = backslash;
layers = (
{
hints = (
{
horizontal = 1;
place = (-164, 954);
place = (-164, 954);
type = Stem;
},
{
place = (20, 458);
place = (20, 458);
type = Stem;
}
);
layerId = m01;
shapes = (
{
closed = 1;
nodes = (
(462,-164,ls),
(473,-164,o),
(478,-159,o),
(478,-150,cs),
(478,-148,o),
(478,-146,o),
(477,-144,c),
(216,775,l),
(214,785,o),
(207,790,o),
(197,790,cs),
(37,790,ls),
(26,790,o),
(20,785,o),
(20,776,cs),
(20,774,o),
(20,772,o),
(21,770,c),
(282,-150,ls),
(285,-160,o),
(292,-164,o),
(302,-164,cs)
);
}
);
vertWidth = 1000;
width = 498;
}
);
note = cid00097;
unicode = 92;
}
{
glyphname = bracketright;
kernLeft = parenright;
layers = (
{
hints = (
{
horizontal = 1;
place = (-208, 182);
place = (-208, 182);
type = Stem;
},
{
horizontal = 1;
place = (652, 183);
place = (652, 183);
type = Stem;
},
{
place = (22, 352);
place = (22, 352);
type = Stem;
},
{
place = (173, 201);
place = (173, 201);
type = Stem;
}
);
layerId = m01;
shapes = (
{
closed = 1;
nodes = (
(356,-208,ls),
(367,-208,o),
(374,-202,o),
(374,-191,cs),
(374,817,ls),
(374,827,o),
(367,835,o),
(356,835,cs),
(40,835,ls),
(29,835,o),
(22,827,o),
(22,817,cs),
(22,670,ls),
(22,659,o),
(29,652,o),
(40,652,cs),
(173,652,l),
(173,-26,l),
(40,-26,ls),
(29,-26,o),
(22,-33,o),
(22,-43,cs),
(22,-191,ls),
(22,-202,o),
(29,-208,o),
(40,-208,cs)
);
}
);
vertWidth = 1000;
width = 438;
}
);
note = cid00062;
unicode = 93;
}
{
glyphname = asciicircum;
layers = (
{
hints = (
{
horizontal = 1;
place = (335, 437);
place = (335, 437);
type = Stem;
},
{
place = (40, 585);
place = (40, 585);
type = Stem;
}
);
layerId = m01;
shapes = (
{
closed = 1;
nodes = (
(221,335,ls),
(231,335,o),
(238,338,o),
(242,348,cs),
(335,539,l),
(428,348,l),
(431,338,o),
(439,335,o),
(449,335,cs),
(610,335,ls),
(619,335,o),
(625,340,o),
(625,347,cs),
(625,349,o),
(624,353,o),
(622,356,cs),
(397,760,ls),
(393,768,o),
(386,772,o),
(377,772,cs),
(288,772,ls),
(279,772,o),
(273,768,o),
(268,760,cs),
(43,356,ls),
(41,353,o),
(40,349,o),
(40,347,cs),
(40,340,o),
(46,335,o),
(55,335,cs)
);
}
);
vertWidth = 1000;
width = 665;
}
);
note = cid00063;
unicode = 94;
}
{
glyphname = underscore;
kernLeft = underscore;
kernRight = underscore;
layers = (
{
hints = (
{
horizontal = 1;
place = (-265, 176);
place = (-265, 176);
type = Stem;
},
{
place = (38, 552);
place = (38, 552);
type = Stem;
}
);
layerId = m01;
shapes = (
{
closed = 1;
nodes = (
(573,-265,ls),
(582,-265,o),
(590,-257,o),
(590,-247,cs),
(590,-106,ls),
(590,-97,o),
(582,-89,o),
(573,-89,cs),
(55,-89,ls),
(47,-89,o),
(38,-97,o),
(38,-106,cs),
(38,-247,ls),
(38,-257,o),
(47,-265,o),
(55,-265,cs)
);
}
);
vertWidth = 1000;
width = 629;
}
);
note = cid00064;
unicode = (95,818);
}
{
glyphname = grave;
layers = (
{
hints = (
{
horizontal = 1;
place = (614, 191);
place = (614, 191);
type = Stem;
},
{
place = (51, 292);
place = (51, 292);
type = Stem;
}
);
layerId = m01;
shapes = (
{
closed = 1;
nodes = (
(330,614,ls),
(339,614,o),
(343,618,o),
(343,625,cs),
(343,627,o),
(343,630,o),
(341,633,cs),
(260,793,ls),
(256,801,o),
(250,805,o),
(241,805,cs),
(64,805,ls),
(55,805,o),
(51,801,o),
(51,796,cs),
(51,793,o),
(52,790,o),
(54,786,c),
(164,624,ls),
(169,617,o),
(175,614,o),
(183,614,cs)
);
}
);
vertWidth = 1000;
width = 421;
}
);
note = cid00065;
unicode = (96,768);
}
{
glyphname = b;
kernLeft = b;
kernRight = b;
layers = (
{
hints = (
{
horizontal = 1;
place = (-53, 175);
place = (-53, 175);
type = Stem;
},
{
horizontal = 1;
place = (383, 175);
place = (383, 175);
type = Stem;
},
{
place = (64, 200);
place = (64, 200);
type = Stem;
},
{
place = (490, 202);
place = (490, 202);
type = Stem;
},
{
horizontal = 1;
place = (-42, 164);
place = (-42, 164);
type = Stem;
},
{
place = (64, 176);
place = (64, 176);
type = Stem;
},
{
place = (64, 184);
place = (64, 184);
type = Stem;
}
);
layerId = m01;
shapes = (
{
closed = 1;
nodes = (
(582,-53,o),
(692,70,o),
(692,253,cs),
(692,436,o),
(582,558,o),
(418,558,cs),
(356,558,o),
(304,538,o),
(264,501,c),
(264,772,ls),
(264,783,o),
(257,790,o),
(246,790,cs),
(82,790,ls),
(71,790,o),
(64,783,o),
(64,772,cs),
(64,-24,ls),
(64,-35,o),
(71,-42,o),
(82,-42,cs),
(221,-42,ls),
(232,-42,o),
(240,-35,o),
(240,-24,cs),
(242,28,l),
(284,-24,o),
(344,-53,o),
(418,-53,cs)
);
},
{
closed = 1;
nodes = (
(248,330,o),
(297,383,o),
(369,383,cs),
(441,383,o),
(490,330,o),
(490,253,cs),
(490,176,o),
(441,122,o),
(369,122,cs),
(297,122,o),
(248,176,o),
(248,253,cs)
);
}
);
vertWidth = 1000;
width = 726;
}
);
note = cid00067;
unicode = 98;
}
{
glyphname = d;
kernLeft = a;
layers = (
{
hints = (
{
horizontal = 1;
place = (-53, 175);
place = (-53, 175);
type = Stem;
},
{
horizontal = 1;
place = (383, 175);
place = (383, 175);
type = Stem;
},
{
place = (34, 202);
place = (34, 202);
type = Stem;
},
{
place = (462, 200);
place = (462, 200);
type = Stem;
},
{
place = (487, 175);
place = (487, 175);
type = Stem;
},
{
horizontal = 1;
place = (-42, 164);
place = (-42, 164);
type = Stem;
},
{
place = (478, 184);
place = (478, 184);
type = Stem;
}
);
layerId = m01;
shapes = (
{
closed = 1;
nodes = (
(383,-53,o),
(442,-24,o),
(485,28,c),
(487,-24,ls),
(487,-35,o),
(495,-42,o),
(505,-42,cs),
(644,-42,ls),
(655,-42,o),
(662,-35,o),
(662,-24,cs),
(662,772,ls),
(662,783,o),
(655,790,o),
(644,790,cs),
(480,790,ls),
(469,790,o),
(462,783,o),
(462,772,cs),
(462,501,l),
(423,538,o),
(370,558,o),
(308,558,cs),
(144,558,o),
(34,436,o),
(34,253,cs),
(34,70,o),
(144,-53,o),
(308,-53,cs)
);
},
{
closed = 1;
nodes = (
(236,330,o),
(285,383,o),
(357,383,cs),
(429,383,o),
(478,330,o),
(478,253,cs),
(478,176,o),
(429,122,o),
(357,122,cs),
(285,122,o),
(236,176,o),
(236,253,cs)
);
}
);
vertWidth = 1000;
width = 726;
}
);
note = cid00069;
unicode = 100;
}
{
glyphname = f;
kernLeft = f;
kernRight = f;
layers = (
{
hints = (
{
horizontal = 1;
place = (376, 169);
place = (376, 169);
type = Stem;
},
{
horizontal = 1;
place = (630, 170);
place = (630, 170);
type = Stem;
},
{
place = (100, 199);
place = (100, 199);
type = Stem;
}
);
layerId = m01;
shapes = (
{
closed = 1;
nodes = (
(282,-42,ls),
(292,-42,o),
(299,-35,o),
(299,-24,cs),
(299,376,l),
(428,376,ls),
(439,376,o),
(446,383,o),
(446,394,cs),
(446,527,ls),
(446,537,o),
(439,545,o),
(428,545,cs),
(296,545,l),
(295,552,l),
(295,603,o),
(317,630,o),
(353,630,cs),
(374,630,o),
(387,625,o),
(401,606,c),
(406,601,o),
(411,598,o),
(416,598,cs),
(419,598,o),
(422,599,o),
(425,600,cs),
(538,652,ls),
(545,656,o),
(549,661,o),
(549,668,cs),
(549,670,o),
(548,673,o),
(547,676,c),
(498,761,o),
(424,800,o),
(329,800,cs),
(176,800,o),
(100,695,o),
(100,547,cs),
(100,545,l),
(31,545,ls),
(20,545,o),
(13,537,o),
(13,527,cs),
(13,394,ls),
(13,383,o),
(20,376,o),
(31,376,cs),
(100,376,l),
(100,-24,ls),
(100,-35,o),
(106,-42,o),
(116,-42,cs)
);
}
);
vertWidth = 1000;
width = 476;
}
);
note = cid00071;
unicode = 102;
}
{
glyphname = i;
kernLeft = i;
layers = (
{
hints = (
{
horizontal = 1;
place = (625, 207);
place = (625, 207);
type = Stem;
},
{
place = (54, 220);
place = (54, 220);
type = Stem;
},
{
place = (64, 200);
place = (64, 200);
type = Stem;
}
);
layerId = m01;
shapes = (
{
closed = 1;
nodes = (
(226,625,o),
(274,666,o),
(274,728,cs),
(274,790,o),
(226,832,o),
(164,832,cs),
(102,832,o),
(54,790,o),
(54,728,cs),
(54,666,o),
(102,625,o),
(164,625,cs)
);
},
{
closed = 1;
nodes = (
(64,-24,ls),
(64,-35,o),
(71,-42,o),
(82,-42,cs),
(246,-42,ls),
(257,-42,o),
(264,-35,o),
(264,-24,cs),
(264,530,ls),
(264,540,o),
(257,547,o),
(246,547,cs),
(82,547,ls),
(71,547,o),
(64,540,o),
(64,530,cs)
);
}
);
vertWidth = 1000;
width = 328;
}
);
note = cid00074;
unicode = 105;
}
{
glyphname = k;
kernLeft = b;
kernRight = k;
layers = (
{
hints = (
{
horizontal = 1;
place = (-42, 832);
place = (-42, 832);
type = Stem;
},
{
place = (64, 200);
place = (64, 200);
type = Stem;
}
);
layerId = m01;
shapes = (
{
closed = 1;
nodes = (
(246,-42,ls),
(257,-42,o),
(264,-35,o),
(264,-24,cs),
(264,123,l),
(337,199,l),
(458,-30,ls),
(462,-39,o),
(469,-42,o),
(479,-42,cs),
(663,-42,ls),
(673,-42,o),
(678,-38,o),
(678,-31,cs),
(678,-28,o),
(677,-25,o),
(675,-21,cs),
(477,344,l),
(652,526,ls),
(656,530,o),
(658,534,o),
(658,537,cs),
(658,543,o),
(652,547,o),
(643,547,cs),
(449,547,ls),
(441,547,o),
(435,545,o),
(428,537,cs),
(264,349,l),
(264,772,ls),
(264,783,o),
(257,790,o),
(246,790,cs),
(82,790,ls),
(71,790,o),
(64,783,o),
(64,772,cs),
(64,-24,ls),
(64,-35,o),
(71,-42,o),
(82,-42,cs)
);
}
);
vertWidth = 1000;
width = 704;
}
);
note = cid00076;
unicode = 107;
}
{
glyphname = l;
kernLeft = b;
layers = (
{
hints = (
{
horizontal = 1;
place = (-42, 832);
place = (-42, 832);
type = Stem;
},
{
place = (64, 200);
place = (64, 200);
type = Stem;
}
);
layerId = m01;
shapes = (
{
closed = 1;
nodes = (
(246,-42,ls),
(257,-42,o),
(264,-35,o),
(264,-24,cs),
(264,772,ls),
(264,783,o),
(257,790,o),
(246,790,cs),
(82,790,ls),
(71,790,o),
(64,783,o),
(64,772,cs),
(64,-24,ls),
(64,-35,o),
(71,-42,o),
(82,-42,cs)
);
}
);
vertWidth = 1000;
width = 328;
}
);
note = cid00077;
unicode = 108;
}
{
glyphname = m;
kernLeft = m;
kernRight = h;
layers = (
{
hints = (
{
horizontal = 1;
place = (383, 175);
place = (383, 175);
type = Stem;
},
{
place = (64, 200);
place = (64, 200);
type = Stem;
},
{
place = (438, 200);
place = (438, 200);
type = Stem;
},
{
place = (812, 199);
place = (812, 199);
type = Stem;
},
{
place = (64, 176);
place = (64, 176);
type = Stem;
},
{
horizontal = 1;
place = (383, 164);
place = (383, 164);
type = Stem;
}
);
layerId = m01;
shapes = (
{
closed = 1;
nodes = (
(246,-42,ls),
(257,-42,o),
(264,-35,o),
(264,-24,cs),
(264,253,ls),
(264,339,o),
(302,383,o),
(358,383,cs),
(413,383,o),
(438,349,o),
(438,267,cs),
(438,-24,ls),
(438,-35,o),
(445,-42,o),
(456,-42,cs),
(620,-42,ls),
(631,-42,o),
(638,-35,o),
(638,-24,cs),
(638,253,ls),
(638,339,o),
(675,383,o),
(732,383,cs),
(786,383,o),
(812,349,o),
(812,267,cs),
(812,-24,ls),
(812,-35,o),
(820,-42,o),
(830,-42,cs),
(995,-42,ls),
(1005,-42,o),
(1011,-35,o),
(1011,-24,cs),
(1011,342,ls),
(1011,477,o),
(933,558,o),
(797,558,cs),
(716,558,o),
(649,529,o),
(607,468,c),
(571,526,o),
(508,558,o),
(424,558,cs),
(347,558,o),
(285,531,o),
(243,474,c),
(240,530,ls),
(240,542,o),
(233,547,o),
(222,547,cs),
(82,547,ls),
(71,547,o),
(64,540,o),
(64,530,cs),
(64,-24,ls),
(64,-35,o),
(71,-42,o),
(82,-42,cs)
);
}
);
vertWidth = 1000;
width = 1071;
}
);
note = cid00078;
unicode = 109;
}
{
glyphname = n;
kernLeft = m;
kernRight = h;
layers = (
{
hints = (
{
horizontal = 1;
place = (383, 175);
place = (383, 175);
type = Stem;
},
{
place = (64, 200);
place = (64, 200);
type = Stem;
},
{
place = (447, 200);
place = (447, 200);
type = Stem;
},
{
place = (64, 176);
place = (64, 176);
type = Stem;
},
{
horizontal = 1;
place = (383, 164);
place = (383, 164);
type = Stem;
}
);
layerId = m01;
shapes = (
{
closed = 1;
nodes = (
(246,-42,ls),
(257,-42,o),
(264,-35,o),
(264,-24,cs),
(264,253,ls),
(264,339,o),
(305,383,o),
(363,383,cs),
(421,383,o),
(447,349,o),
(447,267,cs),
(447,-24,ls),
(447,-35,o),
(454,-42,o),
(465,-42,cs),
(629,-42,ls),
(640,-42,o),
(647,-35,o),
(647,-24,cs),
(647,342,ls),
(647,477,o),
(568,558,o),
(428,558,cs),
(350,558,o),
(285,531,o),
(242,478,c),
(240,530,ls),
(240,541,o),
(232,547,o),
(221,547,cs),
(82,547,ls),
(71,547,o),
(64,540,o),
(64,530,cs),
(64,-24,ls),
(64,-35,o),
(71,-42,o),
(82,-42,cs)
);
}
);
vertWidth = 1000;
width = 706;
}
);
note = cid00079;
unicode = 110;
}
{
glyphname = p;
kernLeft = m;
kernRight = b;
layers = (
{
hints = (
{
horizontal = 1;
place = (-284, 21);
target = up;
type = BottomGhost;
},
{
horizontal = 1;
place = (-53, 175);
place = (-53, 175);
type = Stem;
},
{
horizontal = 1;
place = (383, 175);
place = (383, 175);
type = Stem;
},
{
place = (64, 200);
place = (64, 200);
type = Stem;
},
{
place = (490, 202);
place = (490, 202);
type = Stem;
},
{
place = (64, 176);
place = (64, 176);
type = Stem;
},
{
horizontal = 1;
place = (383, 164);
place = (383, 164);
type = Stem;
},
{
place = (64, 184);
place = (64, 184);
type = Stem;
}
);
layerId = m01;
shapes = (
{
closed = 1;
nodes = (
(246,-284,ls),
(257,-284,o),
(264,-277,o),
(264,-266,cs),
(264,3,l),
(304,-33,o),
(356,-53,o),
(418,-53,cs),
(582,-53,o),
(692,70,o),
(692,253,cs),
(692,436,o),
(582,558,o),
(418,558,cs),
(344,558,o),
(284,529,o),
(242,478,c),
(240,530,ls),
(240,541,o),
(232,547,o),
(221,547,cs),
(82,547,ls),
(71,547,o),
(64,540,o),
(64,530,cs),
(64,-266,ls),
(64,-277,o),
(71,-284,o),
(82,-284,cs)
);
},
{
closed = 1;
nodes = (
(248,330,o),
(297,383,o),
(369,383,cs),
(441,383,o),
(490,330,o),
(490,253,cs),
(490,176,o),
(441,122,o),
(369,122,cs),
(297,122,o),
(248,176,o),
(248,253,cs)
);
}
);
vertWidth = 1000;
width = 726;
}
);
note = cid00081;
unicode = 112;
}
{
glyphname = q;
kernLeft = a;
kernRight = q;
layers = (
{
hints = (
{
horizontal = 1;
place = (-284, 21);
target = up;
type = BottomGhost;
},
{
horizontal = 1;
place = (-53, 175);
place = (-53, 175);
type = Stem;
},
{
horizontal = 1;
place = (383, 175);
place = (383, 175);
type = Stem;
},
{
place = (462, 200);
place = (462, 200);
type = Stem;
},
{
horizontal = 1;
place = (383, 164);
place = (383, 164);
type = Stem;
},
{
place = (487, 175);
place = (487, 175);
type = Stem;
},
{
place = (34, 202);
place = (34, 202);
type = Stem;
},
{
place = (478, 184);
place = (478, 184);
type = Stem;
}
);
layerId = m01;
shapes = (
{
closed = 1;
nodes = (
(644,-284,ls),
(655,-284,o),
(662,-277,o),
(662,-266,cs),
(662,530,ls),
(662,540,o),
(655,547,o),
(644,547,cs),
(505,547,ls),
(495,547,o),
(487,541,o),
(487,530,cs),
(485,478,l),
(442,529,o),
(383,558,o),
(308,558,cs),
(144,558,o),
(34,436,o),
(34,253,cs),
(34,70,o),
(144,-53,o),
(308,-53,cs),
(370,-53,o),
(423,-33,o),
(462,3,c),
(462,-266,ls),
(462,-277,o),
(469,-284,o),
(480,-284,cs)
);
},
{
closed = 1;
nodes = (
(236,330,o),
(285,383,o),
(357,383,cs),
(429,383,o),
(478,330,o),
(478,253,cs),
(478,176,o),
(429,122,o),
(357,122,cs),
(285,122,o),
(236,176,o),
(236,253,cs)
);
}
);
vertWidth = 1000;
width = 726;
}
);
note = cid00082;
unicode = 113;
}
{
glyphname = r;
kernLeft = m;
kernRight = r;
layers = (
{
hints = (
{
horizontal = 1;
place = (369, 186);
place = (369, 186);
type = Stem;
},
{
place = (64, 200);
place = (64, 200);
type = Stem;
},
{
place = (64, 176);
place = (64, 176);
type = Stem;
}
);
layerId = m01;
shapes = (
{
closed = 1;
nodes = (
(246,-42,ls),
(257,-42,o),
(264,-35,o),
(264,-24,cs),
(264,245,ls),
(264,332,o),
(338,369,o),
(397,369,cs),
(420,369,o),
(438,366,o),
(454,364,cs),
(466,362,o),
(474,367,o),
(474,378,cs),
(474,530,ls),
(474,540,o),
(468,547,o),
(458,550,cs),
(446,554,o),
(431,555,o),
(416,555,cs),
(346,555,o),
(283,529,o),
(243,470,c),
(240,530,ls),
(240,541,o),
(232,547,o),
(221,547,cs),
(82,547,ls),
(71,547,o),
(64,540,o),
(64,530,cs),
(64,-24,ls),
(64,-35,o),
(71,-42,o),
(82,-42,cs)
);
}
);
vertWidth = 1000;
width = 489;
}
);
note = cid00083;
unicode = 114;
}
{
glyphname = u;
kernLeft = u;
kernRight = a;
layers = (
{
hints = (
{
horizontal = 1;
place = (-53, 175);
place = (-53, 175);
type = Stem;
},
{
place = (60, 200);
place = (60, 200);
type = Stem;
},
{
place = (440, 200);
place = (440, 200);
type = Stem;
},
{
place = (465, 175);
place = (465, 175);
type = Stem;
},
{
horizontal = 1;
place = (-42, 164);
place = (-42, 164);
type = Stem;
}
);
layerId = m01;
shapes = (
{
closed = 1;
nodes = (
(355,-53,o),
(419,-26,o),
(462,29,c),
(465,-24,ls),
(465,-36,o),
(472,-42,o),
(484,-42,cs),
(622,-42,ls),
(633,-42,o),
(640,-35,o),
(640,-24,cs),
(640,530,ls),
(640,540,o),
(633,547,o),
(622,547,cs),
(458,547,ls),
(447,547,o),
(440,540,o),
(440,530,cs),
(440,252,ls),
(440,165,o),
(400,122,o),
(343,122,cs),
(285,122,o),
(260,155,o),
(260,237,cs),
(260,530,ls),
(260,540,o),
(253,547,o),
(242,547,cs),
(78,547,ls),
(67,547,o),
(60,540,o),
(60,530,cs),
(60,163,ls),
(60,29,o),
(139,-53,o),
(277,-53,cs)
);
}
);
vertWidth = 1000;
width = 704;
}
);
note = cid00086;
unicode = 117;
}
{
glyphname = v;
kernLeft = v;
kernRight = v;
layers = (
{
hints = (
{
horizontal = 1;
place = (-42, 589);
place = (-42, 589);
type = Stem;
},
{
place = (16, 648);
place = (16, 648);
type = Stem;
}
);
layerId = m01;
shapes = (
{
closed = 1;
nodes = (
(393,-42,ls),
(403,-42,o),
(409,-38,o),
(413,-29,cs),
(662,527,ls),
(663,530,o),
(664,532,o),
(664,535,cs),
(664,542,o),
(658,547,o),
(648,547,cs),
(480,547,ls),
(470,547,o),
(464,542,o),
(460,534,c),
(345,225,l),
(228,534,ls),
(225,542,o),
(218,547,o),
(208,547,cs),
(32,547,ls),
(22,547,o),
(16,542,o),
(16,535,cs),
(16,532,o),
(17,530,o),
(18,527,cs),
(267,-29,ls),
(271,-38,o),
(277,-42,o),
(287,-42,cs)
);
}
);
vertWidth = 1000;
width = 680;
}
);
note = cid00087;
unicode = 118;
}
{
glyphname = w;
kernLeft = w;
kernRight = w;
layers = (
{
hints = (
{
horizontal = 1;
place = (548, -20);
target = down;
type = TopGhost;
},
{
place = (16, 940);
place = (16, 940);
type = Stem;
}
);
layerId = m01;
shapes = (
{
closed = 1;
nodes = (
(346,-42,ls),
(356,-42,o),
(362,-36,o),
(366,-29,c),
(490,281,l),
(607,-28,ls),
(610,-38,o),
(617,-42,o),
(627,-42,cs),
(732,-42,ls),
(741,-42,o),
(749,-38,o),
(751,-29,c),
(955,527,l),
(958,539,o),
(953,547,o),
(940,547,cs),
(784,547,ls),
(775,547,o),
(767,542,o),
(764,532,cs),
(673,256,l),
(569,535,ls),
(566,544,o),
(559,548,o),
(549,548,cs),
(445,548,ls),
(435,548,o),
(428,544,o),
(425,535,cs),
(314,257,l),
(230,532,ls),
(226,544,o),
(218,547,o),
(210,547,cs),
(32,547,ls),
(22,547,o),
(16,542,o),
(16,535,cs),
(16,532,o),
(17,530,o),
(18,527,cs),
(221,-29,ls),
(224,-38,o),
(231,-42,o),
(241,-42,cs)
);
}
);
vertWidth = 1000;
width = 973;
}
);
note = cid00088;
unicode = 119;
}
{
glyphname = x;
kernLeft = x;
kernRight = x;
layers = (
{
hints = (
{
horizontal = 1;
place = (-42, 589);
place = (-42, 589);
type = Stem;
},
{
place = (18, 626);
place = (18, 626);
type = Stem;
}
);
layerId = m01;
shapes = (
{
closed = 1;
nodes = (
(202,-42,ls),
(211,-42,o),
(218,-39,o),
(223,-31,cs),
(328,129,l),
(430,-31,ls),
(435,-39,o),
(441,-42,o),
(450,-42,cs),
(629,-42,ls),
(638,-42,o),
(644,-37,o),
(644,-31,cs),
(644,-28,o),
(642,-24,o),
(640,-21,cs),
(447,259,l),
(632,526,ls),
(635,530,o),
(636,533,o),
(636,537,cs),
(636,543,o),
(630,547,o),
(621,547,cs),
(452,547,ls),
(444,547,o),
(436,544,o),
(430,536,cs),
(335,389,l),
(240,536,ls),
(235,544,o),
(227,547,o),
(218,547,cs),
(40,547,ls),
(31,547,o),
(25,543,o),
(25,536,cs),
(25,533,o),
(27,530,o),
(29,526,c),
(214,259,l),
(22,-21,ls),
(19,-25,o),
(18,-28,o),
(18,-31,cs),
(18,-37,o),
(23,-42,o),
(32,-42,cs)
);
}
);
vertWidth = 1000;
width = 662;
}
);
note = cid00089;
unicode = 120;
}
{
glyphname = z;
kernLeft = z;
kernRight = z;
layers = (
{
hints = (
{
horizontal = 1;
place = (-42, 167);
place = (-42, 167);
type = Stem;
},
{
horizontal = 1;
place = (379, 168);
place = (379, 168);
type = Stem;
},
{
place = (30, 517);
place = (30, 517);
type = Stem;
}
);
layerId = m01;
shapes = (
{
closed = 1;
nodes = (
(529,-42,ls),
(540,-42,o),
(547,-35,o),
(547,-24,cs),
(547,108,ls),
(547,119,o),
(540,125,o),
(529,125,cs),
(315,125,l),
(536,467,ls),
(540,474,o),
(542,480,o),
(542,488,cs),
(542,530,ls),
(542,540,o),
(536,547,o),
(525,547,cs),
(55,547,ls),
(44,547,o),
(38,540,o),
(38,530,cs),
(38,397,ls),
(38,386,o),
(44,379,o),
(55,379,cs),
(256,379,l),
(37,39,ls),
(32,32,o),
(30,26,o),
(30,17,cs),
(30,-24,ls),
(30,-35,o),
(37,-42,o),
(48,-42,cs)
);
}
);
vertWidth = 1000;
width = 578;
}
);
note = cid00091;
unicode = 122;
}
{
glyphname = braceleft;
kernRight = parenleft;
layers = (
{
hints = (
{
horizontal = 1;
place = (-208, 172);
place = (-208, 172);
type = Stem;
},
{
horizontal = 1;
place = (233, 161);
place = (233, 161);
type = Stem;
},
{
horizontal = 1;
place = (663, 172);
place = (663, 172);
type = Stem;
},
{
place = (138, 199);
place = (138, 199);
type = Stem;
}
);
layerId = m01;
shapes = (
{
closed = 1;
nodes = (
(451,-208,ls),
(462,-208,o),
(469,-202,o),
(469,-191,cs),
(469,-54,ls),
(469,-43,o),
(462,-36,o),
(451,-36,cs),
(448,-36,ls),
(373,-36,o),
(337,2,o),
(337,73,cs),
(337,208,ls),
(337,264,o),
(316,300,o),
(267,313,c),
(316,327,o),
(337,362,o),
(337,419,cs),
(337,552,ls),
(337,625,o),
(373,663,o),
(448,663,cs),
(451,663,ls),
(462,663,o),
(469,670,o),
(469,680,cs),
(469,817,ls),
(469,827,o),
(462,835,o),
(451,835,cs),
(428,835,ls),
(255,835,o),
(138,768,o),
(138,559,cs),
(138,453,ls),
(138,404,o),
(125,394,o),
(98,394,cs),
(62,394,ls),
(51,394,o),
(44,386,o),
(44,376,cs),
(44,251,ls),
(44,240,o),
(51,233,o),
(62,233,cs),
(98,233,ls),
(125,233,o),
(138,223,o),
(138,174,cs),
(138,67,ls),
(138,-141,o),
(255,-208,o),
(428,-208,cs)
);
}
);
vertWidth = 1000;
width = 491;
}
);
note = cid00092;
unicode = 123;
}
{
glyphname = bar;
layers = (
{
hints = (
{
horizontal = 1;
place = (-164, 954);
place = (-164, 954);
type = Stem;
},
{
place = (83, 200);
place = (83, 200);
type = Stem;
}
);
layerId = m01;
shapes = (
{
closed = 1;
nodes = (
(265,-164,ls),
(275,-164,o),
(283,-156,o),
(283,-146,cs),
(283,772,ls),
(283,782,o),
(275,790,o),
(265,790,cs),
(101,790,ls),
(91,790,o),
(83,782,o),
(83,772,cs),
(83,-146,ls),
(83,-156,o),
(91,-164,o),
(101,-164,cs)
);
}
);
vertWidth = 1000;
width = 366;
}
);
note = cid00099;
unicode = 124;
}
{
glyphname = braceright;
kernLeft = parenright;
layers = (
{
hints = (
{
horizontal = 1;
place = (-208, 172);
place = (-208, 172);
type = Stem;
},
{
horizontal = 1;
place = (233, 161);
place = (233, 161);
type = Stem;
},
{
horizontal = 1;
place = (663, 172);
place = (663, 172);
type = Stem;
},
{
place = (154, 200);
place = (154, 200);
type = Stem;
}
);
layerId = m01;
shapes = (
{
closed = 1;
nodes = (
(63,-208,ls),
(236,-208,o),
(354,-141,o),
(354,67,cs),
(354,174,ls),
(354,223,o),
(366,233,o),
(394,233,cs),
(429,233,ls),
(439,233,o),
(447,240,o),
(447,251,cs),
(447,376,ls),
(447,386,o),
(439,394,o),
(429,394,cs),
(394,394,ls),
(366,394,o),
(354,404,o),
(354,453,cs),
(354,559,ls),
(354,768,o),
(236,835,o),
(63,835,cs),
(40,835,ls),
(29,835,o),
(22,827,o),
(22,817,cs),
(22,680,ls),
(22,670,o),
(29,663,o),
(40,663,cs),
(43,663,ls),
(119,663,o),
(154,625,o),
(154,552,cs),
(154,419,ls),
(154,362,o),
(174,327,o),
(224,313,c),
(174,300,o),
(154,264,o),
(154,208,cs),
(154,73,ls),
(154,2,o),
(119,-36,o),
(43,-36,cs),
(40,-36,ls),
(29,-36,o),
(22,-43,o),
(22,-54,cs),
(22,-191,ls),
(22,-202,o),
(29,-208,o),
(40,-208,cs)
);
}
);
vertWidth = 1000;
width = 491;
}
);
note = cid00094;
unicode = 125;
}
{
glyphname = asciitilde;
layers = (
{
hints = (
{
horizontal = 1;
place = (154, 180);
place = (154, 180);
type = Stem;
},
{
place = (34, 153);
place = (34, 153);
type = Stem;
},
{
place = (479, 152);
place = (479, 152);
type = Stem;
},
{
horizontal = 1;
place = (154, 291);
place = (154, 291);
type = Stem;
},
{
horizontal = 1;
place = (273, 180);
place = (273, 180);
type = Stem;
},
{
horizontal = 1;
place = (162, 291);
place = (162, 291);
type = Stem;
}
);
layerId = m01;
shapes = (
{
closed = 1;
nodes = (
(562,154,o),
(624,247,o),
(631,417,cs),
(631,435,o),
(624,445,o),
(614,445,cs),
(496,445,ls),
(486,445,o),
(479,438,o),
(479,426,cs),
(477,363,o),
(461,334,o),
(434,334,cs),
(383,334,o),
(342,453,o),
(216,453,cs),
(102,453,o),
(39,356,o),
(34,181,cs),
(34,169,o),
(41,162,o),
(52,162,cs),
(170,162,ls),
(181,162,o),
(187,169,o),
(187,181,cs),
(190,244,o),
(204,273,o),
(233,273,cs),
(284,273,o),
(325,154,o),
(450,154,cs)
);
}
);
vertWidth = 1000;
width = 665;
}
);
note = cid00100;
unicode = (126,8764);
}
{
glyphname = exclamdown;
layers = (
{
hints = (
{
horizontal = 1;
place = (309, 238);
place = (309, 238);
type = Stem;
},
{
place = (43, 246);
place = (43, 246);
type = Stem;
},
{
place = (67, 197);
place = (67, 197);
type = Stem;
}
);
layerId = m01;
shapes = (
{
closed = 1;
nodes = (
(289,494,o),
(234,547,o),
(166,547,cs),
(98,547,o),
(43,494,o),
(43,428,cs),
(43,363,o),
(98,309,o),
(166,309,cs),
(234,309,o),
(289,363,o),
(289,428,cs)
);
},
{
closed = 1;
nodes = (
(80,266,l),
(69,29,l),
(65,-348,l),
(266,-348,l),
(262,28,l),
(251,266,l)
);
}
);
vertWidth = 1000;
width = 332;
}
);
note = cid00101;
unicode = 161;
}
{
glyphname = cent;
layers = (
{
hints = (
{
horizontal = 1;
place = (-42, 267);
place = (-42, 267);
type = Stem;
},
{
horizontal = 1;
place = (486, 286);
place = (486, 286);
type = Stem;
},
{
place = (34, 203);
place = (34, 203);
type = Stem;
},
{
place = (268, 155);
place = (268, 155);
type = Stem;
}
);
layerId = m01;
shapes = (
{
closed = 1;
nodes = (
(405,-42,ls),
(416,-42,o),
(423,-35,o),
(423,-24,cs),
(423,59,l),
(518,79,o),
(594,138,o),
(630,236,cs),
(631,239,o),
(632,242,o),
(632,245,cs),
(632,252,o),
(627,257,o),
(619,259,cs),
(469,296,ls),
(459,298,o),
(452,294,o),
(447,285,cs),
(428,243,o),
(391,225,o),
(350,225,cs),
(275,225,o),
(237,283,o),
(237,356,cs),
(237,429,o),
(275,486,o),
(350,486,cs),
(393,486,o),
(426,469,o),
(447,430,cs),
(451,422,o),
(457,418,o),
(464,418,cs),
(466,418,o),
(468,419,o),
(470,419,c),
(608,458,ls),
(617,460,o),
(621,465,o),
(621,473,cs),
(621,475,o),
(621,478,o),
(620,480,cs),
(587,579,o),
(515,633,o),
(423,653,c),
(423,754,ls),
(423,765,o),
(416,772,o),
(405,772,cs),
(286,772,ls),
(275,772,o),
(268,765,o),
(268,754,cs),
(268,654,l),
(123,627,o),
(34,513,o),
(34,356,cs),
(34,199,o),
(123,84,o),
(268,57,c),
(268,-24,ls),
(268,-35,o),
(275,-42,o),
(286,-42,cs)
);
}
);
vertWidth = 1000;
width = 659;
}
);
note = cid00102;
unicode = 162;
}
{
glyphname = sterling;
kernRight = sterling;
layers = (
{
hints = (
{
horizontal = 1;
place = (-42, 194);
place = (-42, 194);
type = Stem;
},
{
horizontal = 1;
place = (290, 117);
place = (290, 117);
type = Stem;
},
{
horizontal = 1;
place = (593, 195);
place = (593, 195);
type = Stem;
},
{
place = (94, 214);
place = (94, 214);
type = Stem;
},
{
place = (136, 201);
place = (136, 201);
type = Stem;
}
);
layerId = m01;
shapes = (
{
closed = 1;
nodes = (
(635,-42,ls),
(645,-42,o),
(652,-35,o),
(652,-24,cs),
(652,135,ls),
(652,145,o),
(645,152,o),
(635,152,cs),
(293,152,l),
(322,196,o),
(334,242,o),
(337,290,c),
(472,290,ls),
(482,290,o),
(489,296,o),
(489,307,cs),
(489,389,ls),
(489,400,o),
(482,407,o),
(472,407,cs),
(324,407,l),
(316,440,o),
(308,474,o),
(308,504,cs),
(308,562,o),
(337,593,o),
(388,593,cs),
(435,593,o),
(470,568,o),
(491,517,cs),
(495,508,o),
(500,504,o),
(508,504,cs),
(509,504,o),
(511,505,o),
(513,505,c),
(664,547,ls),
(672,549,o),
(677,554,o),
(677,561,cs),
(677,564,o),
(677,566,o),
(676,569,cs),
(631,704,o),
(520,788,o),
(375,788,cs),
(208,788,o),
(94,686,o),
(94,538,cs),
(94,486,o),
(102,445,o),
(111,407,c),
(71,407,ls),
(60,407,o),
(53,400,o),
(53,389,cs),
(53,307,ls),
(53,296,o),
(60,290,o),
(71,290,cs),
(135,290,l),
(136,280,o),
(136,270,o),
(136,259,cs),
(136,188,o),
(114,141,o),
(57,49,cs),
(52,41,o),
(50,35,o),
(50,27,cs),
(50,-24,ls),
(50,-35,o),
(57,-42,o),
(67,-42,cs)
);
}
);
vertWidth = 1000;
width = 709;
}
);
note = cid00103;
unicode = 163;
}
{
glyphname = currency;
layers = (
{
hints = (
{
horizontal = 1;
place = (155, 135);
place = (155, 135);
type = Stem;
},
{
horizontal = 1;
place = (484, 136);
place = (484, 136);
type = Stem;
},
{
place = (93, 155);
place = (93, 155);
type = Stem;
},
{
place = (440, 155);
place = (440, 155);
type = Stem;
}
);
layerId = m01;
shapes = (
{
closed = 1;
nodes = (
(559,672,l),
(556,676,o),
(552,677,o),
(548,677,cs),
(544,677,o),
(539,675,o),
(535,671,cs),
(466,594,l),
(431,611,o),
(389,620,o),
(344,620,cs),
(299,620,o),
(258,611,o),
(222,594,c),
(152,671,ls),
(149,675,o),
(144,677,o),
(139,677,cs),
(136,677,o),
(132,676,o),
(128,672,cs),
(48,601,l),
(44,596,o),
(41,592,o),
(41,587,cs),
(41,583,o),
(43,579,o),
(47,575,cs),
(118,498,l),
(101,466,o),
(93,429,o),
(93,388,cs),
(93,346,o),
(101,308,o),
(119,276,c),
(47,198,l),
(43,195,o),
(41,191,o),
(41,187,cs),
(41,183,o),
(44,178,o),
(48,174,cs),
(128,102,ls),
(132,99,o),
(136,97,o),
(140,97,cs),
(144,97,o),
(149,99,o),
(152,104,c),
(222,181,l),
(258,164,o),
(299,155,o),
(344,155,cs),
(389,155,o),
(431,164,o),
(466,181,c),
(535,104,ls),
(539,100,o),
(544,97,o),
(549,97,cs),
(552,97,o),
(556,99,o),
(559,102,cs),
(639,174,ls),
(643,178,o),
(646,183,o),
(646,187,cs),
(646,191,o),
(644,195,o),
(640,198,c),
(568,276,l),
(586,308,o),
(595,346,o),
(595,388,cs),
(595,429,o),
(586,466,o),
(569,498,c),
(640,575,ls),
(644,579,o),
(646,583,o),
(646,587,cs),
(646,592,o),
(643,596,o),
(639,601,c)
);
},
{
closed = 1;
nodes = (
(248,446,o),
(287,484,o),
(344,484,cs),
(401,484,o),
(440,446,o),
(440,387,cs),
(440,329,o),
(401,290,o),
(344,290,cs),
(287,290,o),
(248,329,o),
(248,387,cs)
);
}
);
vertWidth = 1000;
width = 686;
}
);
note = cid00107;
unicode = 164;
}
{
glyphname = yen;
kernRight = yen;
layers = (
{
hints = (
{
horizontal = 1;
place = (104, 89);
place = (104, 89);
type = Stem;
},
{
horizontal = 1;
place = (250, 88);
place = (250, 88);
type = Stem;
},
{
place = (307, 208);
place = (307, 208);
type = Stem;
},
{
horizontal = 1;
place = (-42, 235);
place = (-42, 235);
type = Stem;
}
);
layerId = m01;
shapes = (
{
closed = 1;
nodes = (
(307,104,l),
(307,-24,ls),
(307,-35,o),
(315,-42,o),
(325,-42,cs),
(497,-42,ls),
(508,-42,o),
(515,-35,o),
(515,-24,cs),
(515,104,l),
(673,104,ls),
(683,104,o),
(690,111,o),
(690,122,cs),
(690,175,ls),
(690,186,o),
(683,193,o),
(673,193,cs),
(515,193,l),
(515,250,l),
(673,250,ls),
(683,250,o),
(690,256,o),
(690,267,cs),
(690,321,ls),
(690,332,o),
(683,338,o),
(673,338,cs),
(562,338,l),
(805,751,ls),
(807,754,o),
(808,758,o),
(808,760,cs),
(808,767,o),
(802,772,o),
(792,772,cs),
(597,772,ls),
(587,772,o),
(580,769,o),
(576,760,cs),
(414,442,l),
(250,760,ls),
(246,768,o),
(240,772,o),
(230,772,cs),
(30,772,ls),
(21,772,o),
(15,767,o),
(15,760,cs),
(15,758,o),
(16,754,o),
(18,751,cs),
(260,338,l),
(150,338,ls),
(139,338,o),
(132,332,o),
(132,321,cs),
(132,267,ls),
(132,256,o),
(139,250,o),
(150,250,cs),
(307,250,l),
(307,193,l),
(150,193,ls),
(139,193,o),
(132,186,o),
(132,175,cs),
(132,122,ls),
(132,111,o),
(139,104,o),
(150,104,cs)
);
}
);
vertWidth = 1000;
width = 823;
}
);
note = cid00061;
unicode = 165;
}
{
glyphname = brokenbar;
layers = (
{
hints = (
{
horizontal = 1;
place = (-164, 375);
place = (-164, 375);
type = Stem;
},
{
horizontal = 1;
place = (416, 374);
place = (416, 374);
type = Stem;
},
{
place = (83, 200);
place = (83, 200);
type = Stem;
}
);
layerId = m01;
shapes = (
{
closed = 1;
nodes = (
(264,-164,ls),
(276,-164,o),
(283,-157,o),
(283,-145,cs),
(283,192,ls),
(283,204,o),
(276,211,o),
(264,211,cs),
(102,211,ls),
(90,211,o),
(83,204,o),
(83,192,cs),
(83,-145,ls),
(83,-157,o),
(90,-164,o),
(102,-164,cs)
);
},
{
closed = 1;
nodes = (
(83,435,ls),
(83,422,o),
(90,416,o),
(102,416,cs),
(264,416,ls),
(276,416,o),
(283,422,o),
(283,435,cs),
(283,771,ls),
(283,783,o),
(276,790,o),
(264,790,cs),
(102,790,ls),
(90,790,o),
(83,783,o),
(83,771,cs)
);
}
);
vertWidth = 1000;
width = 366;
}
);
note = cid00093;
unicode = 166;
}
{
glyphname = section.full;
layers = (
{
hints = (
{
horizontal = 1;
place = (-95, 146);
place = (-95, 146);
type = Stem;
},
{
horizontal = 1;
place = (152, 133);
place = (152, 133);
type = Stem;
},
{
horizontal = 1;
place = (555, -20);
target = down;
type = TopGhost;
},
{
horizontal = 1;
place = (706, 147);
place = (706, 147);
type = Stem;
},
{
place = (252, 156);
place = (252, 156);
type = Stem;
},
{
place = (587, 156);
place = (587, 156);
type = Stem;
},
{
place = (519, 182);
place = (519, 182);
type = Stem;
},
{
horizontal = 1;
place = (468, 134);
place = (468, 134);
type = Stem;
},
{
place = (298, 181);
place = (298, 181);
type = Stem;
}
);
layerId = m01;
shapes = (
{
closed = 1;
nodes = (
(608,-95,o),
(701,-19,o),
(701,84,cs),
(701,131,o),
(687,164,o),
(661,200,c),
(713,240,o),
(743,301,o),
(743,377,cs),
(743,512,o),
(647,602,o),
(498,602,cs),
(496,602,l),
(485,625,o),
(479,647,o),
(479,663,cs),
(479,688,o),
(498,706,o),
(527,706,cs),
(552,706,o),
(568,695,o),
(583,667,c),
(587,657,o),
(595,654,o),
(605,656,cs),
(735,687,ls),
(746,690,o),
(750,697,o),
(746,708,cs),
(712,807,o),
(635,853,o),
(515,853,cs),
(391,853,o),
(298,777,o),
(298,674,cs),
(298,626,o),
(313,593,o),
(341,555,c),
(285,515,o),
(252,452,o),
(252,377,cs),
(252,245,o),
(352,152,o),
(498,152,cs),
(505,152,l),
(514,129,o),
(519,108,o),
(519,93,cs),
(519,70,o),
(501,51,o),
(472,51,cs),
(447,51,o),
(430,63,o),
(416,90,cs),
(412,100,o),
(404,105,o),
(394,102,cs),
(265,70,ls),
(254,67,o),
(249,60,o),
(253,49,cs),
(287,-49,o),
(364,-95,o),
(484,-95,cs)
);
},
{
closed = 1;
nodes = (
(445,285,o),
(408,321,o),
(408,377,cs),
(408,431,o),
(445,468,o),
(498,468,cs),
(550,468,o),
(587,431,o),
(587,377,cs),
(587,321,o),
(550,285,o),
(498,285,cs)
);
}
);
vertWidth = 1000;
width = 1000;
}
);
note = cid00720;
unicode = 167;
}
{
glyphname = dieresis;
layers = (
{
hints = (
{
horizontal = 1;
place = (623, 182);
place = (623, 182);
type = Stem;
},
{
place = (296, 186);
place = (296, 186);
type = Stem;
},
{
place = (518, 186);
place = (518, 186);
type = Stem;
}
);
layerId = m01;
shapes = (
{
closed = 1;
nodes = (
(442,623,o),
(482,659,o),
(482,713,cs),
(482,768,o),
(442,805,o),
(389,805,cs),
(337,805,o),
(296,768,o),
(296,713,cs),
(296,659,o),
(337,623,o),
(389,623,cs)
);
},
{
closed = 1;
nodes = (
(663,623,o),
(704,659,o),
(704,713,cs),
(704,768,o),
(663,805,o),
(611,805,cs),
(558,805,o),
(518,768,o),
(518,713,cs),
(518,659,o),
(558,623,o),
(611,623,cs)
);
}
);
vertWidth = 1000;
width = 1000;
}
);
note = cid00647;
unicode = 168;
}
{
glyphname = copyright;
layers = (
{
hints = (
{
horizontal = 1;
place = (-58, 97);
place = (-58, 97);
type = Stem;
},
{
horizontal = 1;
place = (137, 128);
place = (137, 128);
type = Stem;
},
{
horizontal = 1;
place = (465, 128);
place = (465, 128);
type = Stem;
},
{
horizontal = 1;
place = (691, 97);
place = (691, 97);
type = Stem;
},
{
place = (53, 100);
place = (53, 100);
type = Stem;
},
{
place = (252, 148);
place = (252, 148);
type = Stem;
},
{
place = (798, 101);
place = (798, 101);
type = Stem;
}
);
layerId = m01;
shapes = (
{
closed = 1;
nodes = (
(720,-58,o),
(899,115,o),
(899,365,cs),
(899,615,o),
(720,788,o),
(476,788,cs),
(233,788,o),
(53,615,o),
(53,365,cs),
(53,115,o),
(233,-58,o),
(476,-58,cs)
);
},
{
closed = 1;
nodes = (
(153,562,o),
(286,691,o),
(476,691,cs),
(665,691,o),
(798,562,o),
(798,365,cs),
(798,168,o),
(665,39,o),
(476,39,cs),
(286,39,o),
(153,168,o),
(153,365,cs)
);
},
{
closed = 1;
nodes = (
(252,230,o),
(338,137,o),
(478,137,cs),
(573,137,o),
(657,181,o),
(691,271,c),
(694,282,o),
(690,290,o),
(679,293,cs),
(577,320,ls),
(567,322,o),
(560,318,o),
(556,307,c),
(540,277,o),
(515,265,o),
(486,265,cs),
(429,265,o),
(400,308,o),
(400,365,cs),
(400,420,o),
(428,465,o),
(485,465,cs),
(513,465,o),
(539,453,o),
(555,426,cs),
(559,418,o),
(565,414,o),
(572,414,cs),
(574,414,o),
(576,414,o),
(578,415,c),
(671,440,l),
(679,443,o),
(685,448,o),
(685,456,cs),
(685,458,o),
(684,460,o),
(683,463,cs),
(651,554,o),
(571,593,o),
(477,593,cs),
(338,593,o),
(252,500,o),
(252,365,cs)
);
}
);
vertWidth = 1000;
width = 953;
}
);
note = cid00152;
unicode = 169;
}
{
glyphname = ordfeminine;
layers = (
{
hints = (
{
horizontal = 1;
place = (323, 132);
place = (323, 132);
type = Stem;
},
{
horizontal = 1;
place = (647, 131);
place = (647, 131);
type = Stem;
},
{
place = (30, 160);
place = (30, 160);
type = Stem;
},
{
place = (364.5, 145.5);
place = (364.5, 145.5);
type = Stem;
},
{
horizontal = 1;
place = (331, 124);
place = (331, 124);
type = Stem;
},
{
horizontal = 1;
place = (647, 123);
place = (647, 123);
type = Stem;
},
{
place = (354, 156);
place = (354, 156);
type = Stem;
}
);
layerId = m01;
shapes = (
{
closed = 1;
nodes = (
(365,349,ls),
(366,337,o),
(372,331,o),
(384,331,cs),
(492,331,ls),
(504,331,o),
(510,337,o),
(510,349,cs),
(510,752,ls),
(510,764,o),
(504,770,o),
(492,770,cs),
(384,770,ls),
(372,770,o),
(366,764,o),
(365,752,cs),
(364,717,l),
(331,756,o),
(287,778,o),
(232,778,cs),
(121,778,o),
(30,687,o),
(30,551,cs),
(30,414,o),
(121,323,o),
(232,323,cs),
(287,323,o),
(331,345,o),
(364,384,c)
);
},
{
closed = 1;
nodes = (
(190,608,o),
(223,647,o),
(271,647,cs),
(319,647,o),
(354,608,o),
(354,551,cs),
(354,495,o),
(319,455,o),
(271,455,cs),
(223,455,o),
(190,495,o),
(190,551,cs)
);
}
);
vertWidth = 1000;
width = 535;
}
);
note = cid00140;
unicode = 170;
}
{
glyphname = guillemetleft;
layers = (
{
hints = (
{
horizontal = 1;
place = (19, 581);
place = (19, 581);
type = Stem;
},
{
place = (60, 671);
place = (60, 671);
type = Stem;
}
);
layerId = m01;
shapes = (
{
closed = 1;
nodes = (
(708,23,ls),
(712,20,o),
(715,19,o),
(719,19,cs),
(726,19,o),
(731,25,o),
(731,36,cs),
(731,195,ls),
(731,205,o),
(727,213,o),
(718,218,cs),
(571,310,l),
(718,402,ls),
(727,407,o),
(731,415,o),
(731,425,cs),
(731,584,ls),
(731,594,o),
(725,599,o),
(718,599,cs),
(715,599,o),
(712,598,o),
(708,596,c),
(309,321,ls),
(298,313,o),
(298,307,o),
(309,299,cs)
);
},
{
closed = 1;
nodes = (
(397,23,ls),
(401,20,o),
(405,19,o),
(409,19,cs),
(415,19,o),
(420,25,o),
(420,36,cs),
(420,170,ls),
(420,180,o),
(416,187,o),
(407,193,cs),
(238,310,l),
(407,427,ls),
(416,433,o),
(420,440,o),
(420,450,cs),
(420,584,ls),
(420,595,o),
(415,600,o),
(409,600,cs),
(405,600,o),
(401,599,o),
(397,596,cs),
(72,366,ls),
(64,360,o),
(60,354,o),
(60,343,cs),
(60,276,ls),
(60,265,o),
(64,259,o),
(72,253,cs)
);
}
);
vertWidth = 1000;
width = 801;
}
);
note = cid00109;
unicode = 171;
}
{
glyphname = logicalnot;
layers = (
{
hints = (
{
horizontal = 1;
place = (259, 176);
place = (259, 176);
type = Stem;
},
{
place = (395, 184);
place = (395, 184);
type = Stem;
}
);
layerId = m01;
shapes = (
{
closed = 1;
nodes = (
(561,57,ls),
(572,57,o),
(579,63,o),
(579,74,cs),
(579,417,ls),
(579,428,o),
(572,435,o),
(561,435,cs),
(73,435,ls),
(63,435,o),
(55,428,o),
(55,417,cs),
(55,275,ls),
(55,265,o),
(63,259,o),
(73,259,cs),
(395,259,l),
(395,74,ls),
(395,63,o),
(401,57,o),
(414,57,cs)
);
}
);
vertWidth = 1000;
width = 665;
}
);
note = cid00153;
unicode = 172;
}
{
glyphname = registered;
layers = (
{
hints = (
{
horizontal = 1;
place = (214, 67);
place = (214, 67);
type = Stem;
},
{
horizontal = 1;
place = (449.5, 65.5);
place = (449.5, 65.5);
type = Stem;
},
{
horizontal = 1;
place = (587, 66);
place = (587, 66);
type = Stem;
},
{
horizontal = 1;
place = (731, 67);
place = (731, 67);
type = Stem;
},
{
place = (53, 68);
place = (53, 68);
type = Stem;
},
{
place = (236, 81);
place = (236, 81);
type = Stem;
},
{
place = (376, 83);
place = (376, 83);
type = Stem;
},
{
place = (563, 69);
place = (563, 69);
type = Stem;
}
);
layerId = m01;
shapes = (
{
closed = 1;
nodes = (
(511,214,o),
(632,333,o),
(632,506,cs),
(632,679,o),
(511,798,o),
(343,798,cs),
(173,798,o),
(53,679,o),
(53,506,cs),
(53,333,o),
(173,214,o),
(343,214,cs)
);
},
{
closed = 1;
nodes = (
(121,636,o),
(204,731,o),
(343,731,cs),
(481,731,o),
(563,636,o),
(563,506,cs),
(563,376,o),
(481,281,o),
(343,281,cs),
(204,281,o),
(121,376,o),
(121,506,cs)
);
},
{
closed = 1;
nodes = (
(236,389,ls),
(236,381,o),
(241,377,o),
(248,377,cs),
(305,377,ls),
(313,377,o),
(317,381,o),
(317,389,cs),
(317,449,l),
(356,450,l),
(383,386,ls),
(386,380,o),
(390,377,o),
(397,377,cs),
(454,377,ls),
(461,377,o),
(464,380,o),
(464,385,cs),
(464,387,o),
(464,389,o),
(463,391,cs),
(421,474,l),
(450,495,o),
(459,522,o),
(459,554,cs),
(459,618,o),
(422,653,o),
(339,653,cs),
(248,653,ls),
(241,653,o),
(236,649,o),
(236,641,cs)
);
},
{
closed = 1;
nodes = (
(317,515,l),
(317,587,l),
(338,587,ls),
(363,587,o),
(376,578,o),
(376,550,cs),
(376,524,o),
(363,515,o),
(338,515,cs)
);
}
);
vertWidth = 1000;
width = 685;
}
);
note = cid00154;
unicode = 174;
}
{
glyphname = macroncomb;
layers = (
{
hints = (
{
horizontal = 1;
place = (642, 143);
place = (642, 143);
type = Stem;
},
{
place = (60, 380);
place = (60, 380);
type = Stem;
}
);
layerId = m01;
shapes = (
{
closed = 1;
nodes = (
(78,785,ls),
(66,785,o),
(60,779,o),
(60,767,cs),
(60,660,ls),
(60,648,o),
(66,642,o),
(78,642,cs),
(422,642,ls),
(434,642,o),
(440,648,o),
(440,660,cs),
(440,767,ls),
(440,779,o),
(434,785,o),
(422,785,cs)
);
}
);
vertWidth = 1000;
width = 500;
}
);
note = cid00129;
unicode = (175,772);
}
{
glyphname = degree.full;
layers = (
{
hints = (
{
horizontal = 1;
place = (581, 85);
place = (581, 85);
type = Stem;
},
{
horizontal = 1;
place = (779, 86);
place = (779, 86);
type = Stem;
},
{
place = (11, 86);
place = (11, 86);
type = Stem;
},
{
place = (210, 85);
place = (210, 85);
type = Stem;
}
);
layerId = m01;
shapes = (
{
closed = 1;
nodes = (
(74,865,o),
(11,801,o),
(11,723,cs),
(11,644,o),
(75,581,o),
(154,581,cs),
(232,581,o),
(295,644,o),
(295,723,cs),
(295,802,o),
(232,865,o),
(154,865,cs)
);
},
{
closed = 1;
nodes = (
(184,779,o),
(210,754,o),
(210,723,cs),
(210,692,o),
(185,666,o),
(153,666,cs),
(122,666,o),
(97,692,o),
(97,723,cs),
(97,754,o),
(122,779,o),
(153,779,cs)
);
}
);
vertWidth = 1000;
width = 1000;
}
);
note = cid00707;
unicode = 176;
}
{
glyphname = plusminus.full;
layers = (
{
hints = (
{
horizontal = 1;
place = (-18, 170);
place = (-18, 170);
type = Stem;
},
{
horizontal = 1;
place = (369, 166);
place = (369, 166);
type = Stem;
},
{
place = (412, 176);
place = (412, 176);
type = Stem;
}
);
layerId = m01;
shapes = (
{
closed = 1;
nodes = (
(181,388,ls),
(181,375,o),
(188,369,o),
(200,369,cs),
(412,369,l),
(412,211,ls),
(412,199,o),
(419,192,o),
(431,192,cs),
(569,192,ls),
(581,192,o),
(588,199,o),
(588,211,cs),
(588,369,l),
(800,369,ls),
(812,369,o),
(819,375,o),
(819,388,cs),
(819,516,ls),
(819,528,o),
(812,535,o),
(800,535,cs),
(588,535,l),
(588,699,ls),
(588,712,o),
(581,718,o),
(569,718,cs),
(431,718,ls),
(419,718,o),
(412,712,o),
(412,699,cs),
(412,535,l),
(200,535,ls),
(188,535,o),
(181,528,o),
(181,516,cs)
);
},
{
closed = 1;
nodes = (
(181,1,ls),
(181,-11,o),
(188,-18,o),
(200,-18,cs),
(800,-18,ls),
(812,-18,o),
(819,-11,o),
(819,1,cs),
(819,133,ls),
(819,145,o),
(812,152,o),
(800,152,cs),
(200,152,ls),
(188,152,o),
(181,145,o),
(181,133,cs)
);
}
);
vertWidth = 1000;
width = 1000;
}
);
note = cid00694;
unicode = 177;
}
{
glyphname = twosuperior;
layers = (
{
hints = (
{
horizontal = 1;
place = (326, 116);
place = (326, 116);
type = Stem;
},
{
horizontal = 1;
place = (660, 123);
place = (660, 123);
type = Stem;
},
{
place = (245, 148);
place = (245, 148);
type = Stem;
}
);
layerId = m01;
shapes = (
{
closed = 1;
nodes = (
(387,326,ls),
(397,326,o),
(403,333,o),
(403,343,cs),
(403,427,ls),
(403,437,o),
(397,442,o),
(387,442,cs),
(256,442,l),
(341,508,o),
(393,567,o),
(393,639,cs),
(393,726,o),
(322,783,o),
(220,783,cs),
(132,783,o),
(62,732,o),
(37,653,cs),
(34,642,o),
(39,635,o),
(49,633,cs),
(138,610,ls),
(147,608,o),
(155,611,o),
(159,621,cs),
(172,648,o),
(186,660,o),
(209,660,cs),
(229,660,o),
(245,648,o),
(245,624,cs),
(245,597,o),
(224,561,o),
(172,508,cs),
(51,381,ls),
(46,376,o),
(43,369,o),
(43,361,cs),
(43,343,ls),
(43,333,o),
(50,326,o),
(60,326,cs)
);
}
);
vertWidth = 1000;
width = 456;
}
);
note = cid00157;
unicode = 178;
}
{
glyphname = threesuperior;
layers = (
{
hints = (
{
horizontal = 1;
place = (315, 115);
place = (315, 115);
type = Stem;
},
{
horizontal = 1;
place = (513, 89);
place = (513, 89);
type = Stem;
},
{
horizontal = 1;
place = (671, 112);
place = (671, 112);
type = Stem;
},
{
place = (260, 146);
place = (260, 146);
type = Stem;
},
{
place = (254, 142);
place = (254, 142);
type = Stem;
},
{
place = (172, 224);
place = (172, 224);
type = Stem;
}
);
layerId = m01;
shapes = (
{
closed = 1;
nodes = (
(319,315,o),
(406,369,o),
(406,456,cs),
(406,510,o),
(377,542,o),
(330,559,c),
(372,580,o),
(396,619,o),
(396,658,cs),
(396,739,o),
(322,783,o),
(220,783,cs),
(132,783,o),
(67,742,o),
(42,672,cs),
(38,663,o),
(43,656,o),
(53,652,c),
(138,630,ls),
(146,628,o),
(153,631,o),
(157,640,c),
(170,660,o),
(187,671,o),
(212,671,cs),
(234,671,o),
(254,659,o),
(254,638,cs),
(254,617,o),
(240,602,o),
(204,602,cs),
(187,602,ls),
(177,602,o),
(172,597,o),
(172,587,cs),
(172,528,ls),
(172,518,o),
(177,513,o),
(187,513,cs),
(204,513,ls),
(241,513,o),
(260,495,o),
(260,471,cs),
(260,445,o),
(237,430,o),
(207,430,cs),
(177,430,o),
(155,445,o),
(141,473,c),
(136,480,o),
(131,484,o),
(124,484,cs),
(123,484,o),
(122,483,o),
(120,483,c),
(38,460,ls),
(30,458,o),
(26,453,o),
(26,448,cs),
(26,446,o),
(26,444,o),
(27,442,cs),
(51,369,o),
(112,315,o),
(218,315,cs)
);
}
);
vertWidth = 1000;
width = 456;
}
);
note = cid00158;
unicode = 179;
}
{
glyphname = acute.full;
layers = (
{
hints = (
{
horizontal = 1;
place = (614, 191);
place = (614, 191);
type = Stem;
},
{
place = (354, 292);
place = (354, 292);
type = Stem;
}
);
layerId = m01;
shapes = (
{
closed = 1;
nodes = (
(514,614,ls),
(522,614,o),
(528,617,o),
(533,624,cs),
(643,786,l),
(645,790,o),
(646,793,o),
(646,796,cs),
(646,801,o),
(642,805,o),
(633,805,cs),
(456,805,ls),
(447,805,o),
(441,801,o),
(437,793,cs),
(356,633,l),
(355,630,o),
(354,627,o),
(354,625,cs),
(354,618,o),
(358,614,o),
(367,614,cs)
);
}
);
vertWidth = 1000;
width = 1000;
}
);
note = cid00645;
unicode = 180;
}
{
glyphname = micro;
layers = (
{
hints = (
{
horizontal = 1;
place = (-284, 21);
target = up;
type = BottomGhost;
},
{
horizontal = 1;
place = (-17, 21);
target = up;
type = BottomGhost;
},
{
place = (60, 200);
place = (60, 200);
type = Stem;
},
{
place = (450, 200);
place = (450, 200);
type = Stem;
},
{
horizontal = 1;
place = (-53, 175);
place = (-53, 175);
type = Stem;
}
);
layerId = m01;
shapes = (
{
closed = 1;
nodes = (
(713,-40,o),
(720,-33,o),
(720,-19,cs),
(720,93,ls),
(720,106,o),
(714,112,o),
(700,110,cs),
(666,106,o),
(650,114,o),
(650,139,cs),
(650,530,ls),
(650,540,o),
(643,547,o),
(632,547,cs),
(468,547,ls),
(457,547,o),
(450,540,o),
(450,529,cs),
(450,242,ls),
(450,155,o),
(410,122,o),
(352,122,cs),
(294,122,o),
(260,155,o),
(260,237,cs),
(260,530,ls),
(260,539,o),
(255,545,o),
(242,547,c),
(78,547,ls),
(68,547,o),
(60,541,o),
(60,530,cs),
(60,-266,ls),
(60,-277,o),
(67,-284,o),
(78,-284,cs),
(242,-284,ls),
(253,-284,o),
(260,-277,o),
(260,-266,cs),
(260,-17,l),
(280,-38,o),
(316,-53,o),
(360,-53,cs),
(429,-53,o),
(486,-15,o),
(506,39,c),
(524,-11,o),
(574,-46,o),
(642,-46,cs),
(654,-46,o),
(677,-45,o),
(700,-42,cs)
);
}
);
vertWidth = 1000;
width = 735;
}
);
note = cid00159;
unicode = 181;
}
{
glyphname = paragraph.full;
layers = (
{
hints = (
{
horizontal = 1;
place = (693, 132);
place = (693, 132);
type = Stem;
},
{
place = (394, 142);
place = (394, 142);
type = Stem;
},
{
place = (599, 142);
place = (599, 142);
type = Stem;
}
);
layerId = m01;
shapes = (
{
closed = 1;
nodes = (
(518,-89,ls),
(529,-89,o),
(536,-82,o),
(536,-71,cs),
(536,693,l),
(599,693,l),
(599,-71,ls),
(599,-82,o),
(606,-89,o),
(617,-89,cs),
(723,-89,ls),
(735,-89,o),
(741,-82,o),
(741,-71,cs),
(741,807,ls),
(741,818,o),
(735,825,o),
(723,825,cs),
(428,825,ls),
(278,825,o),
(138,724,o),
(138,534,cs),
(138,359,o),
(257,259,o),
(394,245,c),
(394,-71,ls),
(394,-82,o),
(401,-89,o),
(412,-89,cs)
);
}
);
vertWidth = 1000;
width = 1000;
}
);
note = cid00778;
unicode = 182;
}
{
glyphname = periodcentered;
layers = (
{
hints = (
{
horizontal = 1;
place = (229, 221);
place = (229, 221);
type = Stem;
},
{
place = (79, 232);
place = (79, 232);
type = Stem;
}
);
layerId = m01;
shapes = (
{
closed = 1;
nodes = (
(261,229,o),
(311,274,o),
(311,339,cs),
(311,405,o),
(261,450,o),
(195,450,cs),
(130,450,o),
(79,405,o),
(79,339,cs),
(79,274,o),
(130,229,o),
(195,229,cs)
);
}
);
vertWidth = 1000;
width = 384;
}
);
note = cid00117;
unicode = (183,8729);
}
{
glyphname = cedillacomb;
layers = (
{
hints = (
{
horizontal = 1;
place = (-333, 116);
place = (-333, 116);
type = Stem;
},
{
horizontal = 1;
place = (-172, 175);
place = (-172, 175);
type = Stem;
},
{
place = (234, 148);
place = (234, 148);
type = Stem;
}
);
layerId = m01;
shapes = (
{
closed = 1;
nodes = (
(279,-14,ls),
(282,-2,o),
(278,3,o),
(266,3,cs),
(161,3,ls),
(149,3,o),
(141,-2,o),
(138,-14,cs),
(95,-155,ls),
(92,-167,o),
(96,-172,o),
(108,-172,cs),
(136,-172,o),
(162,-172,o),
(185,-174,cs),
(212,-176,o),
(234,-183,o),
(234,-197,cs),
(234,-211,o),
(209,-217,o),
(177,-217,cs),
(146,-217,o),
(109,-212,o),
(79,-208,cs),
(67,-206,o),
(62,-212,o),
(63,-224,cs),
(69,-298,ls),
(70,-310,o),
(77,-318,o),
(88,-321,cs),
(119,-329,o),
(157,-333,o),
(189,-333,cs),
(301,-333,o),
(382,-276,o),
(382,-198,cs),
(382,-128,o),
(319,-93,o),
(260,-84,c)
);
}
);
vertWidth = 1000;
width = 439;
}
);
note = cid00134;
unicode = (184,807);
}
{
glyphname = onesuperior;
layers = (
{
hints = (
{
horizontal = 1;
place = (326, 446);
place = (326, 446);
type = Stem;
},
{
place = (182, 144);
place = (182, 144);
type = Stem;
}
);
layerId = m01;
shapes = (
{
closed = 1;
nodes = (
(311,326,ls),
(321,326,o),
(326,333,o),
(326,343,cs),
(326,755,ls),
(326,765,o),
(321,772,o),
(311,772,cs),
(241,772,ls),
(233,772,o),
(226,770,o),
(221,765,c),
(68,647,l),
(63,642,o),
(61,637,o),
(61,631,cs),
(61,628,o),
(61,626,o),
(62,623,c),
(79,590,ls),
(82,583,o),
(88,580,o),
(94,580,cs),
(96,580,o),
(98,581,o),
(100,581,c),
(182,607,l),
(182,343,ls),
(182,333,o),
(189,326,o),
(199,326,cs)
);
}
);
vertWidth = 1000;
width = 456;
}
);
note = cid00160;
unicode = 185;
}
{
glyphname = ordmasculine;
layers = (
{
hints = (
{
horizontal = 1;
place = (308, 143);
place = (308, 143);
type = Stem;
},
{
horizontal = 1;
place = (650, 143);
place = (650, 143);
type = Stem;
},
{
place = (30, 160);
place = (30, 160);
type = Stem;
},
{
place = (362, 160);
place = (362, 160);
type = Stem;
}
);
layerId = m01;
shapes = (
{
closed = 1;
nodes = (
(425,308,o),
(522,407,o),
(522,551,cs),
(522,694,o),
(425,793,o),
(276,793,cs),
(127,793,o),
(30,694,o),
(30,551,cs),
(30,407,o),
(127,308,o),
(276,308,cs)
);
},
{
closed = 1;
nodes = (
(190,609,o),
(225,650,o),
(276,650,cs),
(327,650,o),
(362,609,o),
(362,551,cs),
(362,492,o),
(327,451,o),
(276,451,cs),
(225,451,o),
(190,492,o),
(190,551,cs)
);
}
);
vertWidth = 1000;
width = 552;
}
);
note = cid00144;
unicode = 186;
}
{
glyphname = guillemetright;
layers = (
{
hints = (
{
horizontal = 1;
place = (19, 581);
place = (19, 581);
type = Stem;
},
{
place = (70, 671);
place = (70, 671);
type = Stem;
}
);
layerId = m01;
shapes = (
{
closed = 1;
nodes = (
(492,299,ls),
(503,307,o),
(503,313,o),
(492,321,cs),
(93,596,ls),
(90,598,o),
(86,599,o),
(83,599,cs),
(76,599,o),
(70,594,o),
(70,584,cs),
(70,425,ls),
(70,415,o),
(74,407,o),
(83,402,cs),
(230,310,l),
(83,218,ls),
(74,213,o),
(70,205,o),
(70,195,cs),
(70,36,ls),
(70,25,o),
(75,19,o),
(82,19,cs),
(86,19,o),
(89,20,o),
(93,23,cs)
);
},
{
closed = 1;
nodes = (
(729,253,ls),
(737,259,o),
(741,265,o),
(741,276,cs),
(741,343,ls),
(741,354,o),
(737,360,o),
(729,366,cs),
(404,596,ls),
(400,599,o),
(396,600,o),
(392,600,cs),
(386,600,o),
(381,595,o),
(381,584,cs),
(381,450,ls),
(381,440,o),
(385,433,o),
(394,427,cs),
(563,310,l),
(394,193,ls),
(385,187,o),
(381,180,o),
(381,170,cs),
(381,36,ls),
(381,25,o),
(386,19,o),
(392,19,cs),
(396,19,o),
(400,20,o),
(404,23,cs)
);
}
);
vertWidth = 1000;
width = 801;
}
);
note = cid00123;
unicode = 187;
}
{
glyphname = onequarter;
layers = (
{
hints = (
{
horizontal = 1;
place = (35, 93);
place = (35, 93);
type = Stem;
},
{
place = (182, 144);
place = (182, 144);
type = Stem;
},
{
place = (820, 133);
place = (820, 133);
type = Stem;
}
);
layerId = m01;
shapes = (
{
closed = 1;
nodes = (
(79,590,ls),
(82,583,o),
(88,580,o),
(94,580,cs),
(96,580,o),
(98,581,o),
(100,581,c),
(182,607,l),
(182,343,ls),
(182,333,o),
(189,326,o),
(199,326,cs),
(311,326,ls),
(321,326,o),
(326,333,o),
(326,343,cs),
(326,755,ls),
(326,765,o),
(321,772,o),
(311,772,cs),
(241,772,ls),
(233,772,o),
(226,770,o),
(221,765,c),
(68,647,ls),
(63,643,o),
(60,638,o),
(60,632,cs),
(60,629,o),
(61,626,o),
(62,623,c)
);
},
{
closed = 1;
nodes = (
(356,-42,ls),
(365,-42,o),
(372,-38,o),
(377,-30,cs),
(887,751,ls),
(889,755,o),
(891,758,o),
(891,761,cs),
(891,768,o),
(885,772,o),
(875,772,cs),
(749,772,ls),
(740,772,o),
(733,768,o),
(728,760,cs),
(217,-21,ls),
(215,-25,o),
(214,-28,o),
(214,-31,cs),
(214,-38,o),
(219,-42,o),
(230,-42,cs)
);
},
{
closed = 1;
nodes = (
(599,51,ls),
(599,41,o),
(604,35,o),
(614,35,cs),
(820,35,l),
(820,-25,ls),
(820,-35,o),
(825,-42,o),
(835,-42,cs),
(936,-42,ls),
(946,-42,o),
(953,-35,o),
(953,-25,cs),
(953,35,l),
(994,35,ls),
(1004,35,o),
(1010,41,o),
(1010,51,cs),
(1010,112,ls),
(1010,122,o),
(1004,128,o),
(994,128,cs),
(953,128,l),
(953,387,ls),
(953,397,o),
(946,404,o),
(936,404,cs),
(862,404,ls),
(853,404,o),
(847,402,o),
(842,394,c),
(606,91,ls),
(600,84,o),
(599,79,o),
(599,71,cs)
);
},
{
closed = 1;
nodes = (
(820,128,l),
(740,128,l),
(820,230,l)
);
}
);
vertWidth = 1000;
width = 1044;
}
);
note = cid00161;
unicode = 188;
}
{
glyphname = onehalf;
layers = (
{
hints = (
{
horizontal = 1;
place = (-42, 116);
place = (-42, 116);
type = Stem;
},
{
horizontal = 1;
place = (292, 123);
place = (292, 123);
type = Stem;
},
{
place = (182, 144);
place = (182, 144);
type = Stem;
},
{
place = (833, 148);
place = (833, 148);
type = Stem;
}
);
layerId = m01;
shapes = (
{
closed = 1;
nodes = (
(312,-42,ls),
(321,-42,o),
(327,-38,o),
(333,-30,cs),
(843,751,ls),
(845,755,o),
(847,758,o),
(847,761,cs),
(847,768,o),
(841,772,o),
(831,772,cs),
(704,772,ls),
(695,772,o),
(689,768,o),
(683,760,cs),
(173,-21,ls),
(171,-25,o),
(169,-28,o),
(169,-31,cs),
(169,-38,o),
(175,-42,o),
(185,-42,cs)
);
},
{
closed = 1;
nodes = (
(79,590,ls),
(82,583,o),
(88,580,o),
(94,580,cs),
(96,580,o),
(98,581,o),
(100,581,c),
(182,607,l),
(182,343,ls),
(182,333,o),
(189,326,o),
(199,326,cs),
(311,326,ls),
(321,326,o),
(326,333,o),
(326,343,cs),
(326,755,ls),
(326,765,o),
(321,772,o),
(311,772,cs),
(241,772,ls),
(233,772,o),
(226,770,o),
(221,765,c),
(68,647,l),
(63,642,o),
(61,637,o),
(61,631,cs),
(61,628,o),
(61,626,o),
(62,623,c)
);
},
{
closed = 1;
nodes = (
(622,274,o),
(627,267,o),
(637,265,cs),
(726,242,ls),
(735,240,o),
(743,243,o),
(747,253,cs),
(760,280,o),
(774,292,o),
(797,292,cs),
(817,292,o),
(833,280,o),
(833,256,cs),
(833,229,o),
(812,193,o),
(760,140,cs),
(639,13,ls),
(634,8,o),
(631,1,o),
(631,-7,cs),
(631,-25,ls),
(631,-35,o),
(638,-42,o),
(648,-42,cs),
(975,-42,ls),
(985,-42,o),
(991,-35,o),
(991,-25,cs),
(991,59,ls),
(991,69,o),
(985,74,o),
(975,74,cs),
(844,74,l),
(929,140,o),
(981,199,o),
(981,271,cs),
(981,358,o),
(910,415,o),
(808,415,cs),
(720,415,o),
(650,364,o),
(625,285,cs)
);
}
);
vertWidth = 1000;
width = 1044;
}
);
note = cid00162;
unicode = 189;
}
{
glyphname = threequarters;
layers = (
{
hints = (
{
horizontal = 1;
place = (35, 93);
place = (35, 93);
type = Stem;
},
{
horizontal = 1;
place = (315, 115);
place = (315, 115);
type = Stem;
},
{
horizontal = 1;
place = (671, 112);
place = (671, 112);
type = Stem;
},
{
place = (260, 146);
place = (260, 146);
type = Stem;
},
{
place = (820, 133);
place = (820, 133);
type = Stem;
},
{
horizontal = 1;
place = (513, 89);
place = (513, 89);
type = Stem;
},
{
place = (254, 142);
place = (254, 142);
type = Stem;
},
{
place = (172, 224);
place = (172, 224);
type = Stem;
}
);
layerId = m01;
shapes = (
{
closed = 1;
nodes = (
(319,315,o),
(406,369,o),
(406,456,cs),
(406,510,o),
(377,542,o),
(330,559,c),
(372,580,o),
(396,619,o),
(396,658,cs),
(396,739,o),
(322,783,o),
(220,783,cs),
(132,783,o),
(67,742,o),
(42,672,cs),
(38,663,o),
(43,656,o),
(53,652,c),
(138,630,ls),
(146,628,o),
(153,631,o),
(157,640,c),
(170,660,o),
(187,671,o),
(212,671,cs),
(234,671,o),
(254,659,o),
(254,638,cs),
(254,617,o),
(240,602,o),
(204,602,cs),
(187,602,ls),
(177,602,o),
(172,597,o),
(172,587,cs),
(172,528,ls),
(172,518,o),
(177,513,o),
(187,513,cs),
(204,513,ls),
(241,513,o),
(260,495,o),
(260,471,cs),
(260,445,o),
(237,430,o),
(207,430,cs),
(177,430,o),
(155,445,o),
(141,473,c),
(136,480,o),
(131,484,o),
(124,484,cs),
(123,484,o),
(122,483,o),
(120,483,c),
(38,460,ls),
(30,458,o),
(26,453,o),
(26,448,cs),
(26,446,o),
(26,444,o),
(27,442,cs),
(51,369,o),
(112,315,o),
(218,315,cs)
);
},
{
closed = 1;
nodes = (
(217,-21,ls),
(215,-25,o),
(214,-28,o),
(214,-31,cs),
(214,-38,o),
(219,-42,o),
(230,-42,cs),
(356,-42,ls),
(365,-42,o),
(372,-38,o),
(377,-30,cs),
(887,751,ls),
(889,755,o),
(891,758,o),
(891,761,cs),
(891,768,o),
(885,772,o),
(875,772,cs),
(749,772,ls),
(740,772,o),
(733,768,o),
(728,760,cs)
);
},
{
closed = 1;
nodes = (
(599,51,ls),
(599,41,o),
(604,35,o),
(614,35,cs),
(820,35,l),
(820,-25,ls),
(820,-35,o),
(825,-42,o),
(835,-42,cs),
(936,-42,ls),
(946,-42,o),
(953,-35,o),
(953,-25,cs),
(953,35,l),
(994,35,ls),
(1004,35,o),
(1010,41,o),
(1010,51,cs),
(1010,112,ls),
(1010,122,o),
(1004,128,o),
(994,128,cs),
(953,128,l),
(953,387,ls),
(953,397,o),
(946,404,o),
(936,404,cs),
(862,404,ls),
(853,404,o),
(847,402,o),
(842,394,c),
(606,91,ls),
(600,84,o),
(599,79,o),
(599,71,cs)
);
},
{
closed = 1;
nodes = (
(820,128,l),
(740,128,l),
(820,230,l)
);
}
);
vertWidth = 1000;
width = 1044;
}
);
note = cid00163;
unicode = 190;
}
{
glyphname = questiondown;
layers = (
{
hints = (
{
horizontal = 1;
place = (-241, 185);
place = (-241, 185);
type = Stem;
},
{
horizontal = 1;
place = (130, 195);
place = (130, 195);
type = Stem;
},
{
horizontal = 1;
place = (385, 215);
place = (385, 215);
type = Stem;
},
{
place = (246, 192);
place = (246, 192);
type = Stem;
},
{
place = (43, 205);
place = (43, 205);
type = Stem;
},
{
place = (230, 226);
place = (230, 226);
type = Stem;
}
);
layerId = m01;
shapes = (
{
closed = 1;
nodes = (
(263,325,ls),
(253,325,o),
(246,318,o),
(246,307,cs),
(244,251,l),
(116,221,o),
(43,121,o),
(43,3,cs),
(43,-144,o),
(159,-241,o),
(324,-241,cs),
(461,-241,o),
(573,-170,o),
(619,-43,cs),
(623,-32,o),
(617,-24,o),
(607,-21,cs),
(453,16,ls),
(443,18,o),
(436,13,o),
(430,5,c),
(410,-35,o),
(379,-56,o),
(334,-56,cs),
(281,-56,o),
(248,-24,o),
(248,26,cs),
(248,88,o),
(285,130,o),
(392,130,cs),
(425,130,ls),
(435,130,o),
(442,137,o),
(442,148,cs),
(438,307,ls),
(438,318,o),
(432,325,o),
(421,325,cs)
);
},
{
closed = 1;
nodes = (
(456,557,o),
(406,600,o),
(343,600,cs),
(280,600,o),
(230,557,o),
(230,493,cs),
(230,428,o),
(280,385,o),
(343,385,cs),
(406,385,o),
(456,428,o),
(456,493,cs)
);
}
);
vertWidth = 1000;
width = 637;
}
);
note = cid00126;
unicode = 191;
}
{
glyphname = Agrave;
layers = (
{
hints = (
{
horizontal = 1;
place = (98, 168);
place = (98, 168);
type = Stem;
},
{
horizontal = 1;
place = (838, 191);
place = (838, 191);
type = Stem;
},
{
place = (15, 824);
place = (15, 824);
type = Stem;
}
);
layerId = m01;
shapes = (
{
closed = 1;
nodes = (
(213,-42,ls),
(223,-42,o),
(230,-38,o),
(233,-28,cs),
(277,98,l),
(573,98,l),
(618,-28,ls),
(621,-38,o),
(628,-42,o),
(638,-42,cs),
(824,-42,ls),
(833,-42,o),
(839,-37,o),
(839,-29,cs),
(839,-27,o),
(838,-25,o),
(837,-22,cs),
(517,759,ls),
(513,768,o),
(507,772,o),
(497,772,cs),
(357,772,ls),
(348,772,o),
(340,768,o),
(337,759,cs),
(17,-22,ls),
(12,-33,o),
(18,-42,o),
(31,-42,cs)
);
},
{
closed = 1;
nodes = (
(513,266,l),
(336,266,l),
(424,517,l)
);
},
{
closed = 1;
nodes = (
(530,838,ls),
(539,838,o),
(543,842,o),
(543,849,cs),
(543,851,o),
(543,854,o),
(541,857,cs),
(460,1017,ls),
(456,1025,o),
(450,1029,o),
(441,1029,cs),
(264,1029,ls),
(255,1029,o),
(251,1025,o),
(251,1020,cs),
(251,1017,o),
(252,1014,o),
(254,1010,c),
(364,848,ls),
(369,841,o),
(375,838,o),
(383,838,cs)
);
}
);
vertWidth = 1000;
width = 854;
}
);
note = cid00164;
unicode = 192;
}
{
glyphname = Aacute;
layers = (
{
hints = (
{
horizontal = 1;
place = (98, 168);
place = (98, 168);
type = Stem;
},
{
horizontal = 1;
place = (838, 191);
place = (838, 191);
type = Stem;
},
{
place = (15, 824);
place = (15, 824);
type = Stem;
}
);
layerId = m01;
shapes = (
{
closed = 1;
nodes = (
(213,-42,ls),
(223,-42,o),
(230,-38,o),
(233,-28,cs),
(277,98,l),
(573,98,l),
(618,-28,ls),
(621,-38,o),
(628,-42,o),
(638,-42,cs),
(824,-42,ls),
(833,-42,o),
(839,-37,o),
(839,-29,cs),
(839,-27,o),
(838,-25,o),
(837,-22,cs),
(517,759,ls),
(513,768,o),
(507,772,o),
(497,772,cs),
(357,772,ls),
(348,772,o),
(340,768,o),
(337,759,cs),
(17,-22,ls),
(12,-33,o),
(18,-42,o),
(31,-42,cs)
);
},
{
closed = 1;
nodes = (
(513,266,l),
(336,266,l),
(424,517,l)
);
},
{
closed = 1;
nodes = (
(471,838,ls),
(479,838,o),
(485,841,o),
(490,848,cs),
(600,1010,l),
(602,1014,o),
(603,1017,o),
(603,1020,cs),
(603,1025,o),
(599,1029,o),
(590,1029,cs),
(413,1029,ls),
(404,1029,o),
(398,1025,o),
(394,1017,cs),
(313,857,l),
(312,854,o),
(311,851,o),
(311,849,cs),
(311,842,o),
(315,838,o),
(324,838,cs)
);
}
);
vertWidth = 1000;
width = 854;
}
);
note = cid00165;
unicode = 193;
}
{
glyphname = Acircumflex;
layers = (
{
hints = (
{
horizontal = 1;
place = (98, 168);
place = (98, 168);
type = Stem;
},
{
horizontal = 1;
place = (838, 196);
place = (838, 196);
type = Stem;
},
{
place = (15, 824);
place = (15, 824);
type = Stem;
}
);
layerId = m01;
shapes = (
{
closed = 1;
nodes = (
(213,-42,ls),
(223,-42,o),
(230,-38,o),
(233,-28,cs),
(277,98,l),
(573,98,l),
(618,-28,ls),
(621,-38,o),
(628,-42,o),
(638,-42,cs),
(824,-42,ls),
(833,-42,o),
(839,-37,o),
(839,-29,cs),
(839,-27,o),
(838,-25,o),
(837,-22,cs),
(517,759,ls),
(513,768,o),
(507,772,o),
(497,772,cs),
(357,772,ls),
(348,772,o),
(340,768,o),
(337,759,cs),
(17,-22,ls),
(12,-33,o),
(18,-42,o),
(31,-42,cs)
);
},
{
closed = 1;
nodes = (
(427,918,l),
(466,853,ls),
(472,843,o),
(481,838,o),
(493,838,cs),
(635,838,ls),
(647,838,o),
(649,843,o),
(642,852,cs),
(518,1020,ls),
(511,1029,o),
(501,1034,o),
(489,1034,cs),
(365,1034,ls),
(353,1034,o),
(343,1029,o),
(336,1020,cs),
(212,852,ls),
(205,843,o),
(207,838,o),
(219,838,cs),
(361,838,ls),
(373,838,o),
(382,843,o),
(388,853,cs)
);
},
{
closed = 1;
nodes = (
(513,266,l),
(336,266,l),
(424,517,l)
);
}
);
vertWidth = 1000;
width = 854;
}
);
note = cid00166;
unicode = 194;
}
{
glyphname = Atilde;
layers = (
{
hints = (
{
horizontal = 1;
place = (98, 168);
place = (98, 168);
type = Stem;
},
{
place = (15, 824);
place = (15, 824);
type = Stem;
},
{
horizontal = 1;
place = (849, 196);
place = (849, 196);
type = Stem;
},
{
place = (205, 144);
place = (205, 144);
type = Stem;
},
{
horizontal = 1;
place = (912, 133);
place = (912, 133);
type = Stem;
},
{
horizontal = 1;
place = (845, 196);
place = (845, 196);
type = Stem;
},
{
place = (494, 144);
place = (494, 144);
type = Stem;
},
{
horizontal = 1;
place = (845, 134);
place = (845, 134);
type = Stem;
}
);
layerId = m01;
shapes = (
{
closed = 1;
nodes = (
(213,-42,ls),
(223,-42,o),
(230,-38,o),
(233,-28,cs),
(277,98,l),
(573,98,l),
(618,-28,ls),
(621,-38,o),
(628,-42,o),
(638,-42,cs),
(824,-42,ls),
(833,-42,o),
(839,-37,o),
(839,-29,cs),
(839,-27,o),
(838,-25,o),
(837,-22,cs),
(517,759,ls),
(513,768,o),
(507,772,o),
(497,772,cs),
(357,772,ls),
(348,772,o),
(340,768,o),
(337,759,cs),
(17,-22,ls),
(12,-33,o),
(18,-42,o),
(31,-42,cs)
);
},
{
closed = 1;
nodes = (
(205,855,o),
(212,849,o),
(224,849,cs),
(332,849,ls),
(344,849,o),
(349,854,o),
(349,867,cs),
(349,892,o),
(358,912,o),
(375,912,cs),
(407,912,o),
(433,845,o),
(508,845,cs),
(588,845,o),
(641,922,o),
(638,1023,cs),
(638,1035,o),
(631,1041,o),
(619,1041,cs),
(511,1041,ls),
(499,1041,o),
(494,1036,o),
(494,1023,cs),
(494,998,o),
(485,979,o),
(468,979,cs),
(436,979,o),
(410,1045,o),
(335,1045,cs),
(255,1045,o),
(202,963,o),
(205,867,cs)
);
},
{
closed = 1;
nodes = (
(513,266,l),
(336,266,l),
(424,517,l)
);
}
);
vertWidth = 1000;
width = 854;
}
);
note = cid00167;
unicode = 195;
}
{
glyphname = Adieresis;
layers = (
{
hints = (
{
horizontal = 1;
place = (98, 168);
place = (98, 168);
type = Stem;
},
{
horizontal = 1;
place = (850, 182);
place = (850, 182);
type = Stem;
},
{
place = (223, 186);
place = (223, 186);
type = Stem;
},
{
place = (445, 186);
place = (445, 186);
type = Stem;
}
);
layerId = m01;
shapes = (
{
closed = 1;
nodes = (
(213,-42,ls),
(223,-42,o),
(230,-38,o),
(233,-28,cs),
(277,98,l),
(573,98,l),
(618,-28,ls),
(621,-38,o),
(628,-42,o),
(638,-42,cs),
(824,-42,ls),
(833,-42,o),
(839,-37,o),
(839,-29,cs),
(839,-27,o),
(838,-25,o),
(837,-22,cs),
(517,759,ls),
(513,768,o),
(507,772,o),
(497,772,cs),
(357,772,ls),
(348,772,o),
(340,768,o),
(337,759,cs),
(17,-22,ls),
(12,-33,o),
(18,-42,o),
(31,-42,cs)
);
},
{
closed = 1;
nodes = (
(513,266,l),
(336,266,l),
(424,517,l)
);
},
{
closed = 1;
nodes = (
(369,850,o),
(409,886,o),
(409,940,cs),
(409,995,o),
(369,1032,o),
(316,1032,cs),
(264,1032,o),
(223,995,o),
(223,940,cs),
(223,886,o),
(264,850,o),
(316,850,cs)
);
},
{
closed = 1;
nodes = (
(590,850,o),
(631,886,o),
(631,940,cs),
(631,995,o),
(590,1032,o),
(538,1032,cs),
(485,1032,o),
(445,995,o),
(445,940,cs),
(445,886,o),
(485,850,o),
(538,850,cs)
);
}
);
vertWidth = 1000;
width = 854;
}
);
note = cid00168;
unicode = 196;
}
{
glyphname = AE;
layers = (
{
hints = (
{
horizontal = 1;
place = (-42, 179);
place = (-42, 179);
type = Stem;
},
{
horizontal = 1;
place = (287, 173);
place = (287, 173);
type = Stem;
},
{
horizontal = 1;
place = (593, 179);
place = (593, 179);
type = Stem;
},
{
place = (563, 205);
place = (563, 205);
type = Stem;
},
{
horizontal = 1;
place = (98, 168);
place = (98, 168);
type = Stem;
}
);
layerId = m01;
shapes = (
{
closed = 1;
nodes = (
(1129,-42,ls),
(1139,-42,o),
(1147,-35,o),
(1147,-24,cs),
(1147,119,ls),
(1147,130,o),
(1139,137,o),
(1129,137,cs),
(768,137,l),
(768,287,l),
(1075,287,ls),
(1086,287,o),
(1093,294,o),
(1093,305,cs),
(1093,443,ls),
(1093,454,o),
(1086,460,o),
(1075,460,cs),
(768,460,l),
(768,593,l),
(1116,593,ls),
(1126,593,o),
(1134,600,o),
(1134,611,cs),
(1134,754,ls),
(1134,765,o),
(1126,772,o),
(1116,772,cs),
(458,772,ls),
(449,772,o),
(442,767,o),
(438,759,cs),
(18,-22,ls),
(12,-33,o),
(19,-42,o),
(32,-42,cs),
(214,-42,ls),
(224,-42,o),
(229,-38,o),
(234,-28,cs),
(301,98,l),
(563,98,l),
(563,-24,ls),
(563,-35,o),
(569,-42,o),
(580,-42,cs)
);
},
{
closed = 1;
nodes = (
(563,266,l),
(391,266,l),
(563,590,l)
);
}
);
vertWidth = 1000;
width = 1187;
}
);
note = cid00139;
unicode = 198;
}
{
glyphname = Ccedilla;
layers = (
{
hints = (
{
horizontal = 1;
place = (-333, 116);
place = (-333, 116);
type = Stem;
},
{
horizontal = 1;
place = (587, 201);
place = (587, 201);
type = Stem;
},
{
place = (55, 214);
place = (55, 214);
type = Stem;
},
{
place = (505, 148);
place = (505, 148);
type = Stem;
}
);
layerId = m01;
shapes = (
{
closed = 1;
nodes = (
(848,216,o),
(844,223,o),
(833,226,cs),
(664,271,ls),
(654,274,o),
(648,270,o),
(643,259,cs),
(613,176,o),
(549,143,o),
(468,143,cs),
(350,143,o),
(269,229,o),
(269,365,cs),
(269,500,o),
(349,587,o),
(468,587,cs),
(538,587,o),
(590,558,o),
(623,501,cs),
(627,495,o),
(633,491,o),
(639,491,cs),
(641,491,o),
(643,492,o),
(645,493,c),
(815,538,l),
(823,539,o),
(828,545,o),
(828,552,cs),
(828,554,o),
(827,557,o),
(826,560,cs),
(769,705,o),
(645,788,o),
(468,788,cs),
(232,788,o),
(55,618,o),
(55,365,cs),
(55,137,o),
(189,-24,o),
(397,-53,c),
(366,-155,ls),
(363,-167,o),
(367,-172,o),
(379,-172,cs),
(407,-172,o),
(433,-172,o),
(456,-174,cs),
(483,-176,o),
(505,-183,o),
(505,-197,cs),
(505,-211,o),
(480,-217,o),
(448,-217,cs),
(417,-217,o),
(380,-212,o),
(350,-208,cs),
(338,-206,o),
(333,-212,o),
(334,-224,cs),
(340,-298,ls),
(341,-310,o),
(348,-318,o),
(359,-321,cs),
(390,-329,o),
(428,-333,o),
(460,-333,cs),
(572,-333,o),
(653,-276,o),
(653,-198,cs),
(653,-128,o),
(590,-93,o),
(531,-84,c),
(540,-53,l),
(696,-29,o),
(804,72,o),
(846,208,cs)
);
}
);
vertWidth = 1000;
width = 896;
}
);
note = cid00170;
unicode = 199;
}
{
glyphname = Egrave;
layers = (
{
hints = (
{
horizontal = 1;
place = (-42, 179);
place = (-42, 179);
type = Stem;
},
{
horizontal = 1;
place = (287, 173);
place = (287, 173);
type = Stem;
},
{
horizontal = 1;
place = (593, 179);
place = (593, 179);
type = Stem;
},
{
horizontal = 1;
place = (838, 191);
place = (838, 191);
type = Stem;
},
{
place = (79, 205);
place = (79, 205);
type = Stem;
}
);
layerId = m01;
shapes = (
{
closed = 1;
nodes = (
(645,-42,ls),
(655,-42,o),
(663,-35,o),
(663,-24,cs),
(663,119,ls),
(663,130,o),
(655,137,o),
(645,137,cs),
(284,137,l),
(284,287,l),
(591,287,ls),
(602,287,o),
(609,294,o),
(609,305,cs),
(609,443,ls),
(609,454,o),
(602,460,o),
(591,460,cs),
(284,460,l),
(284,593,l),
(632,593,ls),
(642,593,o),
(650,600,o),
(650,611,cs),
(650,754,ls),
(650,765,o),
(642,772,o),
(632,772,cs),
(96,772,ls),
(85,772,o),
(79,765,o),
(79,754,cs),
(79,-24,ls),
(79,-35,o),
(85,-42,o),
(96,-42,cs)
);
},
{
closed = 1;
nodes = (
(469,838,ls),
(478,838,o),
(482,842,o),
(482,849,cs),
(482,851,o),
(482,854,o),
(480,857,cs),
(399,1017,ls),
(395,1025,o),
(389,1029,o),
(380,1029,cs),
(203,1029,ls),
(194,1029,o),
(190,1025,o),
(190,1020,cs),
(190,1017,o),
(191,1014,o),
(193,1010,c),
(303,848,ls),
(308,841,o),
(314,838,o),
(322,838,cs)
);
}
);
vertWidth = 1000;
width = 703;
}
);
note = cid00171;
unicode = 200;
}
{
glyphname = Eacute;
layers = (
{
hints = (
{
horizontal = 1;
place = (-42, 179);
place = (-42, 179);
type = Stem;
},
{
horizontal = 1;
place = (287, 173);
place = (287, 173);
type = Stem;
},
{
horizontal = 1;
place = (593, 179);
place = (593, 179);
type = Stem;
},
{
horizontal = 1;
place = (838, 191);
place = (838, 191);
type = Stem;
},
{
place = (79, 205);
place = (79, 205);
type = Stem;
}
);
layerId = m01;
shapes = (
{
closed = 1;
nodes = (
(645,-42,ls),
(655,-42,o),
(663,-35,o),
(663,-24,cs),
(663,119,ls),
(663,130,o),
(655,137,o),
(645,137,cs),
(284,137,l),
(284,287,l),
(591,287,ls),
(602,287,o),
(609,294,o),
(609,305,cs),
(609,443,ls),
(609,454,o),
(602,460,o),
(591,460,cs),
(284,460,l),
(284,593,l),
(632,593,ls),
(642,593,o),
(650,600,o),
(650,611,cs),
(650,754,ls),
(650,765,o),
(642,772,o),
(632,772,cs),
(96,772,ls),
(85,772,o),
(79,765,o),
(79,754,cs),
(79,-24,ls),
(79,-35,o),
(85,-42,o),
(96,-42,cs)
);
},
{
closed = 1;
nodes = (
(410,838,ls),
(418,838,o),
(424,841,o),
(429,848,cs),
(539,1010,l),
(541,1014,o),
(542,1017,o),
(542,1020,cs),
(542,1025,o),
(538,1029,o),
(529,1029,cs),
(352,1029,ls),
(343,1029,o),
(337,1025,o),
(333,1017,cs),
(252,857,l),
(251,854,o),
(250,851,o),
(250,849,cs),
(250,842,o),
(254,838,o),
(263,838,cs)
);
}
);
vertWidth = 1000;
width = 703;
}
);
note = cid00172;
unicode = 201;
}
{
glyphname = Ecircumflex;
layers = (
{
hints = (
{
horizontal = 1;
place = (-42, 179);
place = (-42, 179);
type = Stem;
},
{
horizontal = 1;
place = (287, 173);
place = (287, 173);
type = Stem;
},
{
horizontal = 1;
place = (593, 179);
place = (593, 179);
type = Stem;
},
{
horizontal = 1;
place = (838, 196);
place = (838, 196);
type = Stem;
},
{
place = (79, 205);
place = (79, 205);
type = Stem;
}
);
layerId = m01;
shapes = (
{
closed = 1;
nodes = (
(645,-42,ls),
(655,-42,o),
(663,-35,o),
(663,-24,cs),
(663,119,ls),
(663,130,o),
(655,137,o),
(645,137,cs),
(284,137,l),
(284,287,l),
(591,287,ls),
(602,287,o),
(609,294,o),
(609,305,cs),
(609,443,ls),
(609,454,o),
(602,460,o),
(591,460,cs),
(284,460,l),
(284,593,l),
(632,593,ls),
(642,593,o),
(650,600,o),
(650,611,cs),
(650,754,ls),
(650,765,o),
(642,772,o),
(632,772,cs),
(96,772,ls),
(85,772,o),
(79,765,o),
(79,754,cs),
(79,-24,ls),
(79,-35,o),
(85,-42,o),
(96,-42,cs)
);
},
{
closed = 1;
nodes = (
(366,918,l),
(405,853,ls),
(411,843,o),
(420,838,o),
(432,838,cs),
(574,838,ls),
(586,838,o),
(588,843,o),
(581,852,cs),
(457,1020,ls),
(450,1029,o),
(440,1034,o),
(428,1034,cs),
(304,1034,ls),
(292,1034,o),
(282,1029,o),
(275,1020,cs),
(151,852,ls),
(144,843,o),
(146,838,o),
(158,838,cs),
(300,838,ls),
(312,838,o),
(321,843,o),
(327,853,cs)
);
}
);
vertWidth = 1000;
width = 703;
}
);
note = cid00173;
unicode = 202;
}
{
glyphname = Edieresis;
layers = (
{
hints = (
{
horizontal = 1;
place = (-42, 179);
place = (-42, 179);
type = Stem;
},
{
horizontal = 1;
place = (287, 173);
place = (287, 173);
type = Stem;
},
{
horizontal = 1;
place = (593, 179);
place = (593, 179);
type = Stem;
},
{
place = (79, 205);
place = (79, 205);
type = Stem;
},
{
horizontal = 1;
place = (850, 182);
place = (850, 182);
type = Stem;
},
{
place = (162, 186);
place = (162, 186);
type = Stem;
},
{
place = (384, 186);
place = (384, 186);
type = Stem;
}
);
layerId = m01;
shapes = (
{
closed = 1;
nodes = (
(645,-42,ls),
(655,-42,o),
(663,-35,o),
(663,-24,cs),
(663,119,ls),
(663,130,o),
(655,137,o),
(645,137,cs),
(284,137,l),
(284,287,l),
(591,287,ls),
(602,287,o),
(609,294,o),
(609,305,cs),
(609,443,ls),
(609,454,o),
(602,460,o),
(591,460,cs),
(284,460,l),
(284,593,l),
(632,593,ls),
(642,593,o),
(650,600,o),
(650,611,cs),
(650,754,ls),
(650,765,o),
(642,772,o),
(632,772,cs),
(96,772,ls),
(85,772,o),
(79,765,o),
(79,754,cs),
(79,-24,ls),
(79,-35,o),
(85,-42,o),
(96,-42,cs)
);
},
{
closed = 1;
nodes = (
(308,850,o),
(348,886,o),
(348,940,cs),
(348,995,o),
(308,1032,o),
(255,1032,cs),
(203,1032,o),
(162,995,o),
(162,940,cs),
(162,886,o),
(203,850,o),
(255,850,cs)
);
},
{
closed = 1;
nodes = (
(529,850,o),
(570,886,o),
(570,940,cs),
(570,995,o),
(529,1032,o),
(477,1032,cs),
(424,1032,o),
(384,995,o),
(384,940,cs),
(384,886,o),
(424,850,o),
(477,850,cs)
);
}
);
vertWidth = 1000;
width = 703;
}
);
note = cid00174;
unicode = 203;
}
{
glyphname = Igrave;
layers = (
{
hints = (
{
horizontal = 1;
place = (838, 191);
place = (838, 191);
type = Stem;
},
{
place = (79, 207);
place = (79, 207);
type = Stem;
}
);
layerId = m01;
shapes = (
{
closed = 1;
nodes = (
(268,-42,ls),
(279,-42,o),
(286,-35,o),
(286,-24,cs),
(286,754,ls),
(286,765,o),
(279,772,o),
(268,772,cs),
(96,772,ls),
(85,772,o),
(79,765,o),
(79,754,cs),
(79,-24,ls),
(79,-35,o),
(85,-42,o),
(96,-42,cs)
);
},
{
closed = 1;
nodes = (
(286,838,ls),
(295,838,o),
(299,842,o),
(299,849,cs),
(299,851,o),
(299,854,o),
(297,857,cs),
(216,1017,ls),
(212,1025,o),
(206,1029,o),
(197,1029,cs),
(20,1029,ls),
(11,1029,o),
(7,1025,o),
(7,1020,cs),
(7,1017,o),
(8,1014,o),
(10,1010,c),
(120,848,ls),
(125,841,o),
(131,838,o),
(139,838,cs)
);
}
);
vertWidth = 1000;
width = 365;
}
);
note = cid00175;
unicode = 204;
}
{
glyphname = Iacute;
layers = (
{
hints = (
{
horizontal = 1;
place = (838, 191);
place = (838, 191);
type = Stem;
},
{
place = (79, 207);
place = (79, 207);
type = Stem;
}
);
layerId = m01;
shapes = (
{
closed = 1;
nodes = (
(268,-42,ls),
(279,-42,o),
(286,-35,o),
(286,-24,cs),
(286,754,ls),
(286,765,o),
(279,772,o),
(268,772,cs),
(96,772,ls),
(85,772,o),
(79,765,o),
(79,754,cs),
(79,-24,ls),
(79,-35,o),
(85,-42,o),
(96,-42,cs)
);
},
{
closed = 1;
nodes = (
(227,838,ls),
(235,838,o),
(241,841,o),
(246,848,cs),
(356,1010,l),
(358,1014,o),
(359,1017,o),
(359,1020,cs),
(359,1025,o),
(355,1029,o),
(346,1029,cs),
(169,1029,ls),
(160,1029,o),
(154,1025,o),
(150,1017,cs),
(69,857,l),
(68,854,o),
(67,851,o),
(67,849,cs),
(67,842,o),
(71,838,o),
(80,838,cs)
);
}
);
vertWidth = 1000;
width = 365;
}
);
note = cid00176;
unicode = 205;
}
{
glyphname = Icircumflex;
layers = (
{
hints = (
{
horizontal = 1;
place = (838, 196);
place = (838, 196);
type = Stem;
},
{
place = (79, 207);
place = (79, 207);
type = Stem;
}
);
layerId = m01;
shapes = (
{
closed = 1;
nodes = (
(268,-42,ls),
(279,-42,o),
(286,-35,o),
(286,-24,cs),
(286,754,ls),
(286,765,o),
(279,772,o),
(268,772,cs),
(96,772,ls),
(85,772,o),
(79,765,o),
(79,754,cs),
(79,-24,ls),
(79,-35,o),
(85,-42,o),
(96,-42,cs)
);
},
{
closed = 1;
nodes = (
(183,918,l),
(222,853,ls),
(228,843,o),
(237,838,o),
(249,838,cs),
(391,838,ls),
(403,838,o),
(405,843,o),
(398,852,cs),
(274,1020,ls),
(267,1029,o),
(257,1034,o),
(245,1034,cs),
(121,1034,ls),
(109,1034,o),
(99,1029,o),
(92,1020,cs),
(-32,852,ls),
(-39,843,o),
(-37,838,o),
(-25,838,cs),
(117,838,ls),
(129,838,o),
(138,843,o),
(144,853,cs)
);
}
);
vertWidth = 1000;
width = 365;
}
);
note = cid00177;
unicode = 206;
}
{
glyphname = Eth;
layers = (
{
hints = (
{
horizontal = 1;
place = (-42, 191);
place = (-42, 191);
type = Stem;
},
{
horizontal = 1;
place = (304, 113);
place = (304, 113);
type = Stem;
},
{
horizontal = 1;
place = (581, 191);
place = (581, 191);
type = Stem;
},
{
place = (79, 204);
place = (79, 204);
type = Stem;
},
{
place = (599, 211);
place = (599, 211);
type = Stem;
}
);
layerId = m01;
shapes = (
{
closed = 1;
nodes = (
(397,-42,ls),
(660,-42,o),
(810,103,o),
(810,365,cs),
(810,629,o),
(660,772,o),
(397,772,cs),
(96,772,ls),
(85,772,o),
(79,765,o),
(79,754,cs),
(79,417,l),
(18,417,ls),
(6,417,o),
(0,411,o),
(0,399,cs),
(0,322,ls),
(0,310,o),
(6,304,o),
(18,304,cs),
(79,304,l),
(79,-24,ls),
(79,-35,o),
(85,-42,o),
(96,-42,cs)
);
},
{
closed = 1;
nodes = (
(283,149,l),
(283,304,l),
(431,304,ls),
(443,304,o),
(449,310,o),
(449,322,cs),
(449,399,ls),
(449,411,o),
(443,417,o),
(431,417,cs),
(283,417,l),
(283,581,l),
(377,581,ls),
(521,581,o),
(599,510,o),
(599,365,cs),
(599,220,o),
(521,149,o),
(377,149,cs)
);
}
);
vertWidth = 1000;
width = 866;
}
);
note = cid00179;
unicode = 208;
}
{
glyphname = Ntilde;
layers = (
{
hints = (
{
horizontal = 1;
place = (848, 196);
place = (848, 196);
type = Stem;
},
{
place = (79, 198);
place = (79, 198);
type = Stem;
},
{
place = (588, 198);
place = (588, 198);
type = Stem;
},
{
place = (216, 144);
place = (216, 144);
type = Stem;
},
{
horizontal = 1;
place = (911, 133);
place = (911, 133);
type = Stem;
},
{
horizontal = 1;
place = (844, 196);
place = (844, 196);
type = Stem;
},
{
place = (505, 144);
place = (505, 144);
type = Stem;
},
{
horizontal = 1;
place = (844, 134);
place = (844, 134);
type = Stem;
}
);
layerId = m01;
shapes = (
{
closed = 1;
nodes = (
(260,-42,ls),
(271,-42,o),
(277,-35,o),
(277,-24,cs),
(277,456,l),
(569,-30,ls),
(573,-38,o),
(580,-42,o),
(590,-42,cs),
(769,-42,ls),
(780,-42,o),
(786,-35,o),
(786,-24,cs),
(786,754,ls),
(786,765,o),
(780,772,o),
(769,772,cs),
(606,772,ls),
(594,772,o),
(588,765,o),
(588,754,cs),
(588,276,l),
(297,760,ls),
(292,768,o),
(286,772,o),
(276,772,cs),
(96,772,ls),
(85,772,o),
(79,765,o),
(79,754,cs),
(79,-24,ls),
(79,-35,o),
(85,-42,o),
(96,-42,cs)
);
},
{
closed = 1;
nodes = (
(216,854,o),
(223,848,o),
(235,848,cs),
(343,848,ls),
(355,848,o),
(360,853,o),
(360,866,cs),
(360,891,o),
(369,911,o),
(386,911,cs),
(418,911,o),
(444,844,o),
(519,844,cs),
(599,844,o),
(652,921,o),
(649,1022,cs),
(649,1034,o),
(642,1040,o),
(630,1040,cs),
(522,1040,ls),
(510,1040,o),
(505,1035,o),
(505,1022,cs),
(505,997,o),
(496,978,o),
(479,978,cs),
(447,978,o),
(421,1044,o),
(346,1044,cs),
(266,1044,o),
(213,962,o),
(216,866,cs)
);
}
);
vertWidth = 1000;
width = 865;
}
);
note = cid00180;
unicode = 209;
}
{
glyphname = Ograve;
layers = (
{
hints = (
{
horizontal = 1;
place = (-58, 201);
place = (-58, 201);
type = Stem;
},
{
horizontal = 1;
place = (587, 201);
place = (587, 201);
type = Stem;
},
{
horizontal = 1;
place = (838, 191);
place = (838, 191);
type = Stem;
},
{
place = (55, 214);
place = (55, 214);
type = Stem;
},
{
place = (682, 214);
place = (682, 214);
type = Stem;
}
);
layerId = m01;
shapes = (
{
closed = 1;
nodes = (
(718,-58,o),
(896,113,o),
(896,365,cs),
(896,617,o),
(718,788,o),
(476,788,cs),
(234,788,o),
(55,617,o),
(55,365,cs),
(55,113,o),
(234,-58,o),
(476,-58,cs)
);
},
{
closed = 1;
nodes = (
(269,496,o),
(353,587,o),
(476,587,cs),
(599,587,o),
(682,496,o),
(682,365,cs),
(682,234,o),
(599,143,o),
(476,143,cs),
(353,143,o),
(269,234,o),
(269,365,cs)
);
},
{
closed = 1;
nodes = (
(579,838,ls),
(588,838,o),
(592,842,o),
(592,849,cs),
(592,851,o),
(592,854,o),
(590,857,cs),
(509,1017,ls),
(505,1025,o),
(499,1029,o),
(490,1029,cs),
(313,1029,ls),
(304,1029,o),
(300,1025,o),
(300,1020,cs),
(300,1017,o),
(301,1014,o),
(303,1010,c),
(413,848,ls),
(418,841,o),
(424,838,o),
(432,838,cs)
);
}
);
vertWidth = 1000;
width = 953;
}
);
note = cid00181;
unicode = 210;
}
{
glyphname = Oacute;
layers = (
{
hints = (
{
horizontal = 1;
place = (-58, 201);
place = (-58, 201);
type = Stem;
},
{
horizontal = 1;
place = (587, 201);
place = (587, 201);
type = Stem;
},
{
horizontal = 1;
place = (838, 191);
place = (838, 191);
type = Stem;
},
{
place = (55, 214);
place = (55, 214);
type = Stem;
},
{
place = (682, 214);
place = (682, 214);
type = Stem;
}
);
layerId = m01;
shapes = (
{
closed = 1;
nodes = (
(718,-58,o),
(896,113,o),
(896,365,cs),
(896,617,o),
(718,788,o),
(476,788,cs),
(234,788,o),
(55,617,o),
(55,365,cs),
(55,113,o),
(234,-58,o),
(476,-58,cs)
);
},
{
closed = 1;
nodes = (
(269,496,o),
(353,587,o),
(476,587,cs),
(599,587,o),
(682,496,o),
(682,365,cs),
(682,234,o),
(599,143,o),
(476,143,cs),
(353,143,o),
(269,234,o),
(269,365,cs)
);
},
{
closed = 1;
nodes = (
(520,838,ls),
(528,838,o),
(534,841,o),
(539,848,cs),
(649,1010,l),
(651,1014,o),
(652,1017,o),
(652,1020,cs),
(652,1025,o),
(648,1029,o),
(639,1029,cs),
(462,1029,ls),
(453,1029,o),
(447,1025,o),
(443,1017,cs),
(362,857,l),
(361,854,o),
(360,851,o),
(360,849,cs),
(360,842,o),
(364,838,o),
(373,838,cs)
);
}
);
vertWidth = 1000;
width = 953;
}
);
note = cid00182;
unicode = 211;
}
{
glyphname = Ocircumflex;
layers = (
{
hints = (
{
horizontal = 1;
place = (-58, 201);
place = (-58, 201);
type = Stem;
},
{
horizontal = 1;
place = (587, 201);
place = (587, 201);
type = Stem;
},
{
horizontal = 1;
place = (838, 196);
place = (838, 196);
type = Stem;
},
{
place = (55, 214);
place = (55, 214);
type = Stem;
},
{
place = (682, 214);
place = (682, 214);
type = Stem;
}
);
layerId = m01;
shapes = (
{
closed = 1;
nodes = (
(718,-58,o),
(896,113,o),
(896,365,cs),
(896,617,o),
(718,788,o),
(476,788,cs),
(234,788,o),
(55,617,o),
(55,365,cs),
(55,113,o),
(234,-58,o),
(476,-58,cs)
);
},
{
closed = 1;
nodes = (
(476,918,l),
(515,853,ls),
(521,843,o),
(530,838,o),
(542,838,cs),
(684,838,ls),
(696,838,o),
(698,843,o),
(691,852,cs),
(567,1020,ls),
(560,1029,o),
(550,1034,o),
(538,1034,cs),
(414,1034,ls),
(402,1034,o),
(392,1029,o),
(385,1020,cs),
(261,852,ls),
(254,843,o),
(256,838,o),
(268,838,cs),
(410,838,ls),
(422,838,o),
(431,843,o),
(437,853,cs)
);
},
{
closed = 1;
nodes = (
(269,496,o),
(353,587,o),
(476,587,cs),
(599,587,o),
(682,496,o),
(682,365,cs),
(682,234,o),
(599,143,o),
(476,143,cs),
(353,143,o),
(269,234,o),
(269,365,cs)
);
}
);
vertWidth = 1000;
width = 953;
}
);
note = cid00183;
unicode = 212;
}
{
glyphname = Otilde;
layers = (
{
hints = (
{
horizontal = 1;
place = (-58, 201);
place = (-58, 201);
type = Stem;
},
{
horizontal = 1;
place = (587, 201);
place = (587, 201);
type = Stem;
},
{
horizontal = 1;
place = (848, 196);
place = (848, 196);
type = Stem;
},
{
place = (55, 214);
place = (55, 214);
type = Stem;
},
{
place = (682, 214);
place = (682, 214);
type = Stem;
},
{
place = (249, 144);
place = (249, 144);
type = Stem;
},
{
horizontal = 1;
place = (911, 133);
place = (911, 133);
type = Stem;
},
{
horizontal = 1;
place = (844, 196);
place = (844, 196);
type = Stem;
},
{
place = (538, 144);
place = (538, 144);
type = Stem;
},
{
horizontal = 1;
place = (844, 134);
place = (844, 134);
type = Stem;
}
);
layerId = m01;
shapes = (
{
closed = 1;
nodes = (
(718,-58,o),
(896,113,o),
(896,365,cs),
(896,617,o),
(718,788,o),
(476,788,cs),
(234,788,o),
(55,617,o),
(55,365,cs),
(55,113,o),
(234,-58,o),
(476,-58,cs)
);
},
{
closed = 1;
nodes = (
(249,854,o),
(256,848,o),
(268,848,cs),
(376,848,ls),
(388,848,o),
(393,853,o),
(393,866,cs),
(393,891,o),
(402,911,o),
(419,911,cs),
(451,911,o),
(477,844,o),
(552,844,cs),
(632,844,o),
(685,921,o),
(682,1022,cs),
(682,1034,o),
(675,1040,o),
(663,1040,cs),
(555,1040,ls),
(543,1040,o),
(538,1035,o),
(538,1022,cs),
(538,997,o),
(529,978,o),
(512,978,cs),
(480,978,o),
(454,1044,o),
(379,1044,cs),
(299,1044,o),
(246,962,o),
(249,866,cs)
);
},
{
closed = 1;
nodes = (
(269,496,o),
(353,587,o),
(476,587,cs),
(599,587,o),
(682,496,o),
(682,365,cs),
(682,234,o),
(599,143,o),
(476,143,cs),
(353,143,o),
(269,234,o),
(269,365,cs)
);
}
);
vertWidth = 1000;
width = 953;
}
);
note = cid00184;
unicode = 213;
}
{
glyphname = Odieresis;
layers = (
{
hints = (
{
horizontal = 1;
place = (-58, 201);
place = (-58, 201);
type = Stem;
},
{
horizontal = 1;
place = (587, 201);
place = (587, 201);
type = Stem;
},
{
horizontal = 1;
place = (850, 182);
place = (850, 182);
type = Stem;
},
{
place = (55, 214);
place = (55, 214);
type = Stem;
},
{
place = (682, 214);
place = (682, 214);
type = Stem;
},
{
place = (272, 186);
place = (272, 186);
type = Stem;
},
{
place = (494, 186);
place = (494, 186);
type = Stem;
}
);
layerId = m01;
shapes = (
{
closed = 1;
nodes = (
(718,-58,o),
(896,113,o),
(896,365,cs),
(896,617,o),
(718,788,o),
(476,788,cs),
(234,788,o),
(55,617,o),
(55,365,cs),
(55,113,o),
(234,-58,o),
(476,-58,cs)
);
},
{
closed = 1;
nodes = (
(269,496,o),
(353,587,o),
(476,587,cs),
(599,587,o),
(682,496,o),
(682,365,cs),
(682,234,o),
(599,143,o),
(476,143,cs),
(353,143,o),
(269,234,o),
(269,365,cs)
);
},
{
closed = 1;
nodes = (
(418,850,o),
(458,886,o),
(458,940,cs),
(458,995,o),
(418,1032,o),
(365,1032,cs),
(313,1032,o),
(272,995,o),
(272,940,cs),
(272,886,o),
(313,850,o),
(365,850,cs)
);
},
{
closed = 1;
nodes = (
(639,850,o),
(680,886,o),
(680,940,cs),
(680,995,o),
(639,1032,o),
(587,1032,cs),
(534,1032,o),
(494,995,o),
(494,940,cs),
(494,886,o),
(534,850,o),
(587,850,cs)
);
}
);
vertWidth = 1000;
width = 953;
}
);
note = cid00185;
unicode = 214;
}
{
glyphname = multiply.full;
layers = (
{
hints = (
{
horizontal = 1;
place = (85, 590);
place = (85, 590);
type = Stem;
},
{
place = (205, 590);
place = (205, 590);
type = Stem;
}
);
layerId = m01;
shapes = (
{
closed = 1;
nodes = (
(500,504,l),
(336,668,ls),
(332,672,o),
(327,675,o),
(322,675,cs),
(318,675,o),
(313,672,o),
(309,668,cs),
(212,570,ls),
(208,566,o),
(205,561,o),
(205,556,cs),
(205,552,o),
(208,547,o),
(212,543,cs),
(376,380,l),
(212,216,ls),
(208,212,o),
(205,207,o),
(205,202,cs),
(205,198,o),
(208,193,o),
(212,189,cs),
(309,92,ls),
(313,88,o),
(318,85,o),
(322,85,cs),
(327,85,o),
(332,88,o),
(336,92,cs),
(500,256,l),
(664,92,ls),
(668,88,o),
(673,85,o),
(678,85,cs),
(682,85,o),
(687,88,o),
(691,92,cs),
(788,189,ls),
(792,193,o),
(795,198,o),
(795,202,cs),
(795,207,o),
(792,212,o),
(788,216,cs),
(624,380,l),
(788,543,ls),
(792,547,o),
(795,552,o),
(795,556,cs),
(795,561,o),
(792,566,o),
(788,570,cs),
(691,668,ls),
(687,672,o),
(682,675,o),
(678,675,cs),
(673,675,o),
(668,672,o),
(664,668,cs)
);
}
);
vertWidth = 1000;
width = 1000;
}
);
note = cid00695;
unicode = 215;
}
{
glyphname = Oslash;
layers = (
{
hints = (
{
horizontal = 1;
place = (-58, 201);
place = (-58, 201);
type = Stem;
},
{
horizontal = 1;
place = (587, 201);
place = (587, 201);
type = Stem;
},
{
place = (55, 214);
place = (55, 214);
type = Stem;
},
{
place = (682, 214);
place = (682, 214);
type = Stem;
}
);
layerId = m01;
shapes = (
{
closed = 1;
nodes = (
(875,757,ls),
(883,766,o),
(882,775,o),
(873,782,cs),
(812,830,ls),
(803,837,o),
(794,836,o),
(786,827,cs),
(704,728,l),
(639,767,o),
(562,788,o),
(476,788,cs),
(234,788,o),
(55,617,o),
(55,365,cs),
(55,247,o),
(94,147,o),
(161,74,c),
(64,-43,ls),
(56,-52,o),
(57,-61,o),
(66,-68,cs),
(127,-116,ls),
(136,-123,o),
(145,-122,o),
(153,-113,cs),
(248,2,l),
(313,-37,o),
(391,-58,o),
(476,-58,cs),
(718,-58,o),
(896,113,o),
(896,365,cs),
(896,483,o),
(857,583,o),
(791,656,c)
);
},
{
closed = 1;
nodes = (
(269,496,o),
(353,587,o),
(476,587,cs),
(511,587,o),
(542,580,o),
(570,566,c),
(300,241,l),
(280,276,o),
(269,318,o),
(269,365,cs)
);
},
{
closed = 1;
nodes = (
(682,234,o),
(599,143,o),
(476,143,cs),
(441,143,o),
(410,150,o),
(382,164,c),
(652,488,l),
(671,454,o),
(682,412,o),
(682,365,cs)
);
}
);
vertWidth = 1000;
width = 953;
}
);
note = cid00142;
unicode = 216;
}
{
glyphname = Ugrave;
layers = (
{
hints = (
{
horizontal = 1;
place = (-58, 201);
place = (-58, 201);
type = Stem;
},
{
horizontal = 1;
place = (838, 191);
place = (838, 191);
type = Stem;
},
{
place = (74, 207);
place = (74, 207);
type = Stem;
},
{
place = (570, 207);
place = (570, 207);
type = Stem;
}
);
layerId = m01;
shapes = (
{
closed = 1;
nodes = (
(596,-58,o),
(777,31,o),
(777,290,cs),
(777,754,ls),
(777,765,o),
(771,772,o),
(760,772,cs),
(588,772,ls),
(578,772,o),
(570,765,o),
(570,754,cs),
(570,331,ls),
(570,202,o),
(510,143,o),
(426,143,cs),
(339,143,o),
(281,202,o),
(281,331,cs),
(281,754,ls),
(281,765,o),
(274,772,o),
(264,772,cs),
(91,772,ls),
(81,772,o),
(74,765,o),
(74,754,cs),
(74,290,ls),
(74,31,o),
(256,-58,o),
(426,-58,cs)
);
},
{
closed = 1;
nodes = (
(529,838,ls),
(538,838,o),
(542,842,o),
(542,849,cs),
(542,851,o),
(542,854,o),
(540,857,cs),
(459,1017,ls),
(455,1025,o),
(449,1029,o),
(440,1029,cs),
(263,1029,ls),
(254,1029,o),
(250,1025,o),
(250,1020,cs),
(250,1017,o),
(251,1014,o),
(253,1010,c),
(363,848,ls),
(368,841,o),
(374,838,o),
(382,838,cs)
);
}
);
vertWidth = 1000;
width = 852;
}
);
note = cid00187;
unicode = 217;
}
{
glyphname = Ucircumflex;
layers = (
{
hints = (
{
horizontal = 1;
place = (-58, 201);
place = (-58, 201);
type = Stem;
},
{
horizontal = 1;
place = (838, 196);
place = (838, 196);
type = Stem;
},
{
place = (74, 207);
place = (74, 207);
type = Stem;
},
{
place = (570, 207);
place = (570, 207);
type = Stem;
},
{
place = (207, 74);
place = (207, 74);
type = Stem;
},
{
place = (570, 75);
place = (570, 75);
type = Stem;
}
);
layerId = m01;
shapes = (
{
closed = 1;
nodes = (
(596,-58,o),
(777,31,o),
(777,290,cs),
(777,754,ls),
(777,765,o),
(771,772,o),
(760,772,cs),
(588,772,ls),
(578,772,o),
(570,765,o),
(570,754,cs),
(570,331,ls),
(570,202,o),
(510,143,o),
(426,143,cs),
(339,143,o),
(281,202,o),
(281,331,cs),
(281,754,ls),
(281,765,o),
(274,772,o),
(264,772,cs),
(91,772,ls),
(81,772,o),
(74,765,o),
(74,754,cs),
(74,290,ls),
(74,31,o),
(256,-58,o),
(426,-58,cs)
);
},
{
closed = 1;
nodes = (
(426,918,l),
(465,853,ls),
(471,843,o),
(480,838,o),
(492,838,cs),
(634,838,ls),
(646,838,o),
(648,843,o),
(641,852,cs),
(517,1020,ls),
(510,1029,o),
(500,1034,o),
(488,1034,cs),
(364,1034,ls),
(352,1034,o),
(342,1029,o),
(335,1020,cs),
(211,852,ls),
(204,843,o),
(206,838,o),
(218,838,cs),
(360,838,ls),
(372,838,o),
(381,843,o),
(387,853,cs)
);
}
);
vertWidth = 1000;
width = 852;
}
);
note = cid00189;
unicode = 219;
}
{
glyphname = Udieresis;
layers = (
{
hints = (
{
horizontal = 1;
place = (-58, 201);
place = (-58, 201);
type = Stem;
},
{
horizontal = 1;
place = (850, 182);
place = (850, 182);
type = Stem;
},
{
place = (74, 207);
place = (74, 207);
type = Stem;
},
{
place = (570, 207);
place = (570, 207);
type = Stem;
},
{
place = (222, 186);
place = (222, 186);
type = Stem;
},
{
place = (444, 186);
place = (444, 186);
type = Stem;
}
);
layerId = m01;
shapes = (
{
closed = 1;
nodes = (
(596,-58,o),
(777,31,o),
(777,290,cs),
(777,754,ls),
(777,765,o),
(771,772,o),
(760,772,cs),
(588,772,ls),
(578,772,o),
(570,765,o),
(570,754,cs),
(570,331,ls),
(570,202,o),
(510,143,o),
(426,143,cs),
(339,143,o),
(281,202,o),
(281,331,cs),
(281,754,ls),
(281,765,o),
(274,772,o),
(264,772,cs),
(91,772,ls),
(81,772,o),
(74,765,o),
(74,754,cs),
(74,290,ls),
(74,31,o),
(256,-58,o),
(426,-58,cs)
);
},
{
closed = 1;
nodes = (
(368,850,o),
(408,886,o),
(408,940,cs),
(408,995,o),
(368,1032,o),
(315,1032,cs),
(263,1032,o),
(222,995,o),
(222,940,cs),
(222,886,o),
(263,850,o),
(315,850,cs)
);
},
{
closed = 1;
nodes = (
(589,850,o),
(630,886,o),
(630,940,cs),
(630,995,o),
(589,1032,o),
(537,1032,cs),
(484,1032,o),
(444,995,o),
(444,940,cs),
(444,886,o),
(484,850,o),
(537,850,cs)
);
}
);
vertWidth = 1000;
width = 852;
}
);
note = cid00190;
unicode = 220;
}
{
glyphname = Yacute;
layers = (
{
hints = (
{
horizontal = 1;
place = (838, 191);
place = (838, 191);
type = Stem;
},
{
place = (307, 208);
place = (307, 208);
type = Stem;
}
);
layerId = m01;
shapes = (
{
closed = 1;
nodes = (
(497,-42,ls),
(507,-42,o),
(515,-35,o),
(515,-24,cs),
(515,260,l),
(804,751,ls),
(806,754,o),
(807,758,o),
(807,760,cs),
(807,767,o),
(801,772,o),
(791,772,cs),
(596,772,ls),
(586,772,o),
(579,769,o),
(576,760,c),
(414,443,l),
(250,760,ls),
(245,768,o),
(238,772,o),
(228,772,cs),
(30,772,ls),
(21,772,o),
(15,767,o),
(15,760,cs),
(15,758,o),
(16,754,o),
(18,751,cs),
(307,256,l),
(307,-24,ls),
(307,-35,o),
(314,-42,o),
(325,-42,cs)
);
},
{
closed = 1;
nodes = (
(455,838,ls),
(463,838,o),
(469,841,o),
(474,848,cs),
(584,1010,l),
(586,1014,o),
(587,1017,o),
(587,1020,cs),
(587,1025,o),
(583,1029,o),
(574,1029,cs),
(397,1029,ls),
(388,1029,o),
(382,1025,o),
(378,1017,cs),
(297,857,l),
(296,854,o),
(295,851,o),
(295,849,cs),
(295,842,o),
(299,838,o),
(308,838,cs)
);
}
);
vertWidth = 1000;
width = 821;
}
);
note = cid00191;
unicode = 221;
}
{
glyphname = Thorn;
layers = (
{
hints = (
{
horizontal = 1;
place = (76, 173);
place = (76, 173);
type = Stem;
},
{
horizontal = 1;
place = (500, 173);
place = (500, 173);
type = Stem;
},
{
place = (79, 203);
place = (79, 203);
type = Stem;
},
{
place = (499, 211);
place = (499, 211);
type = Stem;
},
{
place = (79, 204);
place = (79, 204);
type = Stem;
},
{
place = (79, 203.5);
place = (79, 203.5);
type = Stem;
}
);
layerId = m01;
shapes = (
{
closed = 1;
nodes = (
(282,673,l),
(282,754,ls),
(282,765,o),
(276,772,o),
(265,772,cs),
(96,772,ls),
(85,772,o),
(79,765,o),
(79,754,cs),
(79,-24,ls),
(79,-35,o),
(85,-42,o),
(96,-42,cs),
(265,-42,ls),
(276,-42,o),
(283,-35,o),
(283,-24,cs),
(283,76,l),
(368,76,ls),
(583,76,o),
(710,180,o),
(710,375,cs),
(710,571,o),
(583,673,o),
(368,673,cs)
);
},
{
closed = 1;
nodes = (
(283,249,l),
(282,500,l),
(363,500,ls),
(437,500,o),
(499,466,o),
(499,377,cs),
(499,284,o),
(437,249,o),
(363,249,cs)
);
}
);
vertWidth = 1000;
width = 754;
}
);
note = cid00192;
unicode = 222;
}
{
glyphname = germandbls;
layers = (
{
hints = (
{
horizontal = 1;
place = (-54, 161);
place = (-54, 161);
type = Stem;
},
{
horizontal = 1;
place = (292, 166);
place = (292, 166);
type = Stem;
},
{
horizontal = 1;
place = (632, 168);
place = (632, 168);
type = Stem;
},
{
place = (72, 200);
place = (72, 200);
type = Stem;
},
{
horizontal = 1;
place = (-42, 149);
place = (-42, 149);
type = Stem;
},
{
place = (453, 182);
place = (453, 182);
type = Stem;
},
{
place = (484, 199);
place = (484, 199);
type = Stem;
}
);
layerId = m01;
shapes = (
{
closed = 1;
nodes = (
(72,-22,ls),
(72,-35,o),
(79,-42,o),
(92,-42,cs),
(252,-42,ls),
(265,-42,o),
(272,-35,o),
(272,-22,cs),
(272,521,ls),
(272,588,o),
(308,632,o),
(363,632,cs),
(419,632,o),
(455,599,o),
(453,547,cs),
(451,486,o),
(407,458,o),
(339,458,cs),
(324,458,o),
(315,456,o),
(315,439,cs),
(315,307,ls),
(315,295,o),
(321,289,o),
(334,290,cs),
(344,291,o),
(356,292,o),
(372,292,cs),
(436,292,o),
(484,261,o),
(484,202,cs),
(484,139,o),
(435,107,o),
(361,107,cs),
(348,107,o),
(335,108,o),
(321,110,cs),
(308,112,o),
(301,107,o),
(301,94,cs),
(301,-33,ls),
(301,-46,o),
(308,-53,o),
(321,-54,cs),
(574,-65,o),
(685,47,o),
(683,183,cs),
(681,287,o),
(618,364,o),
(534,388,c),
(611,422,o),
(635,508,o),
(635,566,cs),
(635,703,o),
(517,800,o),
(364,800,cs),
(180,800,o),
(72,690,o),
(72,528,cs)
);
}
);
vertWidth = 1000;
width = 740;
}
);
note = cid00150;
unicode = 223;
}
{
glyphname = agrave;
layers = (
{
hints = (
{
horizontal = 1;
place = (-53, 175);
place = (-53, 175);
type = Stem;
},
{
horizontal = 1;
place = (383, 175);
place = (383, 175);
type = Stem;
},
{
horizontal = 1;
place = (613, 191);
place = (613, 191);
type = Stem;
},
{
place = (34, 202);
place = (34, 202);
type = Stem;
},
{
place = (487, 175);
place = (487, 175);
type = Stem;
},
{
horizontal = 1;
place = (-42, 164);
place = (-42, 164);
type = Stem;
},
{
horizontal = 1;
place = (383, 164);
place = (383, 164);
type = Stem;
},
{
place = (478, 184);
place = (478, 184);
type = Stem;
}
);
layerId = m01;
shapes = (
{
closed = 1;
nodes = (
(383,-53,o),
(442,-24,o),
(485,28,c),
(487,-24,ls),
(487,-35,o),
(495,-42,o),
(505,-42,cs),
(644,-42,ls),
(655,-42,o),
(662,-35,o),
(662,-24,cs),
(662,530,ls),
(662,540,o),
(655,547,o),
(644,547,cs),
(505,547,ls),
(495,547,o),
(487,541,o),
(487,530,cs),
(485,478,l),
(442,529,o),
(383,558,o),
(308,558,cs),
(144,558,o),
(34,436,o),
(34,253,cs),
(34,70,o),
(144,-53,o),
(308,-53,cs)
);
},
{
closed = 1;
nodes = (
(236,330,o),
(285,383,o),
(357,383,cs),
(429,383,o),
(478,330,o),
(478,253,cs),
(478,176,o),
(429,122,o),
(357,122,cs),
(285,122,o),
(236,176,o),
(236,253,cs)
);
},
{
closed = 1;
nodes = (
(465,613,ls),
(474,613,o),
(478,617,o),
(478,624,cs),
(478,626,o),
(478,629,o),
(476,632,cs),
(395,792,ls),
(391,800,o),
(385,804,o),
(376,804,cs),
(199,804,ls),
(190,804,o),
(186,800,o),
(186,795,cs),
(186,792,o),
(187,789,o),
(189,785,c),
(299,623,ls),
(304,616,o),
(310,613,o),
(318,613,cs)
);
}
);
vertWidth = 1000;
width = 726;
}
);
note = cid00193;
unicode = 224;
}
{
glyphname = atilde;
layers = (
{
hints = (
{
horizontal = 1;
place = (-53, 175);
place = (-53, 175);
type = Stem;
},
{
horizontal = 1;
place = (383, 175);
place = (383, 175);
type = Stem;
},
{
horizontal = 1;
place = (623, 196);
place = (623, 196);
type = Stem;
},
{
place = (34, 202);
place = (34, 202);
type = Stem;
},
{
place = (487, 175);
place = (487, 175);
type = Stem;
},
{
horizontal = 1;
place = (-42, 164);
place = (-42, 164);
type = Stem;
},
{
horizontal = 1;
place = (383, 164);
place = (383, 164);
type = Stem;
},
{
place = (135, 144);
place = (135, 144);
type = Stem;
},
{
horizontal = 1;
place = (686, 133);
place = (686, 133);
type = Stem;
},
{
horizontal = 1;
place = (619, 196);
place = (619, 196);
type = Stem;
},
{
place = (424, 144);
place = (424, 144);
type = Stem;
},
{
horizontal = 1;
place = (619, 134);
place = (619, 134);
type = Stem;
},
{
place = (478, 184);
place = (478, 184);
type = Stem;
}
);
layerId = m01;
shapes = (
{
closed = 1;
nodes = (
(383,-53,o),
(442,-24,o),
(485,28,c),
(487,-24,ls),
(487,-35,o),
(495,-42,o),
(505,-42,cs),
(644,-42,ls),
(655,-42,o),
(662,-35,o),
(662,-24,cs),
(662,530,ls),
(662,540,o),
(655,547,o),
(644,547,cs),
(505,547,ls),
(495,547,o),
(487,541,o),
(487,530,cs),
(485,478,l),
(442,529,o),
(383,558,o),
(308,558,cs),
(144,558,o),
(34,436,o),
(34,253,cs),
(34,70,o),
(144,-53,o),
(308,-53,cs)
);
},
{
closed = 1;
nodes = (
(135,629,o),
(142,623,o),
(154,623,cs),
(262,623,ls),
(274,623,o),
(279,628,o),
(279,641,cs),
(279,666,o),
(288,686,o),
(305,686,cs),
(337,686,o),
(363,619,o),
(438,619,cs),
(518,619,o),
(571,696,o),
(568,797,cs),
(568,809,o),
(561,815,o),
(549,815,cs),
(441,815,ls),
(429,815,o),
(424,810,o),
(424,797,cs),
(424,772,o),
(415,753,o),
(398,753,cs),
(366,753,o),
(340,819,o),
(265,819,cs),
(185,819,o),
(132,737,o),
(135,641,cs)
);
},
{
closed = 1;
nodes = (
(236,330,o),
(285,383,o),
(357,383,cs),
(429,383,o),
(478,330,o),
(478,253,cs),
(478,176,o),
(429,122,o),
(357,122,cs),
(285,122,o),
(236,176,o),
(236,253,cs)
);
}
);
vertWidth = 1000;
width = 726;
}
);
note = cid00196;
unicode = 227;
}
{
glyphname = adieresis;
layers = (
{
hints = (
{
horizontal = 1;
place = (-53, 175);
place = (-53, 175);
type = Stem;
},
{
horizontal = 1;
place = (383, 175);
place = (383, 175);
type = Stem;
},
{
horizontal = 1;
place = (625, 182);
place = (625, 182);
type = Stem;
},
{
place = (34, 202);
place = (34, 202);
type = Stem;
},
{
place = (487, 175);
place = (487, 175);
type = Stem;
},
{
horizontal = 1;
place = (-42, 164);
place = (-42, 164);
type = Stem;
},
{
horizontal = 1;
place = (383, 164);
place = (383, 164);
type = Stem;
},
{
place = (478, 184);
place = (478, 184);
type = Stem;
},
{
place = (158, 186);
place = (158, 186);
type = Stem;
},
{
place = (380, 186);
place = (380, 186);
type = Stem;
}
);
layerId = m01;
shapes = (
{
closed = 1;
nodes = (
(383,-53,o),
(442,-24,o),
(485,28,c),
(487,-24,ls),
(487,-35,o),
(495,-42,o),
(505,-42,cs),
(644,-42,ls),
(655,-42,o),
(662,-35,o),
(662,-24,cs),
(662,530,ls),
(662,540,o),
(655,547,o),
(644,547,cs),
(505,547,ls),
(495,547,o),
(487,541,o),
(487,530,cs),
(485,478,l),
(442,529,o),
(383,558,o),
(308,558,cs),
(144,558,o),
(34,436,o),
(34,253,cs),
(34,70,o),
(144,-53,o),
(308,-53,cs)
);
},
{
closed = 1;
nodes = (
(236,330,o),
(285,383,o),
(357,383,cs),
(429,383,o),
(478,330,o),
(478,253,cs),
(478,176,o),
(429,122,o),
(357,122,cs),
(285,122,o),
(236,176,o),
(236,253,cs)
);
},
{
closed = 1;
nodes = (
(304,625,o),
(344,661,o),
(344,715,cs),
(344,770,o),
(304,807,o),
(251,807,cs),
(199,807,o),
(158,770,o),
(158,715,cs),
(158,661,o),
(199,625,o),
(251,625,cs)
);
},
{
closed = 1;
nodes = (
(525,625,o),
(566,661,o),
(566,715,cs),
(566,770,o),
(525,807,o),
(473,807,cs),
(420,807,o),
(380,770,o),
(380,715,cs),
(380,661,o),
(420,625,o),
(473,625,cs)
);
}
);
vertWidth = 1000;
width = 726;
}
);
note = cid00197;
unicode = 228;
}
{
glyphname = aring;
layers = (
{
hints = (
{
horizontal = 1;
place = (-53, 175);
place = (-53, 175);
type = Stem;
},
{
horizontal = 1;
place = (383, 175);
place = (383, 175);
type = Stem;
},
{
horizontal = 1;
place = (757, 100);
place = (757, 100);
type = Stem;
},
{
place = (34, 202);
place = (34, 202);
type = Stem;
},
{
place = (487, 175);
place = (487, 175);
type = Stem;
},
{
horizontal = 1;
place = (-42, 164);
place = (-42, 164);
type = Stem;
},
{
horizontal = 1;
place = (383, 164);
place = (383, 164);
type = Stem;
},
{
place = (478, 184);
place = (478, 184);
type = Stem;
},
{
horizontal = 1;
place = (581, 100);
place = (581, 100);
type = Stem;
},
{
place = (220, 104);
place = (220, 104);
type = Stem;
},
{
place = (400, 104);
place = (400, 104);
type = Stem;
}
);
layerId = m01;
shapes = (
{
closed = 1;
nodes = (
(383,-53,o),
(442,-24,o),
(485,28,c),
(487,-24,ls),
(487,-35,o),
(495,-42,o),
(505,-42,cs),
(644,-42,ls),
(655,-42,o),
(662,-35,o),
(662,-24,cs),
(662,530,ls),
(662,540,o),
(655,547,o),
(644,547,cs),
(505,547,ls),
(495,547,o),
(487,541,o),
(487,530,cs),
(485,478,l),
(442,529,o),
(383,558,o),
(308,558,cs),
(144,558,o),
(34,436,o),
(34,253,cs),
(34,70,o),
(144,-53,o),
(308,-53,cs)
);
},
{
closed = 1;
nodes = (
(236,330,o),
(285,383,o),
(357,383,cs),
(429,383,o),
(478,330,o),
(478,253,cs),
(478,176,o),
(429,122,o),
(357,122,cs),
(285,122,o),
(236,176,o),
(236,253,cs)
);
},
{
closed = 1;
nodes = (
(504,794,o),
(440,857,o),
(362,857,cs),
(284,857,o),
(220,794,o),
(220,719,cs),
(220,643,o),
(284,581,o),
(362,581,cs),
(440,581,o),
(504,643,o),
(504,719,cs)
);
},
{
closed = 1;
nodes = (
(400,698,o),
(382,681,o),
(362,681,cs),
(342,681,o),
(324,698,o),
(324,719,cs),
(324,740,o),
(342,757,o),
(362,757,cs),
(382,757,o),
(400,740,o),
(400,719,cs)
);
}
);
vertWidth = 1000;
width = 726;
}
);
note = cid00198;
unicode = 229;
}
{
glyphname = ae;
layers = (
{
hints = (
{
horizontal = 1;
place = (-63, 148);
place = (-63, 148);
type = Stem;
},
{
horizontal = 1;
place = (202, 109);
place = (202, 109);
type = Stem;
},
{
horizontal = 1;
place = (402, 156);
place = (402, 156);
type = Stem;
},
{
place = (34, 192);
place = (34, 192);
type = Stem;
},
{
horizontal = 1;
place = (-53, 165);
place = (-53, 165);
type = Stem;
},
{
horizontal = 1;
place = (185, 134);
place = (185, 134);
type = Stem;
},
{
horizontal = 1;
place = (398, 160);
place = (398, 160);
type = Stem;
}
);
layerId = m01;
shapes = (
{
closed = 1;
nodes = (
(375,-63,o),
(454,-24,o),
(517,39,c),
(572,-18,o),
(649,-53,o),
(739,-53,cs),
(851,-53,o),
(957,-10,o),
(1011,91,cs),
(1013,95,o),
(1014,98,o),
(1014,101,cs),
(1014,107,o),
(1010,111,o),
(1003,114,cs),
(861,162,l),
(852,164,o),
(844,162,o),
(837,154,cs),
(816,125,o),
(783,112,o),
(740,112,cs),
(684,112,o),
(647,144,o),
(632,202,c),
(1011,202,ls),
(1023,202,o),
(1029,208,o),
(1030,219,cs),
(1041,419,o),
(935,558,o),
(739,558,cs),
(649,558,o),
(574,521,o),
(530,460,c),
(485,532,o),
(399,558,o),
(316,558,cs),
(212,558,o),
(103,514,o),
(52,420,cs),
(46,410,o),
(49,402,o),
(60,396,cs),
(174,343,ls),
(184,338,o),
(192,340,o),
(200,350,cs),
(224,383,o),
(264,398,o),
(307,398,cs),
(370,398,o),
(415,361,o),
(415,311,cs),
(415,305,l),
(376,314,o),
(329,319,o),
(286,319,cs),
(123,319,o),
(34,237,o),
(34,132,cs),
(34,15,o),
(139,-63,o),
(273,-63,cs)
);
},
{
closed = 1;
nodes = (
(255,85,o),
(226,105,o),
(226,136,cs),
(226,167,o),
(261,185,o),
(326,185,cs),
(360,185,o),
(407,180,o),
(440,171,c),
(425,112,o),
(366,85,o),
(304,85,cs)
);
},
{
closed = 1;
nodes = (
(632,311,l),
(644,371,o),
(681,402,o),
(736,402,cs),
(789,402,o),
(823,369,o),
(834,311,c)
);
}
);
vertWidth = 1000;
width = 1061;
}
);
note = cid00145;
unicode = 230;
}
{
glyphname = ccedilla;
layers = (
{
hints = (
{
horizontal = 1;
place = (-333, 116);
place = (-333, 116);
type = Stem;
},
{
horizontal = 1;
place = (383, 175);
place = (383, 175);
type = Stem;
},
{
place = (34, 203);
place = (34, 203);
type = Stem;
},
{
place = (379, 148);
place = (379, 148);
type = Stem;
}
);
layerId = m01;
shapes = (
{
closed = 1;
nodes = (
(631,136,o),
(632,138,o),
(632,141,cs),
(632,148,o),
(627,154,o),
(619,155,c),
(469,193,ls),
(459,195,o),
(452,191,o),
(447,181,cs),
(428,140,o),
(391,122,o),
(350,122,cs),
(275,122,o),
(237,180,o),
(237,253,cs),
(237,326,o),
(275,383,o),
(350,383,cs),
(393,383,o),
(426,366,o),
(447,327,cs),
(451,319,o),
(457,315,o),
(464,315,cs),
(466,315,o),
(468,316,o),
(470,316,c),
(608,355,ls),
(617,357,o),
(621,362,o),
(621,370,cs),
(621,372,o),
(621,375,o),
(620,377,cs),
(577,504,o),
(471,558,o),
(339,558,cs),
(152,558,o),
(34,434,o),
(34,253,cs),
(34,94,o),
(125,-21,o),
(273,-47,c),
(240,-155,ls),
(237,-167,o),
(241,-172,o),
(253,-172,cs),
(281,-172,o),
(307,-172,o),
(330,-174,cs),
(357,-176,o),
(379,-183,o),
(379,-197,cs),
(379,-211,o),
(354,-217,o),
(322,-217,cs),
(291,-217,o),
(254,-212,o),
(224,-208,cs),
(212,-206,o),
(207,-212,o),
(208,-224,cs),
(214,-298,ls),
(215,-310,o),
(222,-318,o),
(233,-321,cs),
(264,-329,o),
(302,-333,o),
(334,-333,cs),
(446,-333,o),
(527,-276,o),
(527,-198,cs),
(527,-128,o),
(464,-93,o),
(405,-84,c),
(415,-46,l),
(514,-27,o),
(593,32,o),
(630,133,cs)
);
}
);
vertWidth = 1000;
width = 659;
}
);
note = cid00199;
unicode = 231;
}
{
glyphname = eacute;
layers = (
{
hints = (
{
horizontal = 1;
place = (-53, 165);
place = (-53, 165);
type = Stem;
},
{
horizontal = 1;
place = (202, 109);
place = (202, 109);
type = Stem;
},
{
horizontal = 1;
place = (402, 156);
place = (402, 156);
type = Stem;
},
{
horizontal = 1;
place = (614, 191);
place = (614, 191);
type = Stem;
},
{
place = (34, 601);
place = (34, 601);
type = Stem;
}
);
layerId = m01;
shapes = (
{
closed = 1;
nodes = (
(455,-53,o),
(561,-10,o),
(615,91,cs),
(617,95,o),
(618,98,o),
(618,101,cs),
(618,107,o),
(614,111,o),
(607,114,cs),
(465,162,l),
(456,164,o),
(448,162,o),
(441,154,cs),
(420,125,o),
(387,112,o),
(344,112,cs),
(288,112,o),
(251,144,o),
(236,202,c),
(615,202,ls),
(627,202,o),
(633,208,o),
(634,219,cs),
(645,419,o),
(539,558,o),
(343,558,cs),
(155,558,o),
(34,433,o),
(34,253,cs),
(34,72,o),
(155,-53,o),
(343,-53,cs)
);
},
{
closed = 1;
nodes = (
(236,311,l),
(248,371,o),
(285,402,o),
(340,402,cs),
(393,402,o),
(427,369,o),
(438,311,c)
);
},
{
closed = 1;
nodes = (
(374,614,ls),
(382,614,o),
(388,617,o),
(393,624,cs),
(503,786,l),
(505,790,o),
(506,793,o),
(506,796,cs),
(506,801,o),
(502,805,o),
(493,805,cs),
(316,805,ls),
(307,805,o),
(301,801,o),
(297,793,cs),
(216,633,l),
(215,630,o),
(214,627,o),
(214,625,cs),
(214,618,o),
(218,614,o),
(227,614,cs)
);
}
);
vertWidth = 1000;
width = 665;
}
);
note = cid00201;
unicode = 233;
}
{
glyphname = ecircumflex;
layers = (
{
hints = (
{
horizontal = 1;
place = (-53, 165);
place = (-53, 165);
type = Stem;
},
{
horizontal = 1;
place = (202, 109);
place = (202, 109);
type = Stem;
},
{
horizontal = 1;
place = (402, 156);
place = (402, 156);
type = Stem;
},
{
horizontal = 1;
place = (614, 196);
place = (614, 196);
type = Stem;
},
{
place = (34, 601);
place = (34, 601);
type = Stem;
}
);
layerId = m01;
shapes = (
{
closed = 1;
nodes = (
(455,-53,o),
(561,-10,o),
(615,91,cs),
(617,95,o),
(618,98,o),
(618,101,cs),
(618,107,o),
(614,111,o),
(607,114,cs),
(465,162,l),
(456,164,o),
(448,162,o),
(441,154,cs),
(420,125,o),
(387,112,o),
(344,112,cs),
(288,112,o),
(251,144,o),
(236,202,c),
(615,202,ls),
(627,202,o),
(633,208,o),
(634,219,cs),
(645,419,o),
(539,558,o),
(343,558,cs),
(155,558,o),
(34,433,o),
(34,253,cs),
(34,72,o),
(155,-53,o),
(343,-53,cs)
);
},
{
closed = 1;
nodes = (
(330,694,l),
(369,629,ls),
(375,619,o),
(384,614,o),
(396,614,cs),
(538,614,ls),
(550,614,o),
(552,619,o),
(545,628,cs),
(421,796,ls),
(414,805,o),
(404,810,o),
(392,810,cs),
(268,810,ls),
(256,810,o),
(246,805,o),
(239,796,cs),
(115,628,ls),
(108,619,o),
(110,614,o),
(122,614,cs),
(264,614,ls),
(276,614,o),
(285,619,o),
(291,629,cs)
);
},
{
closed = 1;
nodes = (
(236,311,l),
(248,371,o),
(285,402,o),
(340,402,cs),
(393,402,o),
(427,369,o),
(438,311,c)
);
}
);
vertWidth = 1000;
width = 665;
}
);
note = cid00202;
unicode = 234;
}
{
glyphname = igrave;
layers = (
{
hints = (
{
horizontal = 1;
place = (614, 191);
place = (614, 191);
type = Stem;
},
{
place = (64, 200);
place = (64, 200);
type = Stem;
}
);
layerId = m01;
shapes = (
{
closed = 1;
nodes = (
(64,-24,ls),
(64,-35,o),
(71,-42,o),
(82,-42,cs),
(246,-42,ls),
(257,-42,o),
(264,-35,o),
(264,-24,cs),
(264,530,ls),
(264,540,o),
(257,547,o),
(246,547,cs),
(82,547,ls),
(71,547,o),
(64,540,o),
(64,530,cs)
);
},
{
closed = 1;
nodes = (
(267,614,ls),
(276,614,o),
(280,618,o),
(280,625,cs),
(280,627,o),
(280,630,o),
(278,633,cs),
(197,793,ls),
(193,801,o),
(187,805,o),
(178,805,cs),
(1,805,ls),
(-8,805,o),
(-12,801,o),
(-12,796,cs),
(-12,793,o),
(-11,790,o),
(-9,786,c),
(101,624,ls),
(106,617,o),
(112,614,o),
(120,614,cs)
);
}
);
vertWidth = 1000;
width = 328;
}
);
note = cid00204;
unicode = 236;
}
{
glyphname = iacute;
layers = (
{
hints = (
{
horizontal = 1;
place = (614, 191);
place = (614, 191);
type = Stem;
},
{
place = (64, 200);
place = (64, 200);
type = Stem;
}
);
layerId = m01;
shapes = (
{
closed = 1;
nodes = (
(64,-24,ls),
(64,-35,o),
(71,-42,o),
(82,-42,cs),
(246,-42,ls),
(257,-42,o),
(264,-35,o),
(264,-24,cs),
(264,530,ls),
(264,540,o),
(257,547,o),
(246,547,cs),
(82,547,ls),
(71,547,o),
(64,540,o),
(64,530,cs)
);
},
{
closed = 1;
nodes = (
(208,614,ls),
(216,614,o),
(222,617,o),
(227,624,cs),
(337,786,l),
(339,790,o),
(340,793,o),
(340,796,cs),
(340,801,o),
(336,805,o),
(327,805,cs),
(150,805,ls),
(141,805,o),
(135,801,o),
(131,793,cs),
(50,633,l),
(49,630,o),
(48,627,o),
(48,625,cs),
(48,618,o),
(52,614,o),
(61,614,cs)
);
}
);
vertWidth = 1000;
width = 328;
}
);
note = cid00205;
unicode = 237;
}
{
glyphname = icircumflex;
layers = (
{
hints = (
{
horizontal = 1;
place = (614, 196);
place = (614, 196);
type = Stem;
},
{
place = (64, 200);
place = (64, 200);
type = Stem;
}
);
layerId = m01;
shapes = (
{
closed = 1;
nodes = (
(64,-24,ls),
(64,-35,o),
(71,-42,o),
(82,-42,cs),
(246,-42,ls),
(257,-42,o),
(264,-35,o),
(264,-24,cs),
(264,530,ls),
(264,540,o),
(257,547,o),
(246,547,cs),
(82,547,ls),
(71,547,o),
(64,540,o),
(64,530,cs)
);
},
{
closed = 1;
nodes = (
(164,694,l),
(203,629,ls),
(209,619,o),
(218,614,o),
(230,614,cs),
(372,614,ls),
(384,614,o),
(386,619,o),
(379,628,cs),
(255,796,ls),
(248,805,o),
(238,810,o),
(226,810,cs),
(102,810,ls),
(90,810,o),
(80,805,o),
(73,796,cs),
(-51,628,ls),
(-58,619,o),
(-56,614,o),
(-44,614,cs),
(98,614,ls),
(110,614,o),
(119,619,o),
(125,629,cs)
);
}
);
vertWidth = 1000;
width = 328;
}
);
note = cid00206;
unicode = 238;
}
{
glyphname = eth;
layers = (
{
hints = (
{
horizontal = 1;
place = (-53, 175);
place = (-53, 175);
type = Stem;
},
{
horizontal = 1;
place = (783, -20);
target = down;
type = TopGhost;
},
{
place = (34, 202);
place = (34, 202);
type = Stem;
},
{
place = (438, 192);
place = (438, 192);
type = Stem;
}
);
layerId = m01;
shapes = (
{
closed = 1;
nodes = (
(147,537,ls),
(140,527,o),
(141,520,o),
(151,513,cs),
(204,475,l),
(109,438,o),
(34,347,o),
(34,226,cs),
(34,60,o),
(163,-53,o),
(321,-53,cs),
(495,-53,o),
(630,67,o),
(630,306,cs),
(630,482,o),
(566,616,o),
(440,696,c),
(475,742,ls),
(482,752,o),
(481,759,o),
(471,766,cs),
(389,824,ls),
(379,831,o),
(370,830,o),
(363,820,cs),
(312,754,l),
(256,771,o),
(193,780,o),
(122,783,cs),
(110,783,o),
(104,777,o),
(103,765,cs),
(92,628,ls),
(91,616,o),
(97,610,o),
(109,610,cs),
(137,609,o),
(167,607,o),
(197,602,c)
);
},
{
closed = 1;
nodes = (
(236,274,o),
(277,313,o),
(337,313,cs),
(397,313,o),
(438,274,o),
(438,218,cs),
(438,162,o),
(397,122,o),
(337,122,cs),
(277,122,o),
(236,162,o),
(236,218,cs)
);
},
{
closed = 1;
nodes = (
(397,480,o),
(348,493,o),
(300,493,cs),
(295,493,o),
(289,493,o),
(284,492,c),
(335,560,l),
(381,537,o),
(416,501,o),
(434,453,c)
);
}
);
vertWidth = 1000;
width = 679;
}
);
note = cid00208;
unicode = 240;
}
{
glyphname = ntilde;
layers = (
{
hints = (
{
horizontal = 1;
place = (383, 175);
place = (383, 175);
type = Stem;
},
{
horizontal = 1;
place = (624, 196);
place = (624, 196);
type = Stem;
},
{
place = (64, 200);
place = (64, 200);
type = Stem;
},
{
place = (447, 200);
place = (447, 200);
type = Stem;
},
{
place = (64, 176);
place = (64, 176);
type = Stem;
},
{
horizontal = 1;
place = (383, 164);
place = (383, 164);
type = Stem;
},
{
place = (154, 144);
place = (154, 144);
type = Stem;
},
{
horizontal = 1;
place = (687, 133);
place = (687, 133);
type = Stem;
},
{
horizontal = 1;
place = (620, 196);
place = (620, 196);
type = Stem;
},
{
place = (443, 144);
place = (443, 144);
type = Stem;
},
{
horizontal = 1;
place = (620, 134);
place = (620, 134);
type = Stem;
}
);
layerId = m01;
shapes = (
{
closed = 1;
nodes = (
(246,-42,ls),
(257,-42,o),
(264,-35,o),
(264,-24,cs),
(264,253,ls),
(264,339,o),
(305,383,o),
(363,383,cs),
(421,383,o),
(447,349,o),
(447,267,cs),
(447,-24,ls),
(447,-35,o),
(454,-42,o),
(465,-42,cs),
(629,-42,ls),
(640,-42,o),
(647,-35,o),
(647,-24,cs),
(647,342,ls),
(647,477,o),
(568,558,o),
(428,558,cs),
(350,558,o),
(285,531,o),
(242,478,c),
(240,530,ls),
(240,541,o),
(232,547,o),
(221,547,cs),
(82,547,ls),
(71,547,o),
(64,540,o),
(64,530,cs),
(64,-24,ls),
(64,-35,o),
(71,-42,o),
(82,-42,cs)
);
},
{
closed = 1;
nodes = (
(154,630,o),
(161,624,o),
(173,624,cs),
(281,624,ls),
(293,624,o),
(298,629,o),
(298,642,cs),
(298,667,o),
(307,687,o),
(324,687,cs),
(356,687,o),
(382,620,o),
(457,620,cs),
(537,620,o),
(590,697,o),
(587,798,cs),
(587,810,o),
(580,816,o),
(568,816,cs),
(460,816,ls),
(448,816,o),
(443,811,o),
(443,798,cs),
(443,773,o),
(434,754,o),
(417,754,cs),
(385,754,o),
(359,820,o),
(284,820,cs),
(204,820,o),
(151,738,o),
(154,642,cs)
);
}
);
vertWidth = 1000;
width = 706;
}
);
note = cid00209;
unicode = 241;
}
{
glyphname = ograve;
layers = (
{
hints = (
{
horizontal = 1;
place = (-53, 175);
place = (-53, 175);
type = Stem;
},
{
horizontal = 1;
place = (383, 175);
place = (383, 175);
type = Stem;
},
{
horizontal = 1;
place = (614, 191);
place = (614, 191);
type = Stem;
},
{
place = (34, 202);
place = (34, 202);
type = Stem;
},
{
place = (478, 202);
place = (478, 202);
type = Stem;
}
);
layerId = m01;
shapes = (
{
closed = 1;
nodes = (
(553,-53,o),
(680,72,o),
(680,253,cs),
(680,433,o),
(553,558,o),
(357,558,cs),
(161,558,o),
(34,433,o),
(34,253,cs),
(34,72,o),
(161,-53,o),
(357,-53,cs)
);
},
{
closed = 1;
nodes = (
(236,330,o),
(285,383,o),
(357,383,cs),
(429,383,o),
(478,330,o),
(478,253,cs),
(478,176,o),
(429,122,o),
(357,122,cs),
(285,122,o),
(236,176,o),
(236,253,cs)
);
},
{
closed = 1;
nodes = (
(460,614,ls),
(469,614,o),
(473,618,o),
(473,625,cs),
(473,627,o),
(473,630,o),
(471,633,cs),
(390,793,ls),
(386,801,o),
(380,805,o),
(371,805,cs),
(194,805,ls),
(185,805,o),
(181,801,o),
(181,796,cs),
(181,793,o),
(182,790,o),
(184,786,c),
(294,624,ls),
(299,617,o),
(305,614,o),
(313,614,cs)
);
}
);
vertWidth = 1000;
width = 714;
}
);
note = cid00210;
unicode = 242;
}
{
glyphname = oacute;
layers = (
{
hints = (
{
horizontal = 1;
place = (-53, 175);
place = (-53, 175);
type = Stem;
},
{
horizontal = 1;
place = (383, 175);
place = (383, 175);
type = Stem;
},
{
horizontal = 1;
place = (614, 191);
place = (614, 191);
type = Stem;
},
{
place = (34, 202);
place = (34, 202);
type = Stem;
},
{
place = (478, 202);
place = (478, 202);
type = Stem;
}
);
layerId = m01;
shapes = (
{
closed = 1;
nodes = (
(553,-53,o),
(680,72,o),
(680,253,cs),
(680,433,o),
(553,558,o),
(357,558,cs),
(161,558,o),
(34,433,o),
(34,253,cs),
(34,72,o),
(161,-53,o),
(357,-53,cs)
);
},
{
closed = 1;
nodes = (
(236,330,o),
(285,383,o),
(357,383,cs),
(429,383,o),
(478,330,o),
(478,253,cs),
(478,176,o),
(429,122,o),
(357,122,cs),
(285,122,o),
(236,176,o),
(236,253,cs)
);
},
{
closed = 1;
nodes = (
(401,614,ls),
(409,614,o),
(415,617,o),
(420,624,cs),
(530,786,l),
(532,790,o),
(533,793,o),
(533,796,cs),
(533,801,o),
(529,805,o),
(520,805,cs),
(343,805,ls),
(334,805,o),
(328,801,o),
(324,793,cs),
(243,633,l),
(242,630,o),
(241,627,o),
(241,625,cs),
(241,618,o),
(245,614,o),
(254,614,cs)
);
}
);
vertWidth = 1000;
width = 714;
}
);
note = cid00211;
unicode = 243;
}
{
glyphname = ocircumflex;
layers = (
{
hints = (
{
horizontal = 1;
place = (-53, 175);
place = (-53, 175);
type = Stem;
},
{
horizontal = 1;
place = (383, 175);
place = (383, 175);
type = Stem;
},
{
horizontal = 1;
place = (614, 196);
place = (614, 196);
type = Stem;
},
{
place = (34, 202);
place = (34, 202);
type = Stem;
},
{
place = (478, 202);
place = (478, 202);
type = Stem;
}
);
layerId = m01;
shapes = (
{
closed = 1;
nodes = (
(553,-53,o),
(680,72,o),
(680,253,cs),
(680,433,o),
(553,558,o),
(357,558,cs),
(161,558,o),
(34,433,o),
(34,253,cs),
(34,72,o),
(161,-53,o),
(357,-53,cs)
);
},
{
closed = 1;
nodes = (
(357,694,l),
(396,629,ls),
(402,619,o),
(411,614,o),
(423,614,cs),
(565,614,ls),
(577,614,o),
(579,619,o),
(572,628,cs),
(448,796,ls),
(441,805,o),
(431,810,o),
(419,810,cs),
(295,810,ls),
(283,810,o),
(273,805,o),
(266,796,cs),
(142,628,ls),
(135,619,o),
(137,614,o),
(149,614,cs),
(291,614,ls),
(303,614,o),
(312,619,o),
(318,629,cs)
);
},
{
closed = 1;
nodes = (
(236,330,o),
(285,383,o),
(357,383,cs),
(429,383,o),
(478,330,o),
(478,253,cs),
(478,176,o),
(429,122,o),
(357,122,cs),
(285,122,o),
(236,176,o),
(236,253,cs)
);
}
);
vertWidth = 1000;
width = 714;
}
);
note = cid00212;
unicode = 244;
}
{
glyphname = otilde;
layers = (
{
hints = (
{
horizontal = 1;
place = (-53, 175);
place = (-53, 175);
type = Stem;
},
{
horizontal = 1;
place = (383, 175);
place = (383, 175);
type = Stem;
},
{
horizontal = 1;
place = (624, 196);
place = (624, 196);
type = Stem;
},
{
place = (34, 202);
place = (34, 202);
type = Stem;
},
{
place = (478, 202);
place = (478, 202);
type = Stem;
},
{
place = (130, 144);
place = (130, 144);
type = Stem;
},
{
horizontal = 1;
place = (687, 133);
place = (687, 133);
type = Stem;
},
{
horizontal = 1;
place = (620, 196);
place = (620, 196);
type = Stem;
},
{
place = (419, 144);
place = (419, 144);
type = Stem;
},
{
horizontal = 1;
place = (620, 134);
place = (620, 134);
type = Stem;
}
);
layerId = m01;
shapes = (
{
closed = 1;
nodes = (
(553,-53,o),
(680,72,o),
(680,253,cs),
(680,433,o),
(553,558,o),
(357,558,cs),
(161,558,o),
(34,433,o),
(34,253,cs),
(34,72,o),
(161,-53,o),
(357,-53,cs)
);
},
{
closed = 1;
nodes = (
(130,630,o),
(137,624,o),
(149,624,cs),
(257,624,ls),
(269,624,o),
(274,629,o),
(274,642,cs),
(274,667,o),
(283,687,o),
(300,687,cs),
(332,687,o),
(358,620,o),
(433,620,cs),
(513,620,o),
(566,697,o),
(563,798,cs),
(563,810,o),
(556,816,o),
(544,816,cs),
(436,816,ls),
(424,816,o),
(419,811,o),
(419,798,cs),
(419,773,o),
(410,754,o),
(393,754,cs),
(361,754,o),
(335,820,o),
(260,820,cs),
(180,820,o),
(127,738,o),
(130,642,cs)
);
},
{
closed = 1;
nodes = (
(236,330,o),
(285,383,o),
(357,383,cs),
(429,383,o),
(478,330,o),
(478,253,cs),
(478,176,o),
(429,122,o),
(357,122,cs),
(285,122,o),
(236,176,o),
(236,253,cs)
);
}
);
vertWidth = 1000;
width = 714;
}
);
note = cid00213;
unicode = 245;
}
{
glyphname = odieresis;
layers = (
{
hints = (
{
horizontal = 1;
place = (-53, 175);
place = (-53, 175);
type = Stem;
},
{
horizontal = 1;
place = (383, 175);
place = (383, 175);
type = Stem;
},
{
horizontal = 1;
place = (626, 182);
place = (626, 182);
type = Stem;
},
{
place = (34, 202);
place = (34, 202);
type = Stem;
},
{
place = (478, 202);
place = (478, 202);
type = Stem;
},
{
place = (153, 186);
place = (153, 186);
type = Stem;
},
{
place = (375, 186);
place = (375, 186);
type = Stem;
}
);
layerId = m01;
shapes = (
{
closed = 1;
nodes = (
(553,-53,o),
(680,72,o),
(680,253,cs),
(680,433,o),
(553,558,o),
(357,558,cs),
(161,558,o),
(34,433,o),
(34,253,cs),
(34,72,o),
(161,-53,o),
(357,-53,cs)
);
},
{
closed = 1;
nodes = (
(236,330,o),
(285,383,o),
(357,383,cs),
(429,383,o),
(478,330,o),
(478,253,cs),
(478,176,o),
(429,122,o),
(357,122,cs),
(285,122,o),
(236,176,o),
(236,253,cs)
);
},
{
closed = 1;
nodes = (
(299,626,o),
(339,662,o),
(339,716,cs),
(339,771,o),
(299,808,o),
(246,808,cs),
(194,808,o),
(153,771,o),
(153,716,cs),
(153,662,o),
(194,626,o),
(246,626,cs)
);
},
{
closed = 1;
nodes = (
(520,626,o),
(561,662,o),
(561,716,cs),
(561,771,o),
(520,808,o),
(468,808,cs),
(415,808,o),
(375,771,o),
(375,716,cs),
(375,662,o),
(415,626,o),
(468,626,cs)
);
}
);
vertWidth = 1000;
width = 714;
}
);
note = cid00214;
unicode = 246;
}
{
glyphname = divide.full;
layers = (
{
hints = (
{
horizontal = 1;
place = (41, 205);
place = (41, 205);
type = Stem;
},
{
horizontal = 1;
place = (287, 184);
place = (287, 184);
type = Stem;
},
{
horizontal = 1;
place = (512, 206);
place = (512, 206);
type = Stem;
},
{
place = (395, 210);
place = (395, 210);
type = Stem;
}
);
layerId = m01;
shapes = (
{
closed = 1;
nodes = (
(440,718,o),
(395,675,o),
(395,615,cs),
(395,555,o),
(440,512,o),
(500,512,cs),
(560,512,o),
(605,555,o),
(605,615,cs),
(605,675,o),
(560,718,o),
(500,718,cs)
);
},
{
closed = 1;
nodes = (
(181,307,ls),
(181,295,o),
(189,287,o),
(200,287,cs),
(800,287,ls),
(811,287,o),
(819,295,o),
(819,307,cs),
(819,452,ls),
(819,463,o),
(811,471,o),
(800,471,cs),
(200,471,ls),
(189,471,o),
(181,463,o),
(181,452,cs)
);
},
{
closed = 1;
nodes = (
(440,246,o),
(395,203,o),
(395,143,cs),
(395,83,o),
(440,41,o),
(500,41,cs),
(560,41,o),
(605,83,o),
(605,143,cs),
(605,203,o),
(560,246,o),
(500,246,cs)
);
}
);
vertWidth = 1000;
width = 1000;
}
);
note = cid00696;
unicode = 247;
}
{
glyphname = oslash;
layers = (
{
hints = (
{
horizontal = 1;
place = (-16, 21);
target = up;
type = BottomGhost;
},
{
horizontal = 1;
place = (383, 175);
place = (383, 175);
type = Stem;
},
{
place = (34, 202);
place = (34, 202);
type = Stem;
},
{
place = (478, 202);
place = (478, 202);
type = Stem;
},
{
horizontal = 1;
place = (-53, 175);
place = (-53, 175);
type = Stem;
}
);
layerId = m01;
shapes = (
{
closed = 1;
nodes = (
(656,526,ls),
(664,535,o),
(663,544,o),
(654,552,cs),
(609,590,ls),
(600,598,o),
(591,597,o),
(583,588,cs),
(525,520,l),
(478,545,o),
(421,558,o),
(357,558,cs),
(161,558,o),
(34,433,o),
(34,253,cs),
(34,167,o),
(63,93,o),
(114,40,c),
(58,-26,ls),
(50,-35,o),
(51,-44,o),
(60,-52,cs),
(104,-89,ls),
(113,-97,o),
(122,-96,o),
(130,-87,cs),
(191,-16,l),
(238,-40,o),
(294,-53,o),
(357,-53,cs),
(553,-53,o),
(680,72,o),
(680,253,cs),
(680,338,o),
(652,410,o),
(602,463,c)
);
},
{
closed = 1;
nodes = (
(236,330,o),
(285,383,o),
(357,383,cs),
(373,383,o),
(388,380,o),
(401,375,c),
(247,195,l),
(240,212,o),
(236,232,o),
(236,253,cs)
);
},
{
closed = 1;
nodes = (
(478,176,o),
(429,122,o),
(357,122,cs),
(342,122,o),
(328,124,o),
(315,129,c),
(469,308,l),
(475,291,o),
(478,273,o),
(478,253,cs)
);
}
);
vertWidth = 1000;
width = 714;
}
);
note = cid00148;
unicode = 248;
}
{
glyphname = ugrave;
layers = (
{
hints = (
{
horizontal = 1;
place = (-53, 175);
place = (-53, 175);
type = Stem;
},
{
horizontal = 1;
place = (614, 191);
place = (614, 191);
type = Stem;
},
{
place = (60, 200);
place = (60, 200);
type = Stem;
},
{
place = (440, 200);
place = (440, 200);
type = Stem;
},
{
place = (465, 175);
place = (465, 175);
type = Stem;
},
{
horizontal = 1;
place = (-42, 164);
place = (-42, 164);
type = Stem;
}
);
layerId = m01;
shapes = (
{
closed = 1;
nodes = (
(355,-53,o),
(419,-26,o),
(462,29,c),
(465,-24,ls),
(465,-36,o),
(472,-42,o),
(484,-42,cs),
(622,-42,ls),
(633,-42,o),
(640,-35,o),
(640,-24,cs),
(640,530,ls),
(640,540,o),
(633,547,o),
(622,547,cs),
(458,547,ls),
(447,547,o),
(440,540,o),
(440,530,cs),
(440,252,ls),
(440,165,o),
(400,122,o),
(343,122,cs),
(285,122,o),
(260,155,o),
(260,237,cs),
(260,530,ls),
(260,540,o),
(253,547,o),
(242,547,cs),
(78,547,ls),
(67,547,o),
(60,540,o),
(60,530,cs),
(60,163,ls),
(60,29,o),
(139,-53,o),
(277,-53,cs)
);
},
{
closed = 1;
nodes = (
(453,614,ls),
(462,614,o),
(466,618,o),
(466,625,cs),
(466,627,o),
(466,630,o),
(464,633,cs),
(383,793,ls),
(379,801,o),
(373,805,o),
(364,805,cs),
(187,805,ls),
(178,805,o),
(174,801,o),
(174,796,cs),
(174,793,o),
(175,790,o),
(177,786,c),
(287,624,ls),
(292,617,o),
(298,614,o),
(306,614,cs)
);
}
);
vertWidth = 1000;
width = 704;
}
);
note = cid00216;
unicode = 249;
}
{
glyphname = ucircumflex;
layers = (
{
hints = (
{
horizontal = 1;
place = (-53, 175);
place = (-53, 175);
type = Stem;
},
{
horizontal = 1;
place = (614, 196);
place = (614, 196);
type = Stem;
},
{
place = (60, 200);
place = (60, 200);
type = Stem;
},
{
place = (440, 200);
place = (440, 200);
type = Stem;
},
{
place = (465, 175);
place = (465, 175);
type = Stem;
},
{
horizontal = 1;
place = (-42, 164);
place = (-42, 164);
type = Stem;
},
{
place = (131, 129);
place = (131, 129);
type = Stem;
},
{
place = (440, 129);
place = (440, 129);
type = Stem;
}
);
layerId = m01;
shapes = (
{
closed = 1;
nodes = (
(355,-53,o),
(419,-26,o),
(462,29,c),
(465,-24,ls),
(465,-36,o),
(472,-42,o),
(484,-42,cs),
(622,-42,ls),
(633,-42,o),
(640,-35,o),
(640,-24,cs),
(640,530,ls),
(640,540,o),
(633,547,o),
(622,547,cs),
(458,547,ls),
(447,547,o),
(440,540,o),
(440,530,cs),
(440,252,ls),
(440,165,o),
(400,122,o),
(343,122,cs),
(285,122,o),
(260,155,o),
(260,237,cs),
(260,530,ls),
(260,540,o),
(253,547,o),
(242,547,cs),
(78,547,ls),
(67,547,o),
(60,540,o),
(60,530,cs),
(60,163,ls),
(60,29,o),
(139,-53,o),
(277,-53,cs)
);
},
{
closed = 1;
nodes = (
(350,694,l),
(389,629,ls),
(395,619,o),
(404,614,o),
(416,614,cs),
(558,614,ls),
(570,614,o),
(572,619,o),
(565,628,cs),
(441,796,ls),
(434,805,o),
(424,810,o),
(412,810,cs),
(288,810,ls),
(276,810,o),
(266,805,o),
(259,796,cs),
(135,628,ls),
(128,619,o),
(130,614,o),
(142,614,cs),
(284,614,ls),
(296,614,o),
(305,619,o),
(311,629,cs)
);
}
);
vertWidth = 1000;
width = 704;
}
);
note = cid00218;
unicode = 251;
}
{
glyphname = udieresis;
layers = (
{
hints = (
{
horizontal = 1;
place = (-53, 175);
place = (-53, 175);
type = Stem;
},
{
horizontal = 1;
place = (626, 182);
place = (626, 182);
type = Stem;
},
{
place = (60, 200);
place = (60, 200);
type = Stem;
},
{
place = (440, 200);
place = (440, 200);
type = Stem;
},
{
place = (465, 175);
place = (465, 175);
type = Stem;
},
{
horizontal = 1;
place = (-42, 164);
place = (-42, 164);
type = Stem;
},
{
place = (146, 186);
place = (146, 186);
type = Stem;
},
{
place = (368, 186);
place = (368, 186);
type = Stem;
}
);
layerId = m01;
shapes = (
{
closed = 1;
nodes = (
(355,-53,o),
(419,-26,o),
(462,29,c),
(465,-24,ls),
(465,-36,o),
(472,-42,o),
(484,-42,cs),
(622,-42,ls),
(633,-42,o),
(640,-35,o),
(640,-24,cs),
(640,530,ls),
(640,540,o),
(633,547,o),
(622,547,cs),
(458,547,ls),
(447,547,o),
(440,540,o),
(440,530,cs),
(440,252,ls),
(440,165,o),
(400,122,o),
(343,122,cs),
(285,122,o),
(260,155,o),
(260,237,cs),
(260,530,ls),
(260,540,o),
(253,547,o),
(242,547,cs),
(78,547,ls),
(67,547,o),
(60,540,o),
(60,530,cs),
(60,163,ls),
(60,29,o),
(139,-53,o),
(277,-53,cs)
);
},
{
closed = 1;
nodes = (
(292,626,o),
(332,662,o),
(332,716,cs),
(332,771,o),
(292,808,o),
(239,808,cs),
(187,808,o),
(146,771,o),
(146,716,cs),
(146,662,o),
(187,626,o),
(239,626,cs)
);
},
{
closed = 1;
nodes = (
(513,626,o),
(554,662,o),
(554,716,cs),
(554,771,o),
(513,808,o),
(461,808,cs),
(408,808,o),
(368,771,o),
(368,716,cs),
(368,662,o),
(408,626,o),
(461,626,cs)
);
}
);
vertWidth = 1000;
width = 704;
}
);
note = cid00219;
unicode = 252;
}
{
glyphname = yacute;
layers = (
{
hints = (
{
horizontal = 1;
place = (-284, 21);
target = up;
type = BottomGhost;
},
{
horizontal = 1;
place = (614, 191);
place = (614, 191);
type = Stem;
},
{
place = (16, 656);
place = (16, 656);
type = Stem;
}
);
layerId = m01;
shapes = (
{
closed = 1;
nodes = (
(324,-284,ls),
(333,-284,o),
(340,-279,o),
(344,-270,cs),
(670,527,ls),
(671,530,o),
(672,533,o),
(672,535,cs),
(672,542,o),
(666,547,o),
(657,547,cs),
(495,547,ls),
(485,547,o),
(478,542,o),
(474,534,c),
(352,222,l),
(230,534,l),
(225,542,o),
(218,547,o),
(210,547,cs),
(32,547,ls),
(22,547,o),
(16,542,o),
(16,535,cs),
(16,532,o),
(17,530,o),
(18,527,cs),
(252,0,l),
(146,-264,ls),
(142,-275,o),
(147,-284,o),
(160,-284,cs)
);
},
{
closed = 1;
nodes = (
(396,614,ls),
(404,614,o),
(410,617,o),
(415,624,cs),
(525,786,l),
(527,790,o),
(528,793,o),
(528,796,cs),
(528,801,o),
(524,805,o),
(515,805,cs),
(338,805,ls),
(329,805,o),
(323,801,o),
(319,793,cs),
(238,633,l),
(237,630,o),
(236,627,o),
(236,625,cs),
(236,618,o),
(240,614,o),
(249,614,cs)
);
}
);
vertWidth = 1000;
width = 688;
}
);
note = cid00220;
unicode = 253;
}
{
glyphname = thorn;
layers = (
{
hints = (
{
horizontal = 1;
place = (-284, 21);
target = up;
type = BottomGhost;
},
{
horizontal = 1;
place = (-53, 175);
place = (-53, 175);
type = Stem;
},
{
horizontal = 1;
place = (383, 175);
place = (383, 175);
type = Stem;
},
{
place = (64, 200);
place = (64, 200);
type = Stem;
},
{
place = (490, 202);
place = (490, 202);
type = Stem;
},
{
place = (64, 184);
place = (64, 184);
type = Stem;
}
);
layerId = m01;
shapes = (
{
closed = 1;
nodes = (
(246,-284,ls),
(257,-284,o),
(264,-277,o),
(264,-266,cs),
(264,3,l),
(304,-33,o),
(356,-53,o),
(418,-53,cs),
(582,-53,o),
(692,70,o),
(692,253,cs),
(692,436,o),
(582,558,o),
(418,558,cs),
(356,558,o),
(304,538,o),
(264,501,c),
(264,772,ls),
(264,783,o),
(257,790,o),
(246,790,cs),
(82,790,ls),
(71,790,o),
(64,783,o),
(64,772,cs),
(64,-266,ls),
(64,-277,o),
(71,-284,o),
(82,-284,cs)
);
},
{
closed = 1;
nodes = (
(248,330,o),
(297,383,o),
(369,383,cs),
(441,383,o),
(490,330,o),
(490,253,cs),
(490,176,o),
(441,122,o),
(369,122,cs),
(297,122,o),
(248,176,o),
(248,253,cs)
);
}
);
vertWidth = 1000;
width = 726;
}
);
note = cid00221;
unicode = 254;
}
{
glyphname = ydieresis;
layers = (
{
hints = (
{
horizontal = 1;
place = (-284, 21);
target = up;
type = BottomGhost;
},
{
horizontal = 1;
place = (626, 182);
place = (626, 182);
type = Stem;
},
{
place = (148, 186);
place = (148, 186);
type = Stem;
},
{
place = (370, 186);
place = (370, 186);
type = Stem;
}
);
layerId = m01;
shapes = (
{
closed = 1;
nodes = (
(324,-284,ls),
(333,-284,o),
(340,-279,o),
(344,-270,cs),
(670,527,ls),
(671,530,o),
(672,533,o),
(672,535,cs),
(672,542,o),
(666,547,o),
(657,547,cs),
(495,547,ls),
(485,547,o),
(478,542,o),
(474,534,c),
(352,222,l),
(230,534,l),
(225,542,o),
(218,547,o),
(210,547,cs),
(32,547,ls),
(22,547,o),
(16,542,o),
(16,535,cs),
(16,532,o),
(17,530,o),
(18,527,cs),
(252,0,l),
(146,-264,ls),
(142,-275,o),
(147,-284,o),
(160,-284,cs)
);
},
{
closed = 1;
nodes = (
(294,626,o),
(334,662,o),
(334,716,cs),
(334,771,o),
(294,808,o),
(241,808,cs),
(189,808,o),
(148,771,o),
(148,716,cs),
(148,662,o),
(189,626,o),
(241,626,cs)
);
},
{
closed = 1;
nodes = (
(515,626,o),
(556,662,o),
(556,716,cs),
(556,771,o),
(515,808,o),
(463,808,cs),
(410,808,o),
(370,771,o),
(370,716,cs),
(370,662,o),
(410,626,o),
(463,626,cs)
);
}
);
vertWidth = 1000;
width = 688;
}
);
note = cid00222;
unicode = 255;
}
{
glyphname = Amacron;
layers = (
{
hints = (
{
horizontal = 1;
place = (98, 168);
place = (98, 168);
type = Stem;
},
{
horizontal = 1;
place = (866, 143);
place = (866, 143);
type = Stem;
},
{
place = (15, 824);
place = (15, 824);
type = Stem;
},
{
place = (237, 380);
place = (237, 380);
type = Stem;
}
);
layerId = m01;
shapes = (
{
closed = 1;
nodes = (
(213,-42,ls),
(223,-42,o),
(230,-38,o),
(233,-28,cs),
(277,98,l),
(573,98,l),
(618,-28,ls),
(621,-38,o),
(628,-42,o),
(638,-42,cs),
(824,-42,ls),
(833,-42,o),
(839,-37,o),
(839,-29,cs),
(839,-27,o),
(838,-25,o),
(837,-22,cs),
(517,759,ls),
(513,768,o),
(507,772,o),
(497,772,cs),
(357,772,ls),
(348,772,o),
(340,768,o),
(337,759,cs),
(17,-22,ls),
(12,-33,o),
(18,-42,o),
(31,-42,cs)
);
},
{
closed = 1;
nodes = (
(255,1009,ls),
(243,1009,o),
(237,1003,o),
(237,991,cs),
(237,884,ls),
(237,872,o),
(243,866,o),
(255,866,cs),
(599,866,ls),
(611,866,o),
(617,872,o),
(617,884,cs),
(617,991,ls),
(617,1003,o),
(611,1009,o),
(599,1009,cs)
);
},
{
closed = 1;
nodes = (
(513,266,l),
(336,266,l),
(424,517,l)
);
}
);
vertWidth = 1000;
width = 854;
}
);
note = cid25718;
unicode = 256;
}
{
glyphname = Abreve;
layers = (
{
hints = (
{
horizontal = 1;
place = (98, 168);
place = (98, 168);
type = Stem;
},
{
horizontal = 1;
place = (831, 208);
place = (831, 208);
type = Stem;
},
{
place = (15, 824);
place = (15, 824);
type = Stem;
},
{
place = (466, 169);
place = (466, 169);
type = Stem;
},
{
horizontal = 1;
place = (831, 128);
place = (831, 128);
type = Stem;
}
);
layerId = m01;
shapes = (
{
closed = 1;
nodes = (
(213,-42,ls),
(223,-42,o),
(230,-38,o),
(233,-28,cs),
(277,98,l),
(573,98,l),
(618,-28,ls),
(621,-38,o),
(628,-42,o),
(638,-42,cs),
(824,-42,ls),
(833,-42,o),
(839,-37,o),
(839,-29,cs),
(839,-27,o),
(838,-25,o),
(837,-22,cs),
(517,759,ls),
(513,768,o),
(507,772,o),
(497,772,cs),
(357,772,ls),
(348,772,o),
(340,768,o),
(337,759,cs),
(17,-22,ls),
(12,-33,o),
(18,-42,o),
(31,-42,cs)
);
},
{
closed = 1;
nodes = (
(636,1033,o),
(629,1039,o),
(617,1039,cs),
(483,1039,ls),
(471,1039,o),
(466,1033,o),
(466,1021,cs),
(465,989,o),
(455,959,o),
(427,959,cs),
(399,959,o),
(389,989,o),
(388,1021,cs),
(388,1033,o),
(383,1039,o),
(371,1039,cs),
(237,1039,ls),
(225,1039,o),
(218,1033,o),
(219,1021,cs),
(221,901,o),
(317,831,o),
(427,831,cs),
(537,831,o),
(633,901,o),
(635,1021,cs)
);
},
{
closed = 1;
nodes = (
(513,266,l),
(336,266,l),
(424,517,l)
);
}
);
vertWidth = 1000;
width = 854;
}
);
note = cid25720;
unicode = 258;
}
{
glyphname = Aogonek;
layers = (
{
hints = (
{
horizontal = 1;
place = (98, 168);
place = (98, 168);
type = Stem;
},
{
place = (15, 824);
place = (15, 824);
type = Stem;
},
{
horizontal = 1;
place = (-302, 124);
place = (-302, 124);
type = Stem;
},
{
place = (514, 172);
place = (514, 172);
type = Stem;
}
);
layerId = m01;
shapes = (
{
closed = 1;
nodes = (
(213,-42,ls),
(223,-42,o),
(230,-38,o),
(233,-28,cs),
(277,98,l),
(573,98,l),
(618,-28,ls),
(619,-30,o),
(619,-32,o),
(620,-33,c),
(619,-33,o),
(618,-34,o),
(617,-34,c),
(550,-65,o),
(514,-112,o),
(514,-157,cs),
(514,-246,o),
(608,-302,o),
(710,-302,cs),
(745,-302,o),
(777,-297,o),
(806,-284,cs),
(817,-279,o),
(822,-271,o),
(823,-258,cs),
(826,-187,ls),
(827,-175,o),
(822,-171,o),
(810,-174,cs),
(796,-177,o),
(783,-178,o),
(772,-178,cs),
(717,-178,o),
(686,-148,o),
(686,-117,cs),
(686,-93,o),
(706,-63,o),
(746,-42,c),
(824,-42,ls),
(833,-42,o),
(839,-37,o),
(839,-29,cs),
(839,-27,o),
(838,-25,o),
(837,-22,cs),
(517,759,ls),
(513,768,o),
(507,772,o),
(497,772,cs),
(357,772,ls),
(348,772,o),
(340,768,o),
(337,759,cs),
(17,-22,ls),
(12,-33,o),
(18,-42,o),
(31,-42,cs)
);
},
{
closed = 1;
nodes = (
(513,266,l),
(336,266,l),
(424,517,l)
);
}
);
vertWidth = 1000;
width = 854;
}
);
note = cid25722;
unicode = 260;
}
{
glyphname = aogonek;
layers = (
{
hints = (
{
horizontal = 1;
place = (-302, 124);
place = (-302, 124);
type = Stem;
},
{
horizontal = 1;
place = (-53, 175);
place = (-53, 175);
type = Stem;
},
{
horizontal = 1;
place = (383, 175);
place = (383, 175);
type = Stem;
},
{
place = (34, 202);
place = (34, 202);
type = Stem;
},
{
place = (487, 175);
place = (487, 175);
type = Stem;
},
{
place = (389, 172);
place = (389, 172);
type = Stem;
},
{
horizontal = 1;
place = (383, 164);
place = (383, 164);
type = Stem;
},
{
place = (478, 184);
place = (478, 184);
type = Stem;
}
);
layerId = m01;
shapes = (
{
closed = 1;
nodes = (
(383,-53,o),
(442,-24,o),
(485,28,c),
(487,-24,ls),
(487,-28,o),
(488,-32,o),
(490,-35,c),
(424,-66,o),
(389,-112,o),
(389,-157,cs),
(389,-246,o),
(483,-302,o),
(585,-302,cs),
(620,-302,o),
(652,-297,o),
(681,-284,cs),
(692,-279,o),
(697,-271,o),
(698,-258,cs),
(701,-187,ls),
(702,-175,o),
(697,-171,o),
(685,-174,cs),
(671,-177,o),
(658,-178,o),
(647,-178,cs),
(592,-178,o),
(561,-148,o),
(561,-117,cs),
(561,-93,o),
(581,-63,o),
(621,-42,c),
(644,-42,ls),
(655,-42,o),
(662,-35,o),
(662,-24,cs),
(662,530,ls),
(662,540,o),
(655,547,o),
(644,547,cs),
(505,547,ls),
(495,547,o),
(487,541,o),
(487,530,cs),
(485,478,l),
(442,529,o),
(383,558,o),
(308,558,cs),
(144,558,o),
(34,436,o),
(34,253,cs),
(34,70,o),
(144,-53,o),
(308,-53,cs)
);
},
{
closed = 1;
nodes = (
(236,330,o),
(285,383,o),
(357,383,cs),
(429,383,o),
(478,330,o),
(478,253,cs),
(478,176,o),
(429,122,o),
(357,122,cs),
(285,122,o),
(236,176,o),
(236,253,cs)
);
}
);
vertWidth = 1000;
width = 726;
}
);
note = cid25723;
unicode = 261;
}
{
glyphname = Cacute;
layers = (
{
hints = (
{
horizontal = 1;
place = (-58, 201);
place = (-58, 201);
type = Stem;
},
{
horizontal = 1;
place = (587, 201);
place = (587, 201);
type = Stem;
},
{
horizontal = 1;
place = (838, 191);
place = (838, 191);
type = Stem;
},
{
place = (55, 214);
place = (55, 214);
type = Stem;
}
);
layerId = m01;
shapes = (
{
closed = 1;
nodes = (
(662,-58,o),
(798,52,o),
(846,208,cs),
(848,216,o),
(844,223,o),
(833,226,cs),
(664,271,ls),
(654,274,o),
(648,270,o),
(643,259,cs),
(613,176,o),
(549,143,o),
(468,143,cs),
(350,143,o),
(269,229,o),
(269,365,cs),
(269,500,o),
(349,587,o),
(468,587,cs),
(538,587,o),
(590,558,o),
(623,501,cs),
(627,495,o),
(633,491,o),
(639,491,cs),
(641,491,o),
(643,492,o),
(645,493,c),
(815,538,l),
(823,539,o),
(828,545,o),
(828,552,cs),
(828,554,o),
(827,557,o),
(826,560,cs),
(769,705,o),
(645,788,o),
(468,788,cs),
(232,788,o),
(55,618,o),
(55,365,cs),
(55,112,o),
(220,-58,o),
(467,-58,cs)
);
},
{
closed = 1;
nodes = (
(512,838,ls),
(520,838,o),
(526,841,o),
(531,848,cs),
(641,1010,l),
(643,1014,o),
(644,1017,o),
(644,1020,cs),
(644,1025,o),
(640,1029,o),
(631,1029,cs),
(454,1029,ls),
(445,1029,o),
(439,1025,o),
(435,1017,cs),
(354,857,l),
(353,854,o),
(352,851,o),
(352,849,cs),
(352,842,o),
(356,838,o),
(365,838,cs)
);
}
);
vertWidth = 1000;
width = 896;
}
);
note = cid25724;
unicode = 262;
}
{
glyphname = cacute;
layers = (
{
hints = (
{
horizontal = 1;
place = (-53, 175);
place = (-53, 175);
type = Stem;
},
{
horizontal = 1;
place = (383, 175);
place = (383, 175);
type = Stem;
},
{
horizontal = 1;
place = (613, 191);
place = (613, 191);
type = Stem;
},
{
place = (34, 203);
place = (34, 203);
type = Stem;
}
);
layerId = m01;
shapes = (
{
closed = 1;
nodes = (
(472,-53,o),
(584,7,o),
(630,133,cs),
(631,136,o),
(632,138,o),
(632,141,cs),
(632,148,o),
(627,154,o),
(619,155,c),
(469,193,ls),
(459,195,o),
(452,191,o),
(447,181,cs),
(428,140,o),
(391,122,o),
(350,122,cs),
(275,122,o),
(237,180,o),
(237,253,cs),
(237,326,o),
(275,383,o),
(350,383,cs),
(393,383,o),
(426,366,o),
(447,327,cs),
(451,319,o),
(457,315,o),
(464,315,cs),
(466,315,o),
(468,316,o),
(470,316,c),
(608,355,ls),
(617,357,o),
(621,362,o),
(621,370,cs),
(621,372,o),
(621,375,o),
(620,377,cs),
(577,504,o),
(471,558,o),
(339,558,cs),
(152,558,o),
(34,434,o),
(34,253,cs),
(34,71,o),
(152,-53,o),
(339,-53,cs)
);
},
{
closed = 1;
nodes = (
(382,613,ls),
(390,613,o),
(396,616,o),
(401,623,cs),
(511,785,l),
(513,789,o),
(514,792,o),
(514,795,cs),
(514,800,o),
(510,804,o),
(501,804,cs),
(324,804,ls),
(315,804,o),
(309,800,o),
(305,792,cs),
(224,632,l),
(223,629,o),
(222,626,o),
(222,624,cs),
(222,617,o),
(226,613,o),
(235,613,cs)
);
}
);
vertWidth = 1000;
width = 659;
}
);
note = cid25725;
unicode = 263;
}
{
glyphname = Cdotaccent;
layers = (
{
hints = (
{
horizontal = 1;
place = (-58, 201);
place = (-58, 201);
type = Stem;
},
{
horizontal = 1;
place = (587, 201);
place = (587, 201);
type = Stem;
},
{
horizontal = 1;
place = (848, 179);
place = (848, 179);
type = Stem;
},
{
place = (55, 214);
place = (55, 214);
type = Stem;
},
{
place = (375, 186);
place = (375, 186);
type = Stem;
}
);
layerId = m01;
shapes = (
{
closed = 1;
nodes = (
(662,-58,o),
(798,52,o),
(846,208,cs),
(848,216,o),
(844,223,o),
(833,226,cs),
(664,271,ls),
(654,274,o),
(648,270,o),
(643,259,cs),
(613,176,o),
(549,143,o),
(468,143,cs),
(350,143,o),
(269,229,o),
(269,365,cs),
(269,500,o),
(349,587,o),
(468,587,cs),
(538,587,o),
(590,558,o),
(623,501,cs),
(627,495,o),
(633,491,o),
(639,491,cs),
(641,491,o),
(643,492,o),
(645,493,c),
(815,538,l),
(823,539,o),
(828,545,o),
(828,552,cs),
(828,554,o),
(827,557,o),
(826,560,cs),
(769,705,o),
(645,788,o),
(468,788,cs),
(232,788,o),
(55,618,o),
(55,365,cs),
(55,112,o),
(220,-58,o),
(467,-58,cs)
);
},
{
closed = 1;
nodes = (
(561,987,o),
(518,1027,o),
(468,1027,cs),
(418,1027,o),
(375,987,o),
(375,936,cs),
(375,885,o),
(419,848,o),
(468,848,cs),
(517,848,o),
(561,885,o),
(561,936,cs)
);
}
);
vertWidth = 1000;
width = 896;
}
);
note = cid25726;
unicode = 266;
}
{
glyphname = Ccaron;
layers = (
{
hints = (
{
horizontal = 1;
place = (-58, 201);
place = (-58, 201);
type = Stem;
},
{
horizontal = 1;
place = (587, 201);
place = (587, 201);
type = Stem;
},
{
horizontal = 1;
place = (833, 196);
place = (833, 196);
type = Stem;
},
{
place = (55, 214);
place = (55, 214);
type = Stem;
}
);
layerId = m01;
shapes = (
{
closed = 1;
nodes = (
(662,-58,o),
(798,52,o),
(846,208,cs),
(848,216,o),
(844,223,o),
(833,226,cs),
(664,271,ls),
(654,274,o),
(648,270,o),
(643,259,cs),
(613,176,o),
(549,143,o),
(468,143,cs),
(350,143,o),
(269,229,o),
(269,365,cs),
(269,500,o),
(349,587,o),
(468,587,cs),
(538,587,o),
(590,558,o),
(623,501,cs),
(627,495,o),
(633,491,o),
(639,491,cs),
(641,491,o),
(643,492,o),
(645,493,c),
(815,538,l),
(823,539,o),
(828,545,o),
(828,552,cs),
(828,554,o),
(827,557,o),
(826,560,cs),
(769,705,o),
(645,788,o),
(468,788,cs),
(232,788,o),
(55,618,o),
(55,365,cs),
(55,112,o),
(220,-58,o),
(467,-58,cs)
);
},
{
closed = 1;
nodes = (
(468,949,l),
(429,1014,ls),
(423,1024,o),
(414,1029,o),
(402,1029,cs),
(260,1029,ls),
(248,1029,o),
(246,1024,o),
(253,1015,cs),
(377,847,ls),
(384,838,o),
(394,833,o),
(406,833,cs),
(530,833,ls),
(542,833,o),
(552,838,o),
(559,847,cs),
(683,1015,ls),
(690,1024,o),
(688,1029,o),
(676,1029,cs),
(534,1029,ls),
(522,1029,o),
(513,1024,o),
(507,1014,cs)
);
}
);
vertWidth = 1000;
width = 896;
}
);
note = cid25728;
unicode = 268;
}
{
glyphname = ccaron;
layers = (
{
hints = (
{
horizontal = 1;
place = (-53, 175);
place = (-53, 175);
type = Stem;
},
{
horizontal = 1;
place = (383, 175);
place = (383, 175);
type = Stem;
},
{
horizontal = 1;
place = (608, 196);
place = (608, 196);
type = Stem;
},
{
place = (34, 203);
place = (34, 203);
type = Stem;
}
);
layerId = m01;
shapes = (
{
closed = 1;
nodes = (
(472,-53,o),
(584,7,o),
(630,133,cs),
(631,136,o),
(632,138,o),
(632,141,cs),
(632,148,o),
(627,154,o),
(619,155,c),
(469,193,ls),
(459,195,o),
(452,191,o),
(447,181,cs),
(428,140,o),
(391,122,o),
(350,122,cs),
(275,122,o),
(237,180,o),
(237,253,cs),
(237,326,o),
(275,383,o),
(350,383,cs),
(393,383,o),
(426,366,o),
(447,327,cs),
(451,319,o),
(457,315,o),
(464,315,cs),
(466,315,o),
(468,316,o),
(470,316,c),
(608,355,ls),
(617,357,o),
(621,362,o),
(621,370,cs),
(621,372,o),
(621,375,o),
(620,377,cs),
(577,504,o),
(471,558,o),
(339,558,cs),
(152,558,o),
(34,434,o),
(34,253,cs),
(34,71,o),
(152,-53,o),
(339,-53,cs)
);
},
{
closed = 1;
nodes = (
(338,724,l),
(299,789,ls),
(293,799,o),
(284,804,o),
(272,804,cs),
(130,804,ls),
(118,804,o),
(116,799,o),
(123,790,cs),
(247,622,ls),
(254,613,o),
(264,608,o),
(276,608,cs),
(400,608,ls),
(412,608,o),
(422,613,o),
(429,622,cs),
(553,790,ls),
(560,799,o),
(558,804,o),
(546,804,cs),
(404,804,ls),
(392,804,o),
(383,799,o),
(377,789,cs)
);
}
);
vertWidth = 1000;
width = 659;
}
);
note = cid25729;
unicode = 269;
}
{
glyphname = Dcaron;
layers = (
{
hints = (
{
horizontal = 1;
place = (-42, 191);
place = (-42, 191);
type = Stem;
},
{
horizontal = 1;
place = (581, 191);
place = (581, 191);
type = Stem;
},
{
horizontal = 1;
place = (833, 196);
place = (833, 196);
type = Stem;
},
{
place = (79, 204);
place = (79, 204);
type = Stem;
},
{
place = (599, 211);
place = (599, 211);
type = Stem;
}
);
layerId = m01;
shapes = (
{
closed = 1;
nodes = (
(397,-42,ls),
(660,-42,o),
(810,103,o),
(810,365,cs),
(810,629,o),
(660,772,o),
(397,772,cs),
(96,772,ls),
(85,772,o),
(79,765,o),
(79,754,cs),
(79,-24,ls),
(79,-35,o),
(85,-42,o),
(96,-42,cs)
);
},
{
closed = 1;
nodes = (
(404,949,l),
(365,1014,ls),
(359,1024,o),
(350,1029,o),
(338,1029,cs),
(196,1029,ls),
(184,1029,o),
(182,1024,o),
(189,1015,cs),
(313,847,ls),
(320,838,o),
(330,833,o),
(342,833,cs),
(466,833,ls),
(478,833,o),
(488,838,o),
(495,847,cs),
(619,1015,ls),
(626,1024,o),
(624,1029,o),
(612,1029,cs),
(470,1029,ls),
(458,1029,o),
(449,1024,o),
(443,1014,cs)
);
},
{
closed = 1;
nodes = (
(283,149,l),
(283,581,l),
(377,581,ls),
(521,581,o),
(599,510,o),
(599,365,cs),
(599,220,o),
(521,149,o),
(377,149,cs)
);
}
);
vertWidth = 1000;
width = 866;
}
);
note = cid25730;
unicode = 270;
}
{
glyphname = dcroat;
layers = (
{
hints = (
{
horizontal = 1;
place = (-53, 175);
place = (-53, 175);
type = Stem;
},
{
horizontal = 1;
place = (383, 175);
place = (383, 175);
type = Stem;
},
{
horizontal = 1;
place = (597, 102);
place = (597, 102);
type = Stem;
},
{
place = (34, 202);
place = (34, 202);
type = Stem;
},
{
place = (462, 200);
place = (462, 200);
type = Stem;
},
{
place = (487, 175);
place = (487, 175);
type = Stem;
},
{
horizontal = 1;
place = (-42, 164);
place = (-42, 164);
type = Stem;
},
{
place = (478, 184);
place = (478, 184);
type = Stem;
}
);
layerId = m01;
shapes = (
{
closed = 1;
nodes = (
(357,615,ls),
(357,603,o),
(363,597,o),
(375,597,cs),
(462,597,l),
(462,501,l),
(423,538,o),
(370,558,o),
(308,558,cs),
(144,558,o),
(34,436,o),
(34,253,cs),
(34,70,o),
(144,-53,o),
(308,-53,cs),
(383,-53,o),
(442,-24,o),
(485,28,c),
(487,-24,ls),
(487,-35,o),
(495,-42,o),
(505,-42,cs),
(644,-42,ls),
(655,-42,o),
(662,-35,o),
(662,-24,cs),
(662,597,l),
(719,597,ls),
(731,597,o),
(737,603,o),
(737,615,cs),
(737,681,ls),
(737,693,o),
(731,699,o),
(719,699,cs),
(662,699,l),
(662,772,ls),
(662,783,o),
(655,790,o),
(644,790,cs),
(480,790,ls),
(469,790,o),
(462,783,o),
(462,772,cs),
(462,699,l),
(375,699,ls),
(363,699,o),
(357,693,o),
(357,681,cs)
);
},
{
closed = 1;
nodes = (
(236,330,o),
(285,383,o),
(357,383,cs),
(429,383,o),
(478,330,o),
(478,253,cs),
(478,176,o),
(429,122,o),
(357,122,cs),
(285,122,o),
(236,176,o),
(236,253,cs)
);
}
);
vertWidth = 1000;
width = 726;
}
);
note = cid25733;
unicode = 273;
}
{
glyphname = Emacron;
layers = (
{
hints = (
{
horizontal = 1;
place = (-42, 179);
place = (-42, 179);
type = Stem;
},
{
horizontal = 1;
place = (287, 173);
place = (287, 173);
type = Stem;
},
{
horizontal = 1;
place = (593, 179);
place = (593, 179);
type = Stem;
},
{
horizontal = 1;
place = (866, 143);
place = (866, 143);
type = Stem;
},
{
place = (79, 205);
place = (79, 205);
type = Stem;
},
{
place = (176, 380);
place = (176, 380);
type = Stem;
}
);
layerId = m01;
shapes = (
{
closed = 1;
nodes = (
(645,-42,ls),
(655,-42,o),
(663,-35,o),
(663,-24,cs),
(663,119,ls),
(663,130,o),
(655,137,o),
(645,137,cs),
(284,137,l),
(284,287,l),
(591,287,ls),
(602,287,o),
(609,294,o),
(609,305,cs),
(609,443,ls),
(609,454,o),
(602,460,o),
(591,460,cs),
(284,460,l),
(284,593,l),
(632,593,ls),
(642,593,o),
(650,600,o),
(650,611,cs),
(650,754,ls),
(650,765,o),
(642,772,o),
(632,772,cs),
(96,772,ls),
(85,772,o),
(79,765,o),
(79,754,cs),
(79,-24,ls),
(79,-35,o),
(85,-42,o),
(96,-42,cs)
);
},
{
closed = 1;
nodes = (
(194,1009,ls),
(182,1009,o),
(176,1003,o),
(176,991,cs),
(176,884,ls),
(176,872,o),
(182,866,o),
(194,866,cs),
(538,866,ls),
(550,866,o),
(556,872,o),
(556,884,cs),
(556,991,ls),
(556,1003,o),
(550,1009,o),
(538,1009,cs)
);
}
);
vertWidth = 1000;
width = 703;
}
);
note = cid25734;
unicode = 274;
}
{
glyphname = emacron;
layers = (
{
hints = (
{
horizontal = 1;
place = (-53, 165);
place = (-53, 165);
type = Stem;
},
{
horizontal = 1;
place = (202, 109);
place = (202, 109);
type = Stem;
},
{
horizontal = 1;
place = (402, 156);
place = (402, 156);
type = Stem;
},
{
horizontal = 1;
place = (642, 143);
place = (642, 143);
type = Stem;
},
{
place = (34, 601);
place = (34, 601);
type = Stem;
},
{
place = (140, 380);
place = (140, 380);
type = Stem;
}
);
layerId = m01;
shapes = (
{
closed = 1;
nodes = (
(455,-53,o),
(561,-10,o),
(615,91,cs),
(617,95,o),
(618,98,o),
(618,101,cs),
(618,107,o),
(614,111,o),
(607,114,cs),
(465,162,l),
(456,164,o),
(448,162,o),
(441,154,cs),
(420,125,o),
(387,112,o),
(344,112,cs),
(288,112,o),
(251,144,o),
(236,202,c),
(615,202,ls),
(627,202,o),
(633,208,o),
(634,219,cs),
(645,419,o),
(539,558,o),
(343,558,cs),
(155,558,o),
(34,433,o),
(34,253,cs),
(34,72,o),
(155,-53,o),
(343,-53,cs)
);
},
{
closed = 1;
nodes = (
(158,785,ls),
(146,785,o),
(140,779,o),
(140,767,cs),
(140,660,ls),
(140,648,o),
(146,642,o),
(158,642,cs),
(502,642,ls),
(514,642,o),
(520,648,o),
(520,660,cs),
(520,767,ls),
(520,779,o),
(514,785,o),
(502,785,cs)
);
},
{
closed = 1;
nodes = (
(236,311,l),
(248,371,o),
(285,402,o),
(340,402,cs),
(393,402,o),
(427,369,o),
(438,311,c)
);
}
);
vertWidth = 1000;
width = 665;
}
);
note = cid25735;
unicode = 275;
}
{
glyphname = eogonek;
layers = (
{
hints = (
{
horizontal = 1;
place = (202, 109);
place = (202, 109);
type = Stem;
},
{
horizontal = 1;
place = (402, 156);
place = (402, 156);
type = Stem;
},
{
place = (34, 601);
place = (34, 601);
type = Stem;
},
{
horizontal = 1;
place = (-302, 124);
place = (-302, 124);
type = Stem;
},
{
place = (213, 172);
place = (213, 172);
type = Stem;
}
);
layerId = m01;
shapes = (
{
closed = 1;
nodes = (
(617,95,o),
(618,98,o),
(618,101,cs),
(618,107,o),
(614,111,o),
(607,114,cs),
(465,162,l),
(456,164,o),
(448,162,o),
(441,154,cs),
(420,125,o),
(387,112,o),
(344,112,cs),
(288,112,o),
(251,144,o),
(236,202,c),
(615,202,ls),
(627,202,o),
(633,208,o),
(634,219,cs),
(645,419,o),
(539,558,o),
(343,558,cs),
(155,558,o),
(34,433,o),
(34,253,cs),
(34,90,o),
(132,-27,o),
(288,-49,c),
(239,-79,o),
(213,-118,o),
(213,-157,cs),
(213,-246,o),
(307,-302,o),
(409,-302,cs),
(444,-302,o),
(476,-297,o),
(505,-284,cs),
(516,-279,o),
(521,-271,o),
(522,-258,cs),
(525,-187,ls),
(526,-175,o),
(521,-171,o),
(509,-174,cs),
(495,-177,o),
(482,-178,o),
(471,-178,cs),
(416,-178,o),
(385,-148,o),
(385,-117,cs),
(385,-90,o),
(409,-57,o),
(459,-36,c),
(524,-15,o),
(580,26,o),
(615,91,cs)
);
},
{
closed = 1;
nodes = (
(236,311,l),
(248,371,o),
(285,402,o),
(340,402,cs),
(393,402,o),
(427,369,o),
(438,311,c)
);
}
);
vertWidth = 1000;
width = 665;
}
);
note = cid25739;
unicode = 281;
}
{
glyphname = Ecaron;
layers = (
{
hints = (
{
horizontal = 1;
place = (-42, 179);
place = (-42, 179);
type = Stem;
},
{
horizontal = 1;
place = (287, 173);
place = (287, 173);
type = Stem;
},
{
horizontal = 1;
place = (593, 179);
place = (593, 179);
type = Stem;
},
{
horizontal = 1;
place = (833, 196);
place = (833, 196);
type = Stem;
},
{
place = (79, 205);
place = (79, 205);
type = Stem;
}
);
layerId = m01;
shapes = (
{
closed = 1;
nodes = (
(645,-42,ls),
(655,-42,o),
(663,-35,o),
(663,-24,cs),
(663,119,ls),
(663,130,o),
(655,137,o),
(645,137,cs),
(284,137,l),
(284,287,l),
(591,287,ls),
(602,287,o),
(609,294,o),
(609,305,cs),
(609,443,ls),
(609,454,o),
(602,460,o),
(591,460,cs),
(284,460,l),
(284,593,l),
(632,593,ls),
(642,593,o),
(650,600,o),
(650,611,cs),
(650,754,ls),
(650,765,o),
(642,772,o),
(632,772,cs),
(96,772,ls),
(85,772,o),
(79,765,o),
(79,754,cs),
(79,-24,ls),
(79,-35,o),
(85,-42,o),
(96,-42,cs)
);
},
{
closed = 1;
nodes = (
(366,949,l),
(327,1014,ls),
(321,1024,o),
(312,1029,o),
(300,1029,cs),
(158,1029,ls),
(146,1029,o),
(144,1024,o),
(151,1015,cs),
(275,847,ls),
(282,838,o),
(292,833,o),
(304,833,cs),
(428,833,ls),
(440,833,o),
(450,838,o),
(457,847,cs),
(581,1015,ls),
(588,1024,o),
(586,1029,o),
(574,1029,cs),
(432,1029,ls),
(420,1029,o),
(411,1024,o),
(405,1014,cs)
);
}
);
vertWidth = 1000;
width = 703;
}
);
note = cid25740;
unicode = 282;
}
{
glyphname = ecaron;
layers = (
{
hints = (
{
horizontal = 1;
place = (-53, 165);
place = (-53, 165);
type = Stem;
},
{
horizontal = 1;
place = (202, 109);
place = (202, 109);
type = Stem;
},
{
horizontal = 1;
place = (402, 156);
place = (402, 156);
type = Stem;
},
{
horizontal = 1;
place = (609, 196);
place = (609, 196);
type = Stem;
},
{
place = (34, 601);
place = (34, 601);
type = Stem;
}
);
layerId = m01;
shapes = (
{
closed = 1;
nodes = (
(455,-53,o),
(561,-10,o),
(615,91,cs),
(617,95,o),
(618,98,o),
(618,101,cs),
(618,107,o),
(614,111,o),
(607,114,cs),
(465,162,l),
(456,164,o),
(448,162,o),
(441,154,cs),
(420,125,o),
(387,112,o),
(344,112,cs),
(288,112,o),
(251,144,o),
(236,202,c),
(615,202,ls),
(627,202,o),
(633,208,o),
(634,219,cs),
(645,419,o),
(539,558,o),
(343,558,cs),
(155,558,o),
(34,433,o),
(34,253,cs),
(34,72,o),
(155,-53,o),
(343,-53,cs)
);
},
{
closed = 1;
nodes = (
(330,725,l),
(291,790,ls),
(285,800,o),
(276,805,o),
(264,805,cs),
(122,805,ls),
(110,805,o),
(108,800,o),
(115,791,cs),
(239,623,ls),
(246,614,o),
(256,609,o),
(268,609,cs),
(392,609,ls),
(404,609,o),
(414,614,o),
(421,623,cs),
(545,791,ls),
(552,800,o),
(550,805,o),
(538,805,cs),
(396,805,ls),
(384,805,o),
(375,800,o),
(369,790,cs)
);
},
{
closed = 1;
nodes = (
(236,311,l),
(248,371,o),
(285,402,o),
(340,402,cs),
(393,402,o),
(427,369,o),
(438,311,c)
);
}
);
vertWidth = 1000;
width = 665;
}
);
note = cid25741;
unicode = 283;
}
{
glyphname = Gbreve;
layers = (
{
hints = (
{
horizontal = 1;
place = (-58, 199);
place = (-58, 199);
type = Stem;
},
{
horizontal = 1;
place = (263, 154);
place = (263, 154);
type = Stem;
},
{
horizontal = 1;
place = (588, 200);
place = (588, 200);
type = Stem;
},
{
horizontal = 1;
place = (831, 208);
place = (831, 208);
type = Stem;
},
{
place = (55, 214);
place = (55, 214);
type = Stem;
},
{
place = (475, 382);
place = (475, 382);
type = Stem;
},
{
place = (509, 169);
place = (509, 169);
type = Stem;
},
{
horizontal = 1;
place = (831, 128);
place = (831, 128);
type = Stem;
}
);
layerId = m01;
shapes = (
{
closed = 1;
nodes = (
(720,-58,o),
(857,100,o),
(857,304,cs),
(857,399,ls),
(857,410,o),
(849,417,o),
(840,417,cs),
(492,417,ls),
(481,417,o),
(475,410,o),
(475,399,cs),
(475,281,ls),
(475,270,o),
(481,263,o),
(492,263,cs),
(649,263,l),
(638,184,o),
(568,141,o),
(474,141,cs),
(352,141,o),
(269,223,o),
(269,364,cs),
(269,505,o),
(349,588,o),
(474,588,cs),
(539,588,o),
(597,559,o),
(629,507,cs),
(633,500,o),
(638,496,o),
(645,496,cs),
(647,496,o),
(649,497,o),
(651,497,c),
(821,544,l),
(829,545,o),
(834,551,o),
(834,558,cs),
(834,561,o),
(833,563,o),
(832,566,cs),
(777,708,o),
(648,788,o),
(470,788,cs),
(233,788,o),
(55,617,o),
(55,365,cs),
(55,113,o),
(221,-58,o),
(467,-58,cs)
);
},
{
closed = 1;
nodes = (
(679,1033,o),
(672,1039,o),
(660,1039,cs),
(526,1039,ls),
(514,1039,o),
(509,1033,o),
(509,1021,cs),
(508,989,o),
(498,959,o),
(470,959,cs),
(442,959,o),
(432,989,o),
(431,1021,cs),
(431,1033,o),
(426,1039,o),
(414,1039,cs),
(280,1039,ls),
(268,1039,o),
(261,1033,o),
(262,1021,cs),
(264,901,o),
(360,831,o),
(470,831,cs),
(580,831,o),
(676,901,o),
(678,1021,cs)
);
}
);
vertWidth = 1000;
width = 913;
}
);
note = cid25742;
unicode = 286;
}
{
glyphname = gbreve;
layers = (
{
hints = (
{
horizontal = 1;
place = (-295, 166);
place = (-295, 166);
type = Stem;
},
{
horizontal = 1;
place = (-43, 165);
place = (-43, 165);
type = Stem;
},
{
horizontal = 1;
place = (383, 175);
place = (383, 175);
type = Stem;
},
{
horizontal = 1;
place = (607, 208);
place = (607, 208);
type = Stem;
},
{
place = (34, 202);
place = (34, 202);
type = Stem;
},
{
place = (478, 184);
place = (478, 184);
type = Stem;
},
{
horizontal = 1;
place = (383, 164);
place = (383, 164);
type = Stem;
},
{
place = (487, 175);
place = (487, 175);
type = Stem;
},
{
place = (462, 200);
place = (462, 200);
type = Stem;
},
{
place = (411, 169);
place = (411, 169);
type = Stem;
},
{
horizontal = 1;
place = (607, 128);
place = (607, 128);
type = Stem;
}
);
layerId = m01;
shapes = (
{
closed = 1;
nodes = (
(521,-295,o),
(662,-201,o),
(662,16,cs),
(662,530,ls),
(662,540,o),
(655,547,o),
(644,547,cs),
(505,547,ls),
(495,547,o),
(487,541,o),
(487,530,cs),
(485,478,l),
(442,529,o),
(381,558,o),
(308,558,cs),
(144,558,o),
(34,435,o),
(34,257,cs),
(34,81,o),
(144,-43,o),
(308,-43,cs),
(369,-43,o),
(423,-23,o),
(462,13,c),
(462,-14,ls),
(462,-91,o),
(408,-129,o),
(332,-129,cs),
(271,-129,o),
(235,-104,o),
(212,-71,cs),
(207,-64,o),
(201,-61,o),
(195,-61,cs),
(193,-61,o),
(191,-61,o),
(189,-62,cs),
(61,-102,ls),
(53,-104,o),
(48,-109,o),
(48,-115,cs),
(48,-117,o),
(49,-120,o),
(50,-123,cs),
(91,-231,o),
(199,-295,o),
(337,-295,cs)
);
},
{
closed = 1;
nodes = (
(581,809,o),
(574,815,o),
(562,815,cs),
(428,815,ls),
(416,815,o),
(411,809,o),
(411,797,cs),
(410,765,o),
(400,735,o),
(372,735,cs),
(344,735,o),
(334,765,o),
(333,797,cs),
(333,809,o),
(328,815,o),
(316,815,cs),
(182,815,ls),
(170,815,o),
(163,809,o),
(164,797,cs),
(166,677,o),
(262,607,o),
(372,607,cs),
(482,607,o),
(578,677,o),
(580,797,cs)
);
},
{
closed = 1;
nodes = (
(236,330,o),
(286,383,o),
(357,383,cs),
(428,383,o),
(478,330,o),
(478,253,cs),
(478,176,o),
(428,122,o),
(357,122,cs),
(286,122,o),
(236,176,o),
(236,253,cs)
);
}
);
vertWidth = 1000;
width = 726;
}
);
note = cid25743;
unicode = 287;
}
{
glyphname = gdotaccent;
layers = (
{
hints = (
{
horizontal = 1;
place = (-295, 166);
place = (-295, 166);
type = Stem;
},
{
horizontal = 1;
place = (-43, 165);
place = (-43, 165);
type = Stem;
},
{
horizontal = 1;
place = (383, 175);
place = (383, 175);
type = Stem;
},
{
horizontal = 1;
place = (624, 179);
place = (624, 179);
type = Stem;
},
{
place = (34, 202);
place = (34, 202);
type = Stem;
},
{
place = (478, 184);
place = (478, 184);
type = Stem;
},
{
horizontal = 1;
place = (383, 164);
place = (383, 164);
type = Stem;
},
{
place = (487, 175);
place = (487, 175);
type = Stem;
},
{
place = (462, 200);
place = (462, 200);
type = Stem;
},
{
place = (279, 186);
place = (279, 186);
type = Stem;
}
);
layerId = m01;
shapes = (
{
closed = 1;
nodes = (
(521,-295,o),
(662,-201,o),
(662,16,cs),
(662,530,ls),
(662,540,o),
(655,547,o),
(644,547,cs),
(505,547,ls),
(495,547,o),
(487,541,o),
(487,530,cs),
(485,478,l),
(442,529,o),
(381,558,o),
(308,558,cs),
(144,558,o),
(34,435,o),
(34,257,cs),
(34,81,o),
(144,-43,o),
(308,-43,cs),
(369,-43,o),
(423,-23,o),
(462,13,c),
(462,-14,ls),
(462,-91,o),
(408,-129,o),
(332,-129,cs),
(271,-129,o),
(235,-104,o),
(212,-71,cs),
(207,-64,o),
(201,-61,o),
(195,-61,cs),
(193,-61,o),
(191,-61,o),
(189,-62,cs),
(61,-102,ls),
(53,-104,o),
(48,-109,o),
(48,-115,cs),
(48,-117,o),
(49,-120,o),
(50,-123,cs),
(91,-231,o),
(199,-295,o),
(337,-295,cs)
);
},
{
closed = 1;
nodes = (
(236,330,o),
(286,383,o),
(357,383,cs),
(428,383,o),
(478,330,o),
(478,253,cs),
(478,176,o),
(428,122,o),
(357,122,cs),
(286,122,o),
(236,176,o),
(236,253,cs)
);
},
{
closed = 1;
nodes = (
(465,763,o),
(422,803,o),
(372,803,cs),
(322,803,o),
(279,763,o),
(279,712,cs),
(279,661,o),
(323,624,o),
(372,624,cs),
(421,624,o),
(465,661,o),
(465,712,cs)
);
}
);
vertWidth = 1000;
width = 726;
}
);
note = cid25745;
unicode = 289;
}
